<svg width="96" height="96" viewBox="0 0 96 96" fill="none" xmlns="http://www.w3.org/2000/svg">
<g clip-path="url(#clip0_462_7004)">
<path d="M0.5 0.107422H95.5V95.1074H0.5V0.107422ZM28.4695 9.07845C25.7593 9.37027 23.0444 9.87424 20.5598 11.0409C19.9201 11.3413 19.3082 11.712 18.6977 12.0673C16.7655 13.1921 15.0838 14.5792 13.6784 16.3235C12.6646 17.5814 11.9152 18.9029 11.1998 20.343C10.9406 20.8649 10.6689 21.3852 10.4653 21.9317C10.0994 22.9141 9.89832 23.9662 9.68905 24.9904C9.47098 26.0577 9.23255 27.1332 9.09168 28.2141C8.86565 29.9483 8.79616 32.3311 8.98242 34.0694C9.05719 34.7672 9.23595 35.466 9.37768 36.1532C9.70999 37.7646 10.0482 39.3497 10.57 40.9132C10.9087 41.9284 11.3445 42.9268 11.7325 43.9252C12.2119 45.1581 12.6745 46.3717 13.3006 47.5403C13.793 48.4595 14.3737 49.3566 14.93 50.2391C15.7816 51.5889 16.6705 52.9137 17.5968 54.2134C18.5231 55.5131 19.4852 56.7857 20.4831 58.0312C21.6383 59.4958 22.7617 61.0037 23.9679 62.4254C25.9945 64.8141 28.1529 67.0852 30.2756 69.3872C32.2548 71.5411 34.2176 73.7099 36.1642 75.8934C37.3967 77.2498 38.6582 78.5722 39.8732 79.9464C41.5133 81.7952 43.0859 83.6998 44.591 85.66C45.0201 86.2072 45.4319 86.7671 45.8264 87.3397C46.1677 87.8273 46.9394 89.0959 47.3517 89.4237C47.4336 89.4889 47.4463 89.4992 47.5543 89.5022C47.9144 89.1497 48.1183 88.5938 48.3844 88.1642C48.7021 87.6511 49.0469 87.1393 49.4093 86.6563C50.2045 85.5967 51.1066 84.6151 51.9625 83.605C52.7738 82.6476 53.5367 81.649 54.3493 80.6924C55.3193 79.5505 56.3943 78.4748 57.4314 77.3924C58.4689 76.3098 59.4903 75.2024 60.5496 74.1417C61.5715 73.1184 62.6411 72.151 63.6049 71.0688C64.9741 69.7003 66.3284 68.3115 67.7245 66.9705C68.6515 66.0801 69.6448 65.2319 70.5328 64.3046C71.591 63.1997 72.5831 61.9842 73.5805 60.8231C74.5029 59.7493 75.4569 58.6866 76.3456 57.5857C78.3367 55.0822 80.2206 52.5005 81.9972 49.8406C82.7172 48.7679 83.5003 47.7348 84.1453 46.6146C84.6274 45.7774 85.0695 44.9197 85.4717 44.0414C85.8738 43.1631 86.2342 42.2679 86.5529 41.356C87.5738 38.3466 87.8712 35.6041 87.8729 32.452C87.8747 29.184 86.9481 24.363 85.4806 21.4397C84.492 19.4704 82.7232 17.2011 81.158 15.6397C78.2016 12.6907 75.5318 11.5253 71.4622 10.8283C69.9895 10.5762 68.49 10.3945 66.9934 10.3986C65.4334 10.4029 63.9844 10.5699 62.4575 10.8612C61.5781 11.0289 60.6923 11.1853 59.8387 11.4612C57.7435 12.1386 55.7966 13.5158 54.2552 15.0701C52.8673 16.4696 51.7713 18.0518 50.7528 19.7309C50.4693 20.1983 50.1672 20.6649 49.9148 21.1495C49.4501 22.0418 48.8999 23.3984 48.3386 24.1741C48.0529 23.0408 47.6423 21.9403 47.2199 20.852C46.9318 20.1101 46.6551 19.3343 46.3007 18.6235C46.1001 18.2213 45.8435 17.8396 45.6123 17.4542C44.0062 14.7768 42.1832 12.9896 39.5007 11.3871C37.7415 10.3363 35.6073 9.57041 33.5703 9.29806C32.5194 9.15753 31.4451 9.13489 30.3864 9.11223C29.7787 9.09921 29.0646 8.97164 28.4695 9.07845Z" fill="#FEFEFE"/>
<path d="M63.6048 71.0688C62.6411 72.151 61.5715 73.1183 60.5495 74.1417C59.4902 75.2024 58.4689 76.3098 57.4314 77.3924C56.3943 78.4748 55.3192 79.5505 54.3493 80.6924C53.5367 81.6489 52.7738 82.6476 51.9625 83.605C51.1066 84.6151 50.2044 85.5966 49.4093 86.6563C49.0468 87.1393 48.7021 87.6511 48.3843 88.1642C48.1182 88.5938 47.9143 89.1497 47.5543 89.5022C47.4463 89.4992 47.4336 89.4889 47.3516 89.4236C46.9394 89.0959 46.1677 87.8273 45.8264 87.3397C45.4319 86.7671 45.0201 86.2072 44.591 85.66C43.0858 83.6998 41.5132 81.7952 39.8732 79.9464C38.6581 78.5722 37.3967 77.2498 36.1641 75.8934C34.2176 73.7099 32.2547 71.5411 30.2756 69.3872C28.1528 67.0852 25.9945 64.8141 23.9678 62.4254C22.7617 61.0037 21.6383 59.4958 20.4831 58.0312C19.4851 56.7856 18.523 55.513 17.5967 54.2133C16.6704 52.9137 15.7815 51.5889 14.9299 50.2391C14.3737 49.3566 13.793 48.4594 13.3005 47.5402C12.6744 46.3717 12.2119 45.1581 11.7325 43.9252C11.3444 42.9268 10.9087 41.9284 10.5699 40.9132C10.0482 39.3496 9.70994 37.7646 9.37762 36.1532C9.23589 35.466 9.05714 34.7672 8.98236 34.0694C8.79611 32.3311 8.8656 29.9483 9.09163 28.214C9.2325 27.1331 9.47092 26.0577 9.689 24.9904C9.89827 23.9662 10.0993 22.9141 10.4652 21.9317C10.6688 21.3852 10.9406 20.8649 11.1998 20.343C11.9152 18.9029 12.6646 17.5814 13.6783 16.3235C15.0837 14.5792 16.7654 13.1921 18.6976 12.0673C19.3082 11.712 19.92 11.3413 20.5597 11.0409C23.0444 9.87423 25.7593 9.37026 28.4695 9.07843C29.0645 8.97162 29.7787 9.0992 30.3864 9.11221C31.4451 9.13488 32.5193 9.15751 33.5702 9.29805C35.6073 9.57039 37.7414 10.3362 39.5006 11.3871C42.1831 12.9896 44.0061 14.7767 45.6122 17.4542C45.8434 17.8396 46.1 18.2213 46.3006 18.6235C46.655 19.3342 46.9318 20.1101 47.2198 20.852C47.6422 21.9402 48.0528 23.0408 48.3386 24.174C48.8999 23.3984 49.45 22.0417 49.9148 21.1494C50.1671 20.6649 50.4693 20.1982 50.7527 19.7308C51.7713 18.0518 52.8672 16.4696 54.2551 15.0701C55.7965 13.5158 57.7435 12.1385 59.8387 11.4612C60.6923 11.1853 61.5781 11.0289 62.4575 10.8611C63.9843 10.5698 65.4334 10.4028 66.9934 10.3986C68.49 10.3945 69.9895 10.5761 71.4622 10.8283C75.5318 11.5253 78.2015 12.6906 81.1579 15.6397C82.7232 17.2011 84.4919 19.4703 85.4805 21.4396C86.9481 24.363 87.8746 29.184 87.8729 32.452C87.8712 35.6041 87.5738 38.3466 86.5529 41.356C86.2342 42.2679 85.8737 43.1631 85.4716 44.0414C85.0695 44.9197 84.6273 45.7774 84.1452 46.6145C83.5003 47.7348 82.7172 48.7679 81.9971 49.8406C80.2205 52.5005 78.3367 55.0822 76.3456 57.5857C75.4569 58.6866 74.5028 59.7493 73.5805 60.8231C72.583 61.9842 71.5909 63.1997 70.5328 64.3046C69.6447 65.2319 68.6514 66.0801 67.7244 66.9705C66.3284 68.3115 64.974 69.7003 63.6048 71.0688ZM28.6466 9.91505C26.6371 10.0451 24.1518 10.4927 22.2606 11.2136C21.2701 11.5912 20.3274 12.0787 19.4024 12.5936C18.5556 13.0651 17.7253 13.5654 16.9704 14.1766C16.2164 14.787 15.5249 15.5098 14.8854 16.2383C13.6061 17.6956 13.0132 18.8218 12.1435 20.5192C11.8356 21.1201 11.4974 21.7242 11.2688 22.36C11.0937 22.8473 10.9779 23.365 10.85 23.867C10.088 26.8592 9.69984 30.094 9.90272 33.181C10.0357 35.2024 10.5383 37.2773 11.1032 39.2174C11.3006 39.9058 11.5151 40.5886 11.7469 41.2661C11.9787 41.9436 12.2274 42.6148 12.493 43.2797C12.7587 43.9446 13.0409 44.6024 13.3397 45.2531C13.6386 45.9038 13.9536 46.5466 14.2848 47.1814C14.8423 48.2373 15.4968 49.2503 16.1274 50.2637C18.5864 54.2147 21.4448 57.854 24.4541 61.3947C25.0433 62.0879 25.6055 62.8048 26.2086 63.486C27.3091 64.7291 28.4637 65.9197 29.5812 67.1461L36.4208 74.6318C37.2435 75.5177 38.1131 76.3596 38.9223 77.2585C40.3267 78.8185 41.7667 80.3879 43.0783 82.0262C43.608 82.6877 44.0947 83.3873 44.6023 84.066C45.5518 85.3253 46.4932 86.5906 47.4268 87.8617C48.2455 86.6951 49.1612 85.6089 50.044 84.4914C50.5422 83.8609 51.0099 83.207 51.5179 82.5841C53.69 79.9635 55.9599 77.4306 58.3278 74.9854C59.3335 73.9517 60.3994 72.9771 61.4304 71.9688C62.4053 71.0153 63.3449 70.0214 64.2947 69.0429C65.9596 67.2963 67.7371 65.6626 69.4071 63.9193C70.6553 62.6162 71.7981 61.2045 73.0054 59.8632C74.5477 58.1501 76.0847 56.4172 77.5051 54.6009C78.3764 53.4869 79.1845 52.3312 80.0073 51.1823C81.4639 49.1482 82.8921 47.0949 84.0538 44.8727C85.9823 41.1838 87.1149 36.8785 87.0141 32.706C87.0017 32.1911 86.9609 31.6779 86.9414 31.1635C86.9244 30.7162 86.9353 30.2649 86.8851 29.8196C86.8597 29.5845 86.8305 29.3499 86.7975 29.1158C86.7646 28.8816 86.7278 28.6481 86.6874 28.4152C86.6469 28.1822 86.6028 27.95 86.5548 27.7185C86.507 27.4869 86.4554 27.2562 86.4001 27.0263C86.3448 26.7964 86.2858 26.5674 86.2232 26.3395C86.1606 26.1115 86.0943 25.8846 86.0244 25.6587C85.9546 25.4328 85.881 25.2081 85.8039 24.9846C85.7269 24.7611 85.6462 24.5389 85.562 24.3179C85.4777 24.097 85.39 23.8775 85.2988 23.6593C85.2075 23.4412 85.1128 23.2246 85.0146 23.0096C84.9164 22.7944 84.8148 22.581 84.7097 22.3691C84.6047 22.1573 84.4962 21.9472 84.3845 21.7389C84.2727 21.5306 84.1576 21.324 84.0393 21.1194C83.9209 20.9147 83.7992 20.712 83.6743 20.5113C83.5494 20.3105 83.4214 20.1118 83.2901 19.9151C83.1589 19.7184 83.0245 19.5239 82.887 19.3316C82.0829 18.1881 81.2207 17.1242 80.2059 16.1596C77.3431 13.4385 74.8186 12.2608 70.9395 11.5941C69.1708 11.29 67.4891 11.1497 65.6915 11.1999C61.3579 11.3207 57.4984 12.8395 54.5025 16.0229C52.7369 17.899 51.0607 20.749 49.897 23.0565C49.6642 23.518 48.7574 25.6563 48.4916 25.8252C48.4028 25.8817 48.3125 25.9157 48.2066 25.9162C48.1141 25.9168 48.0871 25.9004 48.0158 25.8385C47.7253 25.586 46.9478 22.8497 46.7406 22.286C46.1359 20.6408 45.412 18.977 44.4532 17.5047C43.3007 15.735 41.6632 13.9863 39.9376 12.774C37.6328 11.1547 34.514 10.0742 31.7131 9.92905C30.7065 9.87692 29.6526 9.86884 28.6466 9.91505Z" fill="#1B1919"/>
<path d="M47.4268 87.8618C46.4933 86.5906 45.5518 85.3254 44.6023 84.066C44.0947 83.3874 43.608 82.6878 43.0783 82.0262C41.7667 80.3879 40.3268 78.8186 38.9224 77.2586C38.1131 76.3596 37.2435 75.5178 36.4208 74.6319L29.5812 67.1462C28.4637 65.9197 27.3091 64.7292 26.2086 63.4861C25.6055 62.8049 25.0434 62.0879 24.4542 61.3947C21.4449 57.854 18.5864 54.2148 16.1275 50.2638C15.4968 49.2504 14.8423 48.2374 14.2848 47.1814C13.9536 46.5466 13.6386 45.9039 13.3397 45.2532C13.0409 44.6025 12.7587 43.9447 12.4931 43.2798C12.2274 42.6148 11.9787 41.9436 11.7469 41.2661C11.5152 40.5887 11.3006 39.9058 11.1032 39.2175C10.5383 37.2773 10.0357 35.2024 9.90275 33.181C9.69987 30.0941 10.088 26.8592 10.8501 23.867C10.9779 23.365 11.0937 22.8473 11.2688 22.3601C11.4974 21.7242 11.8356 21.1202 12.1435 20.5193C13.0133 18.8218 13.6062 17.6956 14.8854 16.2384C15.5249 15.5099 16.2164 14.7871 16.9704 14.1766C17.7253 13.5655 18.5556 13.0651 19.4025 12.5937C20.3274 12.0788 21.2701 11.5912 22.2606 11.2137C24.1518 10.4928 26.6371 10.0452 28.6466 9.9151C29.6526 9.8689 30.7065 9.87697 31.7131 9.92911C34.5141 10.0743 37.6328 11.1547 39.9376 12.774C41.6633 13.9864 43.3007 15.7351 44.4532 17.5048C45.4121 18.977 46.136 20.6408 46.7407 22.2861C46.9478 22.8498 47.7254 25.586 48.0158 25.8385C48.0871 25.9004 48.1141 25.9168 48.2066 25.9163C48.3125 25.9157 48.4028 25.8818 48.4917 25.8253C48.7575 25.6563 49.6642 23.5181 49.897 23.0566C51.0608 20.7491 52.7369 17.8991 54.5026 16.0229C57.4984 12.8396 61.358 11.3207 65.6915 11.1999C67.4892 11.1497 69.1709 11.2901 70.9395 11.5941C74.8186 12.2609 77.3431 13.4385 80.2059 16.1597C81.2208 17.1242 82.0829 18.1882 82.8871 19.3316C83.0246 19.524 83.1589 19.7185 83.2902 19.9152C83.4214 20.1118 83.5495 20.3106 83.6743 20.5113C83.7993 20.7121 83.9209 20.9148 84.0393 21.1194C84.1577 21.3241 84.2728 21.5306 84.3845 21.739C84.4963 21.9473 84.6047 22.1574 84.7098 22.3692C84.8148 22.581 84.9164 22.7945 85.0146 23.0096C85.1128 23.2247 85.2075 23.4413 85.2988 23.6594C85.39 23.8775 85.4778 24.0971 85.562 24.318C85.6462 24.5389 85.7268 24.7611 85.8039 24.9847C85.8811 25.2082 85.9546 25.4329 86.0245 25.6588C86.0944 25.8846 86.1606 26.1115 86.2232 26.3395C86.2858 26.5675 86.3448 26.7964 86.4001 27.0263C86.4554 27.2562 86.507 27.4869 86.5549 27.7185C86.6028 27.95 86.647 28.1823 86.6874 28.4152C86.7279 28.6482 86.7646 28.8817 86.7976 29.1159C86.8305 29.35 86.8597 29.5846 86.8851 29.8196C86.9353 30.265 86.9245 30.7162 86.9414 31.1636C86.9609 31.678 87.0017 32.1911 87.0142 32.7061C87.1149 36.8786 85.9824 41.1838 84.0539 44.8728C82.8922 47.095 81.4639 49.1482 80.0074 51.1823C79.1846 52.3313 78.3764 53.487 77.5052 54.601C76.0847 56.4172 74.5478 58.1501 73.0055 59.8633C71.7981 61.2045 70.6553 62.6163 69.4072 63.9194C67.7372 65.6627 65.9596 67.2963 64.2947 69.0429C63.3449 70.0214 62.4054 71.0153 61.4304 71.9688C60.3994 72.9772 59.3336 73.9518 58.3278 74.9855C55.96 77.4307 53.69 79.9636 51.5179 82.5842C51.0099 83.207 50.5422 83.861 50.0441 84.4915C49.1612 85.6089 48.2455 86.6951 47.4268 87.8618ZM35.5255 19.5537C35.2141 19.6066 34.8579 19.6635 34.6684 19.9473C34.3874 20.3683 34.7074 21.1289 34.7311 21.612C33.4908 20.606 32.7352 20.0771 31.0398 20.2447C30.7386 20.2745 30.2651 20.3809 30.0541 20.6196C29.9895 20.6926 29.9725 20.7407 29.952 20.8332C30.031 21.283 30.6491 21.3791 30.6667 21.757C30.1804 21.9384 27.916 20.8318 27.4256 21.8052C27.3753 21.905 27.3901 21.9897 27.4337 22.088C27.6042 22.4723 28.2993 22.5167 28.4287 22.9418C28.3404 23.0446 28.2286 23.0469 28.0976 23.056C24.8876 23.2792 22.7997 24.3776 20.6693 26.7819C19.1496 28.4969 17.7976 31.2028 17.3156 33.4405C17.1311 34.2974 17.0679 35.2157 17.0137 36.0898C16.981 36.619 16.9179 37.1815 16.9517 37.71C16.9601 37.8424 16.9606 37.978 17.0586 38.0773C17.5564 37.9075 18.2155 35.393 19.0029 35.7765C19.1118 35.8296 19.1661 35.9299 19.1955 36.0422C19.2243 36.1523 19.2006 36.2855 19.1556 36.3879C19.0504 36.6267 18.8657 36.8495 18.7302 37.0735C18.2394 37.8855 17.5222 38.8852 17.3637 39.826C17.2942 40.2383 17.3624 40.6548 17.4458 41.0596C17.4849 41.2498 17.5107 41.6174 17.6305 41.7509C17.7248 41.7032 17.7279 41.6826 17.7854 41.5959C18.6362 40.314 19.696 39.2964 20.9547 38.4239C21.3451 38.1534 21.7575 37.861 22.2333 37.769C22.3791 37.7408 22.5621 37.7363 22.6903 37.8241C22.792 37.8939 22.8381 38.0093 22.8421 38.1284C22.8452 38.2206 22.8329 38.2417 22.765 38.308C22.3468 38.7163 21.7119 38.9339 21.2362 39.2769C20.0805 40.1103 18.0676 42.2737 17.8971 43.6918C17.8342 44.2144 18.0045 44.8365 18.2499 45.2947C18.5055 44.754 19.2348 43.1376 19.7488 42.8713C19.8772 42.8712 19.8863 42.8833 19.993 42.9578C20.0527 43.0811 20.0707 43.1325 20.0234 43.2662C19.9241 43.5473 19.6719 43.791 19.5457 44.0755C19.1498 44.9678 18.7471 46.3457 18.8314 47.3327C18.8658 47.7335 18.9837 48.0969 19.1235 48.4715C20.1008 47.0002 19.5466 46.2178 21.0942 44.7333C21.3631 44.4753 21.6297 44.2254 22.007 44.1459C22.1636 44.113 22.2724 44.1199 22.4088 44.2091C22.4693 44.3154 22.4813 44.3632 22.4725 44.4853C22.0899 44.9898 21.5487 45.3501 21.1764 45.8593C20.7747 46.4087 19.7441 49.135 19.838 49.7756C19.9671 50.655 21.1002 52.6555 21.5476 53.4772C22.2188 54.7143 22.9185 55.9352 23.6465 57.1397C24.0882 57.8776 24.5194 58.6284 25.0232 59.3264C25.6023 60.1287 26.3467 60.8204 26.9715 61.5905C28.804 63.8489 30.7272 66.0231 32.6484 68.206C33.6253 69.3159 34.5588 70.462 35.57 71.5415C36.9794 73.046 38.4797 74.4721 39.8734 75.9901C41.0565 77.2789 42.2144 78.6123 43.2689 80.0085C43.9256 80.8782 44.5276 81.7826 45.1458 82.6794C45.6823 83.4577 46.1806 84.2434 46.6806 85.045C46.8939 85.3869 47.1336 85.7195 47.3238 86.0741C47.7525 85.6039 48.0827 85.0504 48.44 84.5258C48.7922 84.0186 49.157 83.5206 49.5344 83.0319C50.6875 81.5352 51.8226 79.9982 53.05 78.5622C53.9245 77.539 54.8763 76.5635 55.8069 75.5909C57.1794 74.1369 58.5833 72.7139 60.0187 71.3218C62.0242 69.4113 64.0963 67.5863 66.0173 65.5874C67.3081 64.2443 68.4466 62.8089 69.6491 61.3916C71.3053 59.4608 72.904 57.4834 74.4452 55.4596C75.4388 54.1634 76.6907 52.5882 77.3855 51.1154C77.4308 51.0213 77.4706 50.9248 77.5048 50.8261C77.539 50.7273 77.5674 50.627 77.59 50.5249C77.6125 50.4229 77.6292 50.3199 77.6398 50.216C77.6505 50.112 77.6551 50.0078 77.6537 49.9033C77.6457 49.4702 77.5378 48.9831 77.2005 48.6859C76.5861 48.1444 75.6439 48.242 74.8917 48.124C75.3425 47.8845 75.7757 47.6412 76.2012 47.3576C76.8497 47.5559 77.5223 47.6339 78.1533 47.3144C78.6247 47.0758 78.9357 46.6575 79.091 46.1587C79.2203 45.7437 79.229 45.3352 79.2191 44.9051C78.6353 45.1424 77.087 46.1026 76.6649 46.1482L76.6261 46.063L76.6236 46.145L76.7112 46.1411L76.621 46.0654C77.1804 45.4606 78.7459 44.422 78.8395 43.653L78.7987 43.5355C78.6171 43.5084 77.322 44.0702 76.9799 44.1526L78.3445 42.8191C79.3706 41.8175 79.9378 41.1341 79.9472 39.6243C79.9512 38.968 79.7749 37.974 79.3066 37.485C79.1144 37.2845 78.8734 37.1801 78.5943 37.191C78.0129 37.2135 77.5166 37.8036 77.0273 38.0705C78.2478 36.0347 79.453 35.0394 78.7959 32.4638C78.4406 31.0712 77.2458 30.0469 76.0463 29.3486C75.9483 29.2922 75.8489 29.2383 75.7482 29.1868C75.6475 29.1353 75.5456 29.0863 75.4425 29.0399C75.3394 28.9934 75.2353 28.9495 75.13 28.9081C75.0248 28.8668 74.9186 28.8281 74.8114 28.792C74.7042 28.7559 74.5962 28.7225 74.4874 28.6917C74.3786 28.6609 74.2691 28.6328 74.1589 28.6074C74.0487 28.582 73.9379 28.5593 73.8266 28.5394C73.7153 28.5195 73.6036 28.5023 73.4914 28.4879C73.3792 28.4734 73.2668 28.4617 73.1541 28.4529C73.0414 28.444 72.9284 28.4379 72.8154 28.4345C72.7024 28.4312 72.5894 28.4306 72.4763 28.4329C72.3632 28.4351 72.2503 28.4401 72.1375 28.4479C72.0246 28.4557 71.9121 28.4663 71.7998 28.4796C71.6875 28.4929 71.5756 28.509 71.4641 28.5279C71.3525 28.5467 71.2416 28.5683 71.1312 28.5926C71.0207 28.6169 70.9109 28.644 70.8018 28.6737C69.9716 28.898 69.2485 29.3179 68.4519 29.6147C68.8159 29.1465 68.9412 28.5948 69.4289 28.2175C69.5915 28.0927 69.7627 27.981 69.9426 27.8825C70.1224 27.784 70.3087 27.6999 70.5015 27.6301C71.4708 27.2893 73.1914 27.1541 73.0236 25.7526C72.9345 25.0092 72.3542 24.3803 71.7811 23.9463C69.72 22.3856 66.3225 21.6075 63.7658 21.9734C62.3747 22.1725 62.1637 22.6946 61.0511 23.2571C61.2494 22.8783 61.8754 22.1947 61.7915 21.7708C61.771 21.6669 61.7038 21.5883 61.6067 21.5472C60.9209 21.2575 59.1843 22.1632 58.5588 22.4948C57.8067 22.8935 56.9252 23.5521 56.3879 24.2214L56.304 24.2389C56.2582 24.191 56.2209 24.1763 56.2204 24.1042C56.218 23.7896 56.7922 23.2817 57.0184 23.0856C57.4323 22.7267 58.2691 22.2784 58.3187 21.6794C58.3324 21.5134 58.3106 21.3169 58.1973 21.1859C57.9828 20.9382 57.4977 20.9004 57.196 20.9162C55.4398 21.0081 52.8312 22.7741 51.5243 23.9525C51.0647 24.3668 50.6443 24.8388 50.2395 25.3064C49.719 25.9078 49.3762 26.6609 48.8437 27.2366C48.5307 27.181 48.2134 27.1627 47.8967 27.1384C47.88 27.1264 47.8631 27.1147 47.8465 27.1027C47.1756 26.615 46.819 25.3725 46.318 24.6667C45.5228 23.5467 42.7279 20.9939 41.2693 21.2364C40.9962 21.2818 40.7095 21.438 40.5451 21.665C40.4727 21.7649 40.4245 21.8862 40.3754 21.9989C40.4106 22.2898 40.492 22.6325 40.4231 22.9176L40.3655 22.9784C40.1378 22.8592 39.9615 22.295 39.8213 22.0669C38.9138 20.5914 37.2822 19.5287 35.5255 19.5537Z" fill="#FEFEFE"/>
<path d="M34.7311 21.6119C34.7074 21.1289 34.3874 20.3683 34.6684 19.9473C34.8579 19.6634 35.2141 19.6065 35.5255 19.5537C37.2822 19.5287 38.9138 20.5913 39.8213 22.0669C39.9615 22.2949 40.1378 22.8592 40.3655 22.9784L40.4231 22.9175C40.492 22.6324 40.4106 22.2897 40.3754 21.9989C40.4245 21.8862 40.4727 21.7648 40.5451 21.6649C40.7095 21.438 40.9962 21.2817 41.2693 21.2364C42.7279 20.9939 45.5228 23.5466 46.318 24.6667C46.819 25.3724 47.1756 26.6149 47.8465 27.1026C47.8631 27.1147 47.88 27.1264 47.8967 27.1383C48.2134 27.1627 48.5307 27.1809 48.8437 27.2366C49.3762 26.6608 49.719 25.9077 50.2395 25.3063C50.6443 24.8388 51.0647 24.3667 51.5243 23.9524C52.8312 22.774 55.4398 21.0081 57.196 20.9161C57.4977 20.9004 57.9828 20.9381 58.1973 21.1858C58.3106 21.3168 58.3324 21.5133 58.3187 21.6794C58.2691 22.2783 57.4323 22.7267 57.0184 23.0855C56.7922 23.2817 56.218 23.7896 56.2203 24.1042C56.2209 24.1763 56.2582 24.1909 56.304 24.2389L56.3879 24.2214C56.9252 23.5521 57.8067 22.8935 58.5588 22.4948C59.1843 22.1632 60.9209 21.2574 61.6067 21.5472C61.7038 21.5883 61.771 21.6668 61.7915 21.7708C61.8754 22.1946 61.2494 22.8783 61.0511 23.2571C62.1637 22.6946 62.3747 22.1725 63.7658 21.9734C66.3225 21.6075 69.72 22.3856 71.7811 23.9463C72.3542 24.3803 72.9345 25.0091 73.0236 25.7526C73.1914 27.154 71.4708 27.2893 70.5015 27.63C70.3087 27.6998 70.1224 27.784 69.9426 27.8825C69.7627 27.9809 69.5915 28.0926 69.4289 28.2175C68.9412 28.5948 68.8159 29.1464 68.4519 29.6147C69.2485 29.3179 69.9716 28.898 70.8018 28.6737C70.9109 28.6439 71.0207 28.6169 71.1312 28.5926C71.2416 28.5683 71.3525 28.5467 71.4641 28.5278C71.5756 28.5089 71.6875 28.4929 71.7998 28.4796C71.912 28.4662 72.0246 28.4556 72.1375 28.4478C72.2503 28.4401 72.3632 28.435 72.4763 28.4328C72.5894 28.4306 72.7024 28.4311 72.8154 28.4345C72.9284 28.4378 73.0414 28.4439 73.1541 28.4529C73.2669 28.4617 73.3793 28.4734 73.4914 28.4878C73.6036 28.5022 73.7153 28.5194 73.8266 28.5393C73.9379 28.5593 74.0487 28.582 74.1589 28.6073C74.2691 28.6327 74.3786 28.6608 74.4874 28.6917C74.5962 28.7225 74.7042 28.7559 74.8114 28.7919C74.9186 28.8281 75.0248 28.8668 75.1301 28.9081C75.2353 28.9495 75.3394 28.9934 75.4425 29.0398C75.5456 29.0863 75.6475 29.1353 75.7482 29.1868C75.8489 29.2382 75.9483 29.2922 76.0463 29.3486C77.2458 30.0469 78.4406 31.0712 78.7959 32.4637C79.453 35.0393 78.2478 36.0347 77.0273 38.0705C77.5166 37.8036 78.0129 37.2134 78.5943 37.1909C78.8734 37.18 79.1144 37.2844 79.3066 37.485C79.7749 37.9739 79.9512 38.968 79.9472 39.6243C79.9378 41.1341 79.3706 41.8174 78.3445 42.819L76.9799 44.1525C77.3219 44.0701 78.6171 43.5083 78.7987 43.5355L78.8395 43.6529C78.7459 44.4219 77.1804 45.4605 76.621 46.0653L76.7112 46.141L76.6236 46.1449L76.6261 46.0629L76.6649 46.1482C77.087 46.1025 78.6353 45.1423 79.2191 44.905C79.229 45.3351 79.2203 45.7437 79.091 46.1587C78.9357 46.6574 78.6247 47.0757 78.1533 47.3143C77.5223 47.6339 76.8497 47.5558 76.2012 47.3576C75.7757 47.6412 75.3425 47.8844 74.8917 48.124C75.6439 48.242 76.5861 48.1444 77.2005 48.6858C77.5378 48.9831 77.6457 49.4701 77.6537 49.9033C77.6551 50.0077 77.6505 50.112 77.6398 50.2159C77.6292 50.3199 77.6125 50.4229 77.59 50.5249C77.5674 50.6269 77.539 50.7273 77.5048 50.826C77.4706 50.9248 77.4308 51.0212 77.3855 51.1154C76.6907 52.5881 75.4388 54.1633 74.4452 55.4596C72.904 57.4834 71.3053 59.4607 69.6491 61.3916C68.4466 62.8088 67.3081 64.2443 66.0173 65.5874C64.0963 67.5863 62.0242 69.4112 60.0187 71.3218C58.5833 72.7138 57.1794 74.1368 55.8069 75.5908C54.8763 76.5635 53.9245 77.539 53.05 78.5621C51.8226 79.9981 50.6875 81.5351 49.5344 83.0318C49.157 83.5206 48.7922 84.0185 48.44 84.5258C48.0827 85.0503 47.7525 85.6039 47.3238 86.0741C47.1336 85.7195 46.8939 85.3869 46.6806 85.0449C46.1806 84.2434 45.6823 83.4577 45.1458 82.6794C44.5276 81.7825 43.9256 80.8782 43.2689 80.0084C42.2144 78.6122 41.0565 77.2789 39.8734 75.9901C38.4797 74.472 36.9794 73.046 35.57 71.5415C34.5588 70.462 33.6253 69.3158 32.6484 68.206C30.7272 66.023 28.804 63.8489 26.9715 61.5904C26.3467 60.8204 25.6023 60.1287 25.0232 59.3264C24.5194 58.6283 24.0882 57.8775 23.6465 57.1397C22.9185 55.9351 22.2188 54.7143 21.5476 53.4772C21.1002 52.6555 19.9671 50.6549 19.838 49.7755C19.7441 49.1349 20.7747 46.4087 21.1764 45.8593C21.5487 45.35 22.0899 44.9897 22.4725 44.4852C22.4813 44.3631 22.4693 44.3153 22.4088 44.209C22.2724 44.1199 22.1636 44.1129 22.007 44.1458C21.6297 44.2254 21.3631 44.4753 21.0942 44.7333C19.5466 46.2178 20.1008 47.0001 19.1235 48.4714C18.9837 48.0969 18.8658 47.7334 18.8314 47.3326C18.7471 46.3456 19.1498 44.9677 19.5457 44.0754C19.6719 43.7909 19.9241 43.5473 20.0234 43.2662C20.0707 43.1325 20.0527 43.0811 19.993 42.9577C19.8863 42.8832 19.8772 42.8711 19.7488 42.8712C19.2348 43.1376 18.5055 44.754 18.2499 45.2947C18.0045 44.8365 17.8342 44.2143 17.8971 43.6917C18.0676 42.2737 20.0805 40.1102 21.2362 39.2768C21.7119 38.9338 22.3468 38.7163 22.7649 38.308C22.8329 38.2417 22.8452 38.2206 22.8421 38.1284C22.8381 38.0093 22.792 37.8938 22.6903 37.8241C22.5621 37.7362 22.3791 37.7408 22.2333 37.769C21.7575 37.8609 21.3451 38.1533 20.9547 38.4239C19.696 39.2963 18.6362 40.3139 17.7854 41.5959C17.7279 41.6825 17.7248 41.7031 17.6305 41.7508C17.5107 41.6173 17.4849 41.2497 17.4458 41.0596C17.3624 40.6548 17.2942 40.2382 17.3637 39.8259C17.5222 38.8851 18.2394 37.8854 18.7302 37.0735C18.8657 36.8495 19.0504 36.6267 19.1556 36.3879C19.2006 36.2854 19.2243 36.1522 19.1955 36.0422C19.1661 35.9298 19.1118 35.8295 19.0029 35.7765C18.2155 35.393 17.5564 37.9075 17.0586 38.0773C16.9606 37.978 16.9601 37.8424 16.9517 37.71C16.9179 37.1814 16.981 36.619 17.0137 36.0898C17.0679 35.2157 17.1311 34.2974 17.3156 33.4404C17.7976 31.2028 19.1496 28.4968 20.6693 26.7818C22.7997 24.3775 24.8876 23.2792 28.0976 23.0559C28.2286 23.0469 28.3404 23.0445 28.4287 22.9417C28.2993 22.5167 27.6042 22.4722 27.4337 22.0879C27.3901 21.9896 27.3753 21.905 27.4256 21.8052C27.916 20.8318 30.1804 21.9383 30.6666 21.7569C30.6491 21.3791 30.031 21.2829 29.952 20.8332C29.9725 20.7407 29.9895 20.6925 30.0541 20.6195C30.2651 20.3808 30.7386 20.2744 31.0398 20.2446C32.7352 20.0771 33.4908 20.606 34.7311 21.6119ZM45.8186 30.0221C45.7655 30.1353 45.7431 30.2433 45.6339 30.3085C45.5247 30.2451 45.4442 30.1705 45.3543 30.0837C45.1954 30.2501 45.0455 30.4487 44.8178 30.5123C44.7056 30.5437 44.594 30.5747 44.481 30.6032C44.4673 30.6796 44.455 30.7563 44.4442 30.8332C44.1051 30.8997 43.7894 30.4267 43.4326 30.5229C43.4336 30.6664 43.4672 30.7486 43.3657 30.8551C43.1789 30.8921 42.975 30.8409 42.8176 30.9402L42.8307 31.0544C42.545 31.1705 41.9843 30.8238 41.8063 31.0363L41.8764 31.1886C41.8225 31.2587 41.8561 31.2407 41.7668 31.2524C41.5286 31.2836 41.2978 31.1701 41.0661 31.2576C41.0264 31.4203 41.1575 31.3842 40.9987 31.5044C40.7979 31.5244 40.61 31.4149 40.4214 31.4749C40.3766 31.5625 40.3487 31.6457 40.3213 31.7401C40.068 31.9 39.6993 31.7943 39.5122 32.0617L39.5564 32.2143C39.3052 32.6115 38.5342 32.6011 38.2687 33.1451L38.3147 33.2021C38.4118 33.2002 38.5205 33.1819 38.6095 33.2225C38.6161 33.3092 38.5958 33.3266 38.5403 33.3911C38.2849 33.6881 37.8644 33.8472 37.635 34.1699L37.7932 34.2386C37.8111 34.2951 37.8362 34.3172 37.8019 34.3728C37.6679 34.5901 37.1324 34.7884 36.8138 35.2408C37.0714 37.118 36.3211 38.0019 35.9335 39.7014C35.8429 40.0984 36.223 40.7478 36.0022 41.0468C35.9424 41.1278 35.8557 41.2024 35.7843 41.274C35.6323 40.9343 35.4822 40.5937 35.3342 40.2522C35.1211 40.22 34.9843 40.3202 34.8167 40.4435C34.0498 41.0077 33.4592 41.7396 32.8672 42.4748C33.3667 42.5388 33.8632 42.6049 34.3585 42.6973C34.4702 42.2358 34.7446 41.0021 35.1239 40.7635C35.2142 40.7067 35.2517 40.7147 35.3534 40.7213C35.4575 40.8082 35.5136 40.8754 35.5256 41.0156C35.5666 41.4955 35.001 41.6294 35.2124 42.816L35.2784 42.8446C36.1266 43.2057 37.2224 43.2857 37.8384 44.0597L37.8445 44.1475C37.7433 44.1831 37.6576 44.1637 37.5561 44.1381C37.2126 44.0513 36.9044 43.8626 36.5706 43.7496C36.0849 43.5852 35.5797 43.4837 35.0963 43.3115C34.9861 43.5804 34.8047 44.2492 34.9121 44.5179C35.027 44.6373 35.1103 44.6192 35.2728 44.6236C35.8248 44.6385 37.5811 44.6831 37.9612 45.0827C38.0215 45.1459 38.0102 45.1769 38.0213 45.2595C37.977 45.3115 37.977 45.3405 37.9015 45.3412C37.8078 45.3421 37.7733 45.3212 37.6896 45.291C37.4686 45.2113 37.2719 45.2756 37.0469 45.2495C36.4571 45.1814 35.7401 44.8562 35.1535 45.1288C34.972 45.2131 34.8611 45.3592 34.8042 45.549C34.708 45.8694 34.8185 46.3143 34.9374 46.6145C35.7017 46.4238 36.8229 46.0454 37.6074 46.2569C37.6484 46.354 37.6273 46.3602 37.5992 46.4571C37.4513 46.6374 37.1853 46.6519 36.9682 46.6736C36.1839 46.7522 35.2424 46.7558 34.6983 47.4296C34.5955 47.5569 34.513 47.7055 34.4298 47.8461C34.6205 47.7483 34.9799 47.5074 35.1882 47.5586C35.3219 47.7637 35.2418 47.9899 35.229 48.2212C35.3874 48.0931 35.5435 47.9341 35.7452 47.8847C35.8634 47.9199 35.8864 47.932 35.9465 48.0506C36.005 48.166 36.0139 48.3733 36.0343 48.5023C36.4862 48.1977 37.2663 47.5766 37.8389 47.6188C37.9277 47.6878 37.9269 47.6792 37.9419 47.7899C37.7857 48.1041 36.6281 48.5081 36.6981 48.7863L36.9502 48.6975C37.0329 48.7779 37.0342 48.8395 37.032 48.9513C37.0252 49.294 36.8898 49.667 36.7989 49.9962C37.1295 49.7467 37.5072 49.3644 37.9181 49.2815C37.9752 49.2971 38.0151 49.2887 38.042 49.3484C38.164 49.6187 37.9367 50.0204 37.8213 50.2654C38.1445 49.9913 38.4231 49.6416 38.8447 49.5225C38.9755 49.5482 38.975 49.5478 39.0599 49.6506C39.1191 49.8605 39.0604 50.0774 39.024 50.2883C39.2565 50.1246 39.802 49.6463 40.075 49.668C40.1685 49.7496 40.2061 49.8031 40.2206 49.9308C40.2396 50.0986 40.2246 50.2746 40.2326 50.4443C40.47 50.3622 40.501 50.0583 40.7674 50.0601L40.9972 50.1999C41.6072 49.9595 42.1516 49.5265 42.7118 49.189C42.9126 48.3916 43.1663 47.5883 43.4718 46.8246C43.4708 47.3715 43.4039 47.8863 43.2988 48.4222C43.6505 48.8584 44.855 50.0857 45.3707 50.1497C45.509 50.1668 45.652 50.1672 45.7917 50.1821C45.8627 50.0562 45.8622 50.0046 46.0036 49.9594C46.2194 50.032 46.2518 50.3264 46.4567 50.4211C46.4882 50.2774 46.4777 50.1724 46.5981 50.0824C46.9461 50.1011 47.3137 50.7079 47.6331 50.5702C47.6553 50.3753 47.4743 50.2295 47.534 50.0525C47.8014 49.9795 48.0414 50.1107 48.2868 50.2065L48.2596 50.147C48.0243 49.644 47.2925 49.3639 47.3437 48.9086L47.4317 48.8277C48.1773 49.0053 48.6999 50.1425 49.5679 49.9626L49.6037 49.8987C49.5609 49.7758 49.5068 49.6981 49.5438 49.5699C49.747 49.4474 50.3535 49.7078 50.4137 49.4771C50.0762 49.0983 49.1034 48.5988 48.6177 48.4148C48.2674 48.2822 47.3106 47.9538 47.0434 47.7858C46.9599 47.7333 46.8669 47.6271 46.8341 47.5316C46.7989 47.4298 46.8211 47.3971 46.8727 47.3156C47.1958 47.2025 48.6752 47.9342 49.0269 48.1056C49.838 48.5011 50.5515 49.0679 51.3555 49.47C51.4401 49.3347 51.4558 49.2644 51.62 49.2163C51.672 49.201 51.7326 49.2017 51.7862 49.1937C51.8534 49.1838 51.8303 49.1873 51.8957 49.1385C51.9325 48.9999 51.9114 48.8797 51.8938 48.7405L51.9492 48.6607C52.167 48.6545 52.3701 48.8124 52.578 48.765C52.6453 48.6677 52.6287 48.6572 52.6281 48.5443C52.2188 48.1346 49.9255 47.3006 49.3264 47.2993C48.9921 47.2986 48.4427 47.3662 48.1637 47.1644C48.1434 47.0911 48.1236 47.0842 48.1657 47.0111C48.2356 46.8898 48.3495 46.8316 48.4819 46.8023C48.7918 46.7339 49.152 46.8122 49.4595 46.8707C50.338 47.0381 51.171 47.3427 51.9795 47.7214C52.5513 47.9893 53.0896 48.3339 53.7156 48.4572C53.5748 48.2633 53.4366 48.0795 53.2695 47.9066C53.4846 47.9192 53.7098 47.9589 53.9095 47.865C53.9892 47.7722 54.0087 47.7623 53.9887 47.6333C53.98 47.5769 53.9465 47.5047 53.9272 47.4529C54.0575 47.3925 54.1696 47.4798 54.2626 47.3771C54.234 47.2229 54.172 47.142 54.0461 47.0547C53.227 46.4873 50.3964 46.1422 49.3468 46.1502C48.9909 46.1529 48.6676 46.2717 48.3234 46.2849C48.1659 46.291 48.0695 46.2384 47.9909 46.11C48.0221 46.0049 48.0675 45.9732 48.162 45.9231C49.1505 45.399 51.4898 45.8081 52.5665 46.0972C53.1298 46.2485 53.684 46.483 54.2508 46.607C54.454 46.6515 54.7156 46.7105 54.9075 46.6111L54.9117 46.5606C54.7803 46.4229 54.6188 46.3013 54.6282 46.0956C54.6328 45.9936 54.637 46.0112 54.699 45.9444L54.8222 45.911C54.8741 45.7136 54.789 45.4302 54.8912 45.2679C55.087 45.1966 55.2608 45.271 55.4458 45.3543C55.7188 45.4773 55.9456 45.664 56.2345 45.7594L56.2794 45.7393C55.9226 45.182 55.3225 44.852 54.6887 44.712C53.4223 44.4321 51.9377 44.5607 50.6564 44.7172C50.011 44.7961 49.456 45.0218 48.8435 45.1227C48.7362 45.1403 48.652 45.1397 48.5519 45.0926C48.511 44.9823 48.5208 44.9839 48.5651 44.8731C49.2341 44.2439 52.2206 44.1614 53.2032 44.1926C54.0991 44.221 54.9698 44.3995 55.8399 44.6067C55.4696 44.2463 54.8396 43.846 54.6142 43.3853L54.6193 43.2735C54.716 43.2073 54.7615 43.205 54.878 43.2239C54.9335 43.2329 54.9881 43.2462 55.0428 43.259C55.1936 43.3453 55.3361 43.4331 55.4767 43.5352C55.3333 43.3347 55.1908 43.1243 55.0189 42.9469C54.751 42.6703 53.9351 42.1844 53.8704 41.8507C54.1488 41.7026 54.6883 41.9266 54.9764 42.0147L55.0845 42.0479C55.0706 42.0332 55.0569 42.0184 55.0428 42.0039C54.8359 41.7913 54.2575 41.4912 54.2529 41.2119C54.3411 41.1571 54.4203 41.1457 54.5207 41.1263L54.5186 41.0748L54.4081 41.0392L54.4431 41.0623C54.4038 40.9081 53.4149 40.1221 53.2084 39.9543C53.2517 39.3164 53.3414 37.1592 53.6606 36.7286L53.7305 36.7313C54.1149 37.2282 53.8465 38.3342 53.8475 38.9415C55.1919 39.9292 55.7358 41.4692 56.2318 42.9939C56.3473 43.3489 56.4311 43.7364 56.5796 44.077C56.756 44.4822 57.11 44.7928 57.3112 45.1887L56.7716 45.0651C57.5382 46.7522 58.2371 48.474 59.1397 50.0975C60.2533 52.1 61.8869 54.2384 63.4845 55.8851C64.0247 56.4419 64.629 56.9552 65.2081 57.4722C65.8133 58.0123 66.4563 58.5878 67.1301 59.041C67.083 57.8089 67.0375 56.5768 66.828 55.3586C66.2355 51.9122 64.4403 48.866 61.9015 46.4917C60.4612 45.1446 55.8864 42.6699 55.8311 40.6622C55.8285 40.5679 55.8288 40.5525 55.8916 40.4796C56.0967 40.4891 56.3162 40.7755 56.4476 40.9198C56.8599 41.3725 57.1595 41.9393 57.6087 42.3558C58.6553 43.326 59.91 44.0127 61.0605 44.8432C63.515 46.6151 65.4271 49.406 66.5474 52.1931C67.4357 54.4027 67.578 56.711 67.7318 59.057C67.7436 59.2361 67.7725 60.129 67.9413 60.1639C68.1574 59.903 68.1583 59.3662 68.3904 59.1725C68.4846 59.1998 68.5728 59.2326 68.6633 59.2701C68.7584 59.1823 68.754 59.1203 68.7551 58.996C68.7581 58.628 68.518 57.7376 68.8088 57.4646C68.8799 57.3977 68.9781 57.3553 69.0656 57.314C69.1804 56.9624 68.5265 55.7898 68.7883 55.5909L68.9652 55.6628C69.0347 55.5621 68.989 55.4015 68.9669 55.285C68.8154 54.488 68.4266 53.7621 68.1684 52.9992C68.4091 53.1407 68.6422 53.2804 68.8638 53.4512C68.6625 52.9073 68.5097 52.3287 68.2778 51.7988C68.1802 51.5758 67.7611 50.9879 67.7753 50.7874C67.8799 50.7435 67.9392 50.7689 68.0388 50.8164C68.142 50.8656 68.2422 50.9294 68.3404 50.9878C68.1531 50.5424 67.4514 49.4724 67.4464 49.091L67.4855 49.049C67.7025 49.1227 67.918 49.2004 68.1321 49.2822C67.6949 48.8202 66.4251 47.2238 66.3016 46.6602C66.325 46.5209 66.3597 46.481 66.4526 46.3824C66.2445 46.0352 65.4279 45.2228 65.5011 44.8622C65.6235 44.8548 65.7189 44.9054 65.8286 44.9522C65.8455 44.8651 65.7982 44.818 65.7496 44.7451C65.3962 44.2154 64.6029 43.8069 64.4004 43.2116C64.4695 43.0468 64.611 43.1331 64.5893 42.9656C64.1193 42.3903 63.5262 41.8333 62.9528 41.3612C62.6908 41.1456 62.3699 40.947 62.1311 40.7092C62.046 40.6244 62.0183 40.4658 61.9889 40.3529C61.5822 40.0352 60.9398 39.705 60.6068 39.3473C60.606 39.2899 60.6064 39.2324 60.6078 39.175C60.1247 38.7514 59.5203 38.2884 58.9656 37.9609C58.7616 37.8405 58.5298 37.7699 58.3364 37.6298C58.2707 37.5822 58.2072 37.5318 58.1906 37.451L58.3608 37.3904C58.2013 37.0546 56.9161 36.4014 56.5305 36.2634C56.1431 36.1247 55.6474 36.0967 55.354 35.8072C55.3362 35.7897 55.3176 35.7732 55.2981 35.7576C55.2786 35.7421 55.2584 35.7276 55.2373 35.7141C55.2163 35.7007 55.1946 35.6883 55.1724 35.6771C55.1501 35.6659 55.1273 35.6559 55.1039 35.6471C55.0806 35.6382 55.0569 35.6306 55.0328 35.6241C55.0087 35.6178 54.9843 35.6127 54.9597 35.6088C54.935 35.605 54.9103 35.6024 54.8853 35.6011C54.8604 35.5998 54.8355 35.5998 54.8106 35.6011C54.2834 35.6334 53.7465 35.9309 53.2677 35.5129C53.1997 35.4536 53.2033 35.44 53.1746 35.3609C53.2387 35.2705 53.2836 35.2359 53.3987 35.2236C53.543 35.2081 53.7286 35.265 53.8694 35.2956C53.7645 35.022 53.6624 34.7768 53.4761 34.545C53.3104 34.3389 52.678 33.9163 52.6529 33.7104C52.9099 33.6549 53.2043 33.7623 53.4541 33.8275C53.0739 33.5057 52.4238 33.2859 52.1661 32.8692L52.1872 32.8212C52.3181 32.8247 52.4412 32.8402 52.5705 32.861C52.2612 32.5024 51.3637 32.5505 51.2493 32.1287C51.3239 32.0071 51.3827 32.0036 51.5118 31.9495C51.2524 31.7227 50.6886 31.7658 50.5792 31.4749L50.6109 31.3122C50.5419 31.222 50.4318 31.1822 50.3208 31.169C50.0778 31.14 49.8307 31.2731 49.5949 31.187L49.5296 31.1146L49.5588 30.9743C49.4595 30.8475 49.3042 30.8111 49.1584 30.7564L49.1201 30.6823L49.1652 30.6187C49.2285 30.5285 49.2045 30.5655 49.2587 30.471C49.1095 30.4152 49.0067 30.4442 48.8672 30.5071C48.6473 30.6063 48.4066 30.7858 48.1564 30.6961C47.4414 30.4397 47.4032 30.3041 46.5684 30.3015C46.3006 30.1049 46.1656 29.9972 45.8186 30.0221ZM36.023 35.2159C35.7469 35.4752 35.4681 35.7316 35.1867 35.9852L35.121 35.9637L35.088 35.8807C34.9701 35.8769 34.8825 35.9247 34.7939 36.0062C34.7399 36.0558 34.6972 36.1273 34.6579 36.1889C34.4873 36.2449 34.3026 36.2456 34.1246 36.2581C33.9968 36.3464 33.8757 36.4098 33.8183 36.5621C33.8332 36.6797 33.8474 36.7822 33.8264 36.9006C33.6444 37.0626 33.0306 36.9189 33.0089 37.2134C33.0048 37.2686 33.0255 37.3539 33.0337 37.4059C32.9325 37.5407 32.8067 37.5511 32.6479 37.5854C32.4982 37.6178 32.3891 37.6447 32.3073 37.7883C32.2641 37.8641 32.261 37.9243 32.2598 38.0082L32.3564 38.1643C32.104 38.5194 31.4139 38.3014 31.2485 38.8736C31.2727 38.9609 31.3012 39.0403 31.3373 39.1235C31.2903 39.2214 31.2132 39.2638 31.1147 39.3003C30.9603 39.3573 30.7941 39.3965 30.6353 39.4403C30.3394 39.8529 29.8104 40.0136 29.5516 40.4646C29.6041 40.5338 29.6626 40.5877 29.727 40.6458C29.7086 40.7399 29.7103 40.7593 29.6239 40.8146C29.4335 40.9362 29.2147 40.9265 29.0559 41.1067C29.0368 41.1884 29.0373 41.2492 29.0452 41.3325C29.0264 41.3485 29.0075 41.3644 28.9888 41.3807C28.8819 41.4749 28.8174 41.517 28.7992 41.6579C28.8248 41.6621 28.8507 41.665 28.876 41.6707C28.9003 41.6762 28.9239 41.6847 28.9478 41.6916C28.919 41.797 28.4864 42.1531 28.3719 42.3357C28.3371 42.4469 28.2871 42.5337 28.3161 42.6485C28.4919 42.7034 28.7351 42.5952 28.9063 42.5334C29.5094 42.3158 31.6335 42.3366 32.3201 42.3699C32.9442 41.4476 33.7997 40.6616 34.593 39.8879C34.8787 39.6092 35.1648 39.2854 35.4807 39.0429C35.774 38.2116 36.4822 36.1979 36.4644 35.3925C36.3879 35.291 36.3447 35.2556 36.2169 35.2303C36.1549 35.218 36.0855 35.2185 36.023 35.2159ZM30.073 42.7554C29.4063 42.8186 28.7234 42.8569 28.0617 42.9565C27.6093 43.4733 27.1541 44.0028 26.8009 44.594C26.8114 44.6062 26.8226 44.6179 26.8327 44.6305C26.8795 44.6889 26.8642 44.6656 26.8815 44.747C26.6886 45.0469 26.4682 45.354 26.3184 45.6775C26.1562 46.0283 26.0508 46.4202 25.9182 46.7843C25.5568 47.7772 25.0744 48.8635 24.9083 49.9063C24.7861 50.6736 24.8109 51.4528 24.711 52.2199C24.6412 52.7547 24.5096 53.2805 24.4374 53.8145C24.3075 54.775 24.3728 55.9194 24.5741 56.8681C24.6869 57.3999 24.8845 57.6842 25.3158 57.9941L25.3414 58.0128C25.2851 57.7133 25.2357 57.4131 25.1403 57.1231C25.0558 55.9844 24.9975 54.8328 25.2267 53.7061C25.5706 52.0144 27.127 48.9531 28.0535 47.4741C28.5422 46.6941 29.0925 45.9734 29.6345 45.2313C29.8933 44.877 30.1187 44.4968 30.4073 44.1651C30.8471 43.6598 31.4409 43.2637 31.851 42.7529C31.2557 42.7225 30.6683 42.7075 30.073 42.7554ZM32.5903 42.8769C31.9879 43.5504 31.2956 44.2331 30.6175 44.8305C30.4364 44.9901 30.17 45.0845 30.0135 45.2607C29.7377 45.5709 29.5009 45.981 29.2728 46.3302C27.9566 48.3461 26.4404 51.162 25.8279 53.4859C25.5734 54.4515 25.4777 55.3913 25.5344 56.3875C25.5584 56.8065 25.5692 57.2593 25.7314 57.6513C25.7342 57.658 25.7368 57.6648 25.7395 57.6715C27.5772 57.023 29.5851 54.1333 30.7872 52.5917C31.3663 51.849 31.9728 51.1368 32.5173 50.3669C33.2616 49.4296 33.799 48.6964 33.7583 47.4381C32.637 47.9693 31.3633 48.6004 30.3958 49.3775C30.0927 49.621 29.8419 49.9272 29.5533 50.1867C29.4688 50.2628 29.448 50.2852 29.3327 50.2535C29.3074 50.1124 29.3443 50.0153 29.4224 49.895C30.156 48.7653 32.7817 47.4322 34.0171 46.7638C34.0528 46.2343 34.1197 45.7311 34.1212 45.1974C33.7517 45.2393 33.3868 45.3062 33.0265 45.3982C32.6663 45.4902 32.3139 45.6063 31.9696 45.7467C31.4212 45.9723 30.837 46.4351 30.2497 46.4748L30.2237 46.4386C30.6627 45.877 32.3612 45.1713 33.0575 44.959C33.2723 44.8936 34.0801 44.7766 34.1966 44.6725C34.2707 44.6064 34.3241 43.4821 34.3117 43.3382C34.301 43.2137 34.2274 43.1382 34.1281 43.0713C33.7907 42.844 32.9963 42.8959 32.5903 42.8769ZM55.8904 46.2791L56.0277 46.7926C55.8685 46.8084 55.6719 46.8039 55.5412 46.9012C55.6704 47.1224 56.3357 47.3014 56.5931 47.4023L57.0797 47.5938C56.8602 47.0248 56.5319 46.5727 55.9576 46.3085C55.9354 46.2983 55.9128 46.2888 55.8904 46.2791ZM54.9068 47.3174C54.9956 47.4382 55.1622 47.6093 55.1645 47.7626C55.055 47.8544 54.9185 47.8418 54.7789 47.844C54.8074 48.0529 55.0169 48.0843 54.9739 48.3152C54.8369 48.4283 54.7232 48.4015 54.5642 48.4663L54.5882 48.5055C54.6489 48.6067 54.69 48.6707 54.6887 48.7933C54.6248 48.8645 54.6513 48.8649 54.5715 48.8698C54.3926 48.8806 54.192 48.8238 54.0157 48.7908C54.6212 49.2386 56.721 50.8404 56.8962 51.4442L56.8542 51.5156C56.7048 51.5355 56.6186 51.494 56.4968 51.4058C55.8244 50.9191 54.059 48.9883 53.2475 49.0552C53.2292 49.0567 53.2112 49.0605 53.1931 49.0632C53.2006 49.0802 53.2086 49.097 53.2157 49.1142C53.241 49.1757 53.2509 49.2249 53.2594 49.2899C53.1977 49.3755 53.1243 49.4245 53.0179 49.4355C52.9082 49.4468 52.7937 49.4376 52.6836 49.435L52.5642 49.4326C52.5246 49.5258 52.5099 49.6024 52.4964 49.7012C52.4828 49.8008 52.4557 49.9408 52.3562 49.9948C52.2153 50.0714 51.8329 50.0186 51.6609 50.0216C52.256 50.5833 54.4655 52.6189 54.5221 53.302C54.5311 53.41 54.5284 53.4322 54.4611 53.5133C54.3062 53.5018 54.209 53.3934 54.1109 53.2803C53.485 52.5591 51.9723 50.6372 51.2356 50.2527C51.1855 50.2651 51.1366 50.2776 51.0874 50.2932C50.9458 50.3382 50.865 50.3287 50.7218 50.3023C50.5891 50.2778 50.5124 50.2619 50.3827 50.3173C50.3759 50.3293 50.3694 50.3414 50.3625 50.3531C50.3008 50.4594 50.2563 50.5315 50.1306 50.5689C49.8988 50.6379 49.587 50.5523 49.3496 50.5186C49.5144 50.738 49.6821 50.9589 49.8164 51.1988C50.1337 51.7654 50.9986 53.636 50.9121 54.2434C50.8938 54.3721 50.8498 54.4189 50.7559 54.5021C50.6404 54.5208 50.6484 54.5178 50.5515 54.4507C49.9482 53.2325 49.7722 51.5004 48.7137 50.5583C48.625 50.6065 48.5465 50.659 48.4653 50.719L48.2418 50.74C48.0923 50.9618 48.3684 51.3124 47.9238 51.3778C47.6148 51.4233 47.3907 51.1358 47.1093 51.1053C46.49 51.0385 46.7837 51.3602 45.8722 51.0064C45.7498 51.2542 45.6395 51.4942 45.3916 51.6412C45.2389 51.6549 45.1773 51.6123 45.0619 51.5142L45.0032 51.4634C44.9064 51.3806 44.858 51.3485 44.7329 51.3306C44.5992 51.3732 44.5739 51.4002 44.5071 51.5236C44.4064 51.7096 44.3639 51.8857 44.2125 52.0434C44.0867 52.0869 44.0736 52.0971 43.947 52.0351C43.6531 51.8913 43.3478 51.5892 43.1304 51.3485C42.9191 51.5732 42.7576 51.6879 42.4384 51.6961C41.7686 51.7135 41.2678 51.0918 40.6224 51.1977C40.5258 51.2136 40.4805 51.2019 40.3917 51.1674C40.364 51.1078 40.3395 51.0501 40.3159 50.9884C40.1399 51.0365 39.9921 51.1417 39.8062 51.1035C39.6115 50.9431 39.5969 50.7315 39.5555 50.4967C39.3055 50.7406 39.0711 51.0248 38.7133 51.0932C38.5959 51.0565 38.5689 51.0523 38.5166 50.9291C38.4537 50.781 38.4961 50.5682 38.5217 50.4164C38.1812 50.4327 38.0475 50.9402 37.738 50.8247C37.5649 50.6135 37.487 50.3645 37.4219 50.1026C37.2045 50.3097 37.0271 50.5228 36.7394 50.6267C36.6081 50.6123 36.5719 50.62 36.487 50.5072C36.2935 50.25 36.4604 49.8045 36.2822 49.5524C36.1835 49.5594 36.1756 49.5634 36.115 49.6399C35.9255 49.879 35.8295 50.3016 35.7472 50.5934C35.1967 50.9002 34.5712 51.19 34.125 51.6431L34.1209 51.7244C34.1972 51.7726 34.2715 51.8204 34.3449 51.873C34.1105 52.0836 33.779 52.2293 33.5012 52.3748C32.6645 52.8132 32.1968 53.4587 31.8331 54.3179C32.0414 54.1144 32.2407 53.9094 32.5114 53.7894L32.5987 53.8599C32.4794 54.4044 32.0203 54.9124 31.6918 55.3531C31.8705 55.2437 32.0426 55.1106 32.2553 55.0892L32.3402 55.1353C32.3808 55.5055 31.793 56.1667 31.6399 56.5359C31.5356 56.7875 31.4863 57.0541 31.4351 57.3202C31.5499 57.1773 31.6586 57.0069 31.8267 56.9249C31.9556 56.9256 31.9852 56.9247 32.0962 56.9875C32.155 57.13 32.1222 57.2506 32.0628 57.3896C31.9251 57.7117 31.6835 57.9551 31.4997 58.2459C31.2784 58.5958 30.7283 59.5676 30.8165 59.9775C30.8288 59.9683 30.8411 59.9588 30.8536 59.9497C30.9526 59.8771 31.0083 59.8315 31.1371 59.8324L31.199 59.8825C31.1961 60.008 31.1895 60.1334 31.1791 60.2586L31.1952 60.2729C31.5228 60.1177 31.4919 59.7517 31.91 59.6847L32.0021 59.7388C32.0796 60.1195 31.4946 60.7835 31.3488 61.1649C31.1932 61.5716 31.1531 61.9708 31.1609 62.4018C31.368 62.1366 31.6197 61.7114 31.9517 61.6114L32.0543 61.654C32.0984 61.7742 32.0937 61.8256 32.0418 61.9448C31.9261 62.2104 31.707 62.4591 31.5378 62.6956C31.1776 63.1989 31.2265 64.0361 31.2659 64.6363C31.3721 64.4396 31.469 64.1993 31.6411 64.0532L31.7202 64.0464C31.8218 64.1497 31.8791 64.2204 31.8764 64.3718C31.8704 64.7041 31.6287 65.0326 31.6471 65.3575L31.7217 65.3608C31.7744 65.2942 31.7897 65.2612 31.812 65.1778C31.8718 64.9552 32.1046 64.6554 32.3047 64.5391C32.3805 64.495 32.3582 64.507 32.4466 64.4921C32.5055 64.5275 32.5073 64.5116 32.5201 64.5761C32.5684 64.8206 32.1032 65.9839 32.0595 66.4246C32.5834 66.96 33.0891 67.5121 33.5766 68.0809C34.1367 68.7302 36.5556 71.6843 37.1156 72.0155L37.2244 72.0102C37.3876 71.803 37.2509 70.7797 37.2953 70.7503C37.3403 70.7205 37.402 70.7346 37.4553 70.7267C37.7224 71.0364 37.8184 71.341 37.7827 71.751C37.7589 72.0233 37.6402 72.245 37.5031 72.4756C38.2647 73.3925 39.1683 74.2038 39.9955 75.0621C40.6245 75.7148 41.2054 76.4261 41.7624 77.1408C41.6594 76.5111 41.4651 75.1891 41.8384 74.6375C41.8788 74.5779 41.9229 74.5702 41.9854 74.5414C42.0819 74.5674 42.1093 74.564 42.162 74.6561C42.3566 74.9961 42.665 76.2658 42.8113 76.7131C42.9125 77.0268 43.0228 77.3373 43.1423 77.6445C43.2617 77.9517 43.39 78.2552 43.5272 78.555C43.6643 78.8547 43.8101 79.1501 43.9645 79.4413C44.119 79.7326 44.2818 80.019 44.453 80.3007C44.2796 78.7029 44.2706 77.0749 44.0574 75.4851C44.0093 75.1168 43.9325 74.7545 43.8272 74.3983C43.5206 73.3637 43.1655 72.5704 43.1193 71.4754C43.1101 71.2554 43.0804 71.0017 43.1913 70.803L43.2857 70.7689C43.498 70.8699 43.5969 71.1914 43.6722 71.4007C43.7525 71.6238 43.8141 71.8566 43.9178 72.0701C44.4136 73.0251 45.2901 73.6054 46.0579 74.3215C46.7038 74.9242 47.3575 75.5679 47.9541 76.2194C47.9351 75.6759 47.9818 74.0952 48.3184 73.7043C48.3617 73.6538 48.3633 73.6572 48.4116 73.6279L48.4894 73.6518C48.5401 73.8921 48.469 74.1856 48.4378 74.43C48.3246 75.3171 48.0709 76.2368 48.5281 77.0685C48.6894 77.362 48.897 77.6267 49.0743 77.9098C49.5203 75.1258 50.825 71.4082 52.1218 68.8978C52.2786 68.5943 52.4827 68.075 52.7488 67.8711C52.8234 67.8139 52.7901 67.8314 52.8971 67.8373C52.9881 67.9528 52.971 68.0849 52.9549 68.2233C52.8324 69.2839 52.2638 70.2566 51.9246 71.259C51.1763 73.4693 50.6919 75.7049 50.3706 78.0125C50.2854 78.6255 50.1604 79.2597 50.1828 79.8795C50.4732 78.9601 50.85 78.0574 51.1978 77.1583C51.4891 76.4049 51.7588 75.6135 52.1161 74.8895C53.0371 73.0233 55.9437 68.5966 57.7444 67.6573C57.878 67.5877 58.0211 67.541 58.1662 67.5022C58.0824 67.0916 57.9636 66.614 58.1792 66.2251L58.2788 66.1612C58.3823 66.2176 58.4077 66.279 58.4396 66.3899C58.5593 66.8052 58.6119 67.4908 58.4863 67.9035C58.3719 67.9975 58.1265 67.9837 57.9813 67.9953C57.2409 68.9593 56.7962 70.0152 56.2965 71.1091L55.0012 73.891C56.1728 72.5552 58.3931 70.7879 59.9085 69.832C60.1473 69.6815 60.4142 69.5926 60.6557 69.4523C60.9124 69.303 60.997 69.1155 61.3134 68.9856C61.4411 68.7745 61.5672 68.5455 61.737 68.3654C62.129 67.9499 62.995 67.39 63.2115 66.8884C63.3975 66.4575 63.3059 65.9271 63.4807 65.5045C63.7013 65.5708 63.9942 66.2649 64.1959 66.4715L64.2517 66.5292C64.5769 66.0818 64.9668 65.8136 65.3364 65.4196C65.6265 65.1103 65.8447 64.7246 66.0998 64.3859C66.4407 63.9329 66.8244 63.5645 67.1203 63.0726C67.1103 63.056 67.1004 63.0394 67.0901 63.023C66.9247 62.7579 66.3391 62.2079 66.3607 61.9365C66.4825 61.8703 66.7063 61.9461 66.7733 61.8605C66.5496 61.5141 66.1786 61.1443 66.1335 60.7276C66.1408 60.7102 66.1483 60.6927 66.1555 60.6752C66.1899 60.5902 66.1777 60.6219 66.2056 60.52C65.8861 59.8179 64.7634 59.1374 64.5686 58.5489C64.6448 58.4983 64.6765 58.5154 64.7628 58.534C64.9783 58.58 65.2043 58.6811 65.4066 58.7688C65.0246 58.0592 62.8777 56.2386 62.176 55.8062C62.3763 56.1345 62.7249 56.5592 62.8224 56.9192L62.7879 57.0197C62.5545 57.1326 62.1083 56.9982 61.8676 56.919C62.0557 57.5214 62.2905 58.1051 62.572 58.67C62.7744 59.0776 63.0228 59.4671 63.1605 59.903C62.8647 59.6607 62.6113 59.3724 62.2872 59.1674C62.3191 59.3765 62.3698 59.5886 62.3325 59.7991L62.2891 59.8241C62.1016 59.6504 61.2756 58.6578 61.2639 58.4525C61.2631 58.4377 61.2665 58.4229 61.2678 58.4081C61.3971 58.3551 61.5188 58.3916 61.648 58.4458C61.8575 58.5336 62.0499 58.671 62.2523 58.7748C61.94 58.0795 61.7342 57.3657 61.3142 56.719C61.1139 56.4106 60.6012 56.0275 60.5723 55.664L60.6377 55.6141C61.1642 55.7047 61.5478 56.3684 62.0639 56.3951C62.0992 55.9936 61.4389 55.6659 61.5273 55.2382C61.6448 55.158 61.789 55.1814 61.9254 55.1836C61.8984 55.0925 59.8132 52.4757 59.5192 52.0429C58.9531 51.2093 58.4722 50.2992 57.9913 49.4147C57.7743 49.0155 57.5851 48.5732 57.3151 48.2077C56.5708 47.848 55.7271 47.4383 54.9068 47.3174ZM43.246 49.5447C42.6932 49.9371 41.9691 50.139 41.5215 50.6535L41.4835 50.6965C41.8233 50.8446 42.1507 50.9289 42.5156 50.9914C42.7034 50.8075 42.9157 50.6989 43.1613 50.6107C43.3878 50.8591 43.6113 51.1103 43.8317 51.3642L43.9631 51.4779L44.048 51.4647C44.2299 51.2134 44.0998 50.8569 44.4096 50.6791C44.6973 50.6465 45.0673 51.0981 45.2604 50.8851L45.2971 50.6903C45.0428 50.4255 43.5568 49.5667 43.246 49.5447ZM63.6488 66.2317C63.6305 66.394 63.5556 66.6728 63.6525 66.8028C63.7819 66.8085 63.872 66.7794 63.9916 66.7379C64.0164 66.6209 63.9908 66.6078 63.9253 66.5113C63.8561 66.4092 63.7513 66.3009 63.6488 66.2317ZM45.3938 75.5112C46.1491 77.3438 46.6535 79.3882 47.0634 81.3267C47.1249 81.6174 47.3889 83.4982 47.4976 83.598C47.5475 83.531 47.5607 83.4875 47.5849 83.409C48.059 81.2232 47.7419 78.7679 46.5112 76.8759C46.2736 76.5104 45.7935 75.6933 45.3938 75.5112ZM44.9454 77.4205C44.9233 78.2211 45.1807 80.5827 45.6715 81.159C45.6859 81.176 45.7053 81.188 45.7222 81.2026C45.6408 80.4062 45.3525 78.0125 44.9454 77.4205Z" fill="#1B1919"/>
<path d="M45.3543 30.0837C45.4442 30.1705 45.5248 30.2451 45.634 30.3085C45.7431 30.2433 45.7656 30.1353 45.8187 30.0221C46.1656 29.9972 46.3006 30.1049 46.5685 30.3015C47.4032 30.3041 47.4415 30.4397 48.1565 30.6961C48.4067 30.7858 48.6473 30.6063 48.8673 30.5071C49.0067 30.4442 49.1095 30.4152 49.2588 30.471C49.2045 30.5655 49.2286 30.5285 49.1653 30.6187L49.1202 30.6823L49.1585 30.7564C49.3043 30.8111 49.4596 30.8475 49.5589 30.9743L49.5297 31.1146L49.595 31.187C49.8307 31.2731 50.0779 31.14 50.3209 31.169C50.4318 31.1822 50.5419 31.222 50.611 31.3122L50.5792 31.4749C50.6887 31.7658 51.2525 31.7226 51.5119 31.9495C51.3828 32.0036 51.3239 32.0071 51.2493 32.1287C51.3637 32.5505 52.2612 32.5024 52.5705 32.861C52.4413 32.8402 52.3182 32.8247 52.1873 32.8212L52.1661 32.8692C52.4239 33.2859 53.074 33.5057 53.4542 33.8275C53.2044 33.7623 52.91 33.6549 52.653 33.7104C52.6781 33.9163 53.3105 34.3389 53.4762 34.545C53.6625 34.7768 53.7645 35.022 53.8695 35.2956C53.7287 35.265 53.5431 35.2081 53.3988 35.2235C53.2837 35.2359 53.2388 35.2705 53.1747 35.3609C53.2033 35.44 53.1998 35.4536 53.2677 35.5129C53.7465 35.9309 54.2835 35.6334 54.8106 35.6011C54.8356 35.5998 54.8605 35.5998 54.8854 35.6011C54.9103 35.6024 54.9351 35.605 54.9597 35.6088C54.9844 35.6127 55.0088 35.6178 55.0328 35.6241C55.057 35.6306 55.0807 35.6382 55.104 35.6471C55.1274 35.6559 55.1502 35.6659 55.1725 35.6771C55.1947 35.6883 55.2164 35.7007 55.2374 35.7141C55.2584 35.7276 55.2787 35.7421 55.2982 35.7576C55.3176 35.7732 55.3363 35.7897 55.3541 35.8072C55.6475 36.0967 56.1431 36.1247 56.5306 36.2634C56.9161 36.4014 58.2013 37.0546 58.3609 37.3904L58.1907 37.451C58.2073 37.5318 58.2708 37.5822 58.3365 37.6298C58.5298 37.7699 58.7617 37.8405 58.9657 37.9609C59.5204 38.2884 60.1248 38.7514 60.6079 39.175C60.6064 39.2324 60.6061 39.2899 60.6068 39.3473C60.9399 39.705 61.5823 40.0352 61.989 40.3529C62.0184 40.4658 62.046 40.6244 62.1312 40.7092C62.37 40.947 62.6909 41.1456 62.9529 41.3612C63.5262 41.8333 64.1193 42.3903 64.5894 42.9656C64.611 43.1331 64.4696 43.0468 64.4004 43.2116C64.603 43.8069 65.3963 44.2154 65.7497 44.7451C65.7983 44.818 65.8456 44.8651 65.8287 44.9522C65.7189 44.9054 65.6236 44.8548 65.5012 44.8622C65.428 45.2228 66.2446 46.0352 66.4527 46.3824C66.3597 46.481 66.325 46.5208 66.3017 46.6602C66.4251 47.2238 67.695 48.8202 68.1322 49.2822C67.9181 49.2004 67.7026 49.1227 67.4855 49.049L67.4465 49.091C67.4515 49.4724 68.1532 50.5424 68.3404 50.9878C68.2423 50.9294 68.1421 50.8656 68.0388 50.8164C67.9393 50.7689 67.88 50.7435 67.7754 50.7874C67.7612 50.9879 68.1803 51.5758 68.2779 51.7988C68.5098 52.3287 68.6626 52.9073 68.8639 53.4512C68.6422 53.2804 68.4092 53.1407 68.1684 52.9992C68.4267 53.7621 68.8154 54.488 68.9669 55.285C68.9891 55.4015 69.0348 55.5621 68.9653 55.6628L68.7883 55.5909C68.5265 55.7898 69.1805 56.9624 69.0657 57.314C68.9782 57.3553 68.88 57.3977 68.8089 57.4646C68.5181 57.7376 68.7582 58.628 68.7551 58.996C68.7541 59.1203 68.7585 59.1823 68.6634 59.2701C68.5728 59.2326 68.4847 59.1998 68.3904 59.1725C68.1584 59.3662 68.1575 59.903 67.9413 60.1639C67.7726 60.129 67.7436 59.2361 67.7318 59.057C67.578 56.711 67.4358 54.4027 66.5475 52.1931C65.4272 49.406 63.5151 46.6151 61.0606 44.8432C59.9101 44.0127 58.6554 43.326 57.6088 42.3558C57.1596 41.9393 56.86 41.3725 56.4477 40.9198C56.3163 40.7755 56.0968 40.4891 55.8916 40.4796C55.8288 40.5525 55.8286 40.5679 55.8312 40.6622C55.8864 42.6699 60.4613 45.1446 61.9016 46.4917C64.4403 48.866 66.2356 51.9122 66.828 55.3586C67.0375 56.5768 67.0831 57.8089 67.1302 59.041C66.4564 58.5878 65.8134 58.0123 65.2082 57.4722C64.629 56.9552 64.0248 56.4419 63.4846 55.8851C61.8869 54.2384 60.2534 52.1 59.1398 50.0975C58.2371 48.474 57.5383 46.7522 56.7717 45.065L57.3113 45.1887C57.1101 44.7928 56.7561 44.4822 56.5796 44.077C56.4312 43.7364 56.3473 43.3489 56.2318 42.9939C55.7359 41.4692 55.1919 39.9292 53.8476 38.9415C53.8465 38.3341 54.1149 37.2282 53.7306 36.7313L53.6607 36.7286C53.3415 37.1592 53.2518 39.3164 53.2084 39.9543C53.415 40.1221 54.4039 40.9081 54.4432 41.0623L54.4082 41.0392L54.5187 41.0748L54.5208 41.1263C54.4203 41.1457 54.3412 41.1571 54.253 41.2119C54.2576 41.4912 54.836 41.7913 55.0429 42.0039C55.057 42.0184 55.0707 42.0332 55.0846 42.0479L54.9765 42.0147C54.6884 41.9266 54.1489 41.7026 53.8705 41.8507C53.9351 42.1844 54.7511 42.6703 55.019 42.9469C55.1909 43.1243 55.3333 43.3347 55.4768 43.5352C55.3362 43.4331 55.1937 43.3453 55.0429 43.259C54.9882 43.2462 54.9336 43.2329 54.8781 43.2239C54.7616 43.205 54.7161 43.2073 54.6193 43.2735L54.6142 43.3853C54.8397 43.846 55.4697 44.2463 55.84 44.6067C54.9698 44.3995 54.0992 44.221 53.2032 44.1926C52.2207 44.1614 49.2342 44.2439 48.5651 44.8731C48.5209 44.9839 48.511 44.9823 48.552 45.0926C48.6521 45.1397 48.7363 45.1403 48.8435 45.1227C49.456 45.0218 50.0111 44.7961 50.6565 44.7172C51.9378 44.5607 53.4224 44.4321 54.6887 44.712C55.3226 44.852 55.9226 45.182 56.2795 45.7393L56.2345 45.7594C55.9457 45.664 55.7189 45.4773 55.4459 45.3543C55.2609 45.271 55.0871 45.1966 54.8913 45.2679C54.789 45.4302 54.8742 45.7136 54.8222 45.911L54.699 45.9444C54.6371 46.0112 54.6329 45.9936 54.6282 46.0956C54.6189 46.3013 54.7804 46.4229 54.9118 46.5606L54.9076 46.6111C54.7156 46.7105 54.4541 46.6515 54.2508 46.607C53.6841 46.483 53.1299 46.2485 52.5665 46.0972C51.4899 45.8081 49.1506 45.399 48.162 45.9231C48.0676 45.9732 48.0221 46.0049 47.991 46.11C48.0695 46.2384 48.166 46.291 48.3235 46.2849C48.6676 46.2717 48.991 46.1529 49.3468 46.1502C50.3965 46.1422 53.2271 46.4873 54.0462 47.0547C54.1721 47.142 54.2341 47.2229 54.2626 47.3771C54.1697 47.4798 54.0576 47.3925 53.9272 47.4529C53.9465 47.5047 53.98 47.5769 53.9888 47.6333C54.0088 47.7622 53.9892 47.7722 53.9095 47.865C53.7099 47.9589 53.4846 47.9192 53.2696 47.9066C53.4367 48.0795 53.5749 48.2633 53.7156 48.4572C53.0897 48.3339 52.5514 47.9893 51.9796 47.7214C51.171 47.3427 50.338 47.0381 49.4596 46.8707C49.1521 46.8122 48.7919 46.7339 48.482 46.8023C48.3495 46.8316 48.2357 46.8898 48.1657 47.0111C48.1236 47.0842 48.1435 47.0911 48.1638 47.1644C48.4428 47.3662 48.9922 47.2986 49.3264 47.2993C49.9256 47.3006 52.2189 48.1346 52.6281 48.5443C52.6288 48.6572 52.6454 48.6677 52.578 48.765C52.3701 48.8124 52.1671 48.6545 51.9492 48.6607L51.8938 48.7405C51.9115 48.8797 51.9325 48.9999 51.8958 49.1385C51.8304 49.1872 51.8535 49.1838 51.7863 49.1937C51.7327 49.2017 51.6721 49.201 51.6201 49.2163C51.4559 49.2644 51.4402 49.3347 51.3556 49.47C50.5516 49.0679 49.8381 48.5011 49.027 48.1056C48.6753 47.9342 47.1959 47.2025 46.8728 47.3156C46.8212 47.3971 46.799 47.4298 46.8342 47.5316C46.867 47.6271 46.96 47.7333 47.0435 47.7858C47.3106 47.9538 48.2675 48.2822 48.6177 48.4148C49.1035 48.5988 50.0762 49.0983 50.4137 49.4771C50.3535 49.7078 49.7471 49.4474 49.5439 49.5699C49.5069 49.6981 49.561 49.7758 49.6037 49.8987L49.568 49.9626C48.6999 50.1425 48.1773 49.0053 47.4318 48.8277L47.3438 48.9086C47.2926 49.3639 48.0244 49.644 48.2597 50.147L48.2869 50.2065C48.0415 50.1107 47.8015 49.9795 47.534 50.0525C47.4744 50.2295 47.6554 50.3753 47.6331 50.5702C47.3138 50.7079 46.9461 50.1011 46.5982 50.0824C46.4777 50.1724 46.4883 50.2774 46.4568 50.4211C46.2518 50.3264 46.2194 50.032 46.0037 49.9594C45.8623 50.0046 45.8627 50.0562 45.7918 50.1821C45.652 50.1672 45.5091 50.1668 45.3708 50.1497C44.855 50.0857 43.6506 48.8584 43.2988 48.4222C43.404 47.8863 43.4708 47.3715 43.4719 46.8246C43.1664 47.5883 42.9126 48.3916 42.7119 49.189C42.1517 49.5265 41.6073 49.9595 40.9972 50.1999L40.7675 50.0601C40.5011 50.0583 40.4701 50.3622 40.2327 50.4443C40.2247 50.2746 40.2396 50.0986 40.2206 49.9308C40.2062 49.8031 40.1686 49.7496 40.0751 49.668C39.802 49.6463 39.2566 50.1246 39.024 50.2883C39.0605 50.0774 39.1191 49.8605 39.0599 49.6506C38.975 49.5478 38.9756 49.5482 38.8448 49.5225C38.4231 49.6416 38.1445 49.9913 37.8214 50.2654C37.9367 50.0204 38.1641 49.6187 38.0421 49.3484C38.0152 49.2887 37.9753 49.2971 37.9182 49.2815C37.5073 49.3644 37.1296 49.7467 36.799 49.9962C36.8899 49.667 37.0252 49.294 37.0321 48.9513C37.0343 48.8395 37.0329 48.7779 36.9503 48.6975L36.6982 48.7863C36.6282 48.5081 37.7858 48.1041 37.942 47.7899C37.927 47.6792 37.9277 47.6878 37.8389 47.6188C37.2663 47.5766 36.4863 48.1977 36.0344 48.5023C36.014 48.3733 36.0051 48.166 35.9466 48.0506C35.8864 47.932 35.8634 47.9199 35.7452 47.8847C35.5435 47.9341 35.3875 48.0931 35.229 48.2212C35.2418 47.9899 35.322 47.7637 35.1883 47.5586C34.9799 47.5074 34.6205 47.7483 34.4299 47.8461C34.5131 47.7055 34.5956 47.5569 34.6984 47.4296C35.2425 46.7558 36.184 46.7522 36.9683 46.6736C37.1854 46.6519 37.4513 46.6374 37.5993 46.4571C37.6273 46.3602 37.6485 46.354 37.6075 46.2569C36.823 46.0454 35.7018 46.4238 34.9375 46.6145C34.8186 46.3143 34.708 45.8694 34.8042 45.549C34.8612 45.3592 34.9721 45.2131 35.1535 45.1288C35.7401 44.8562 36.4572 45.1814 37.0469 45.2495C37.272 45.2756 37.4687 45.2113 37.6897 45.291C37.7734 45.3212 37.8079 45.3421 37.9016 45.3412C37.9771 45.3405 37.9771 45.3115 38.0213 45.2595C38.0103 45.1769 38.0215 45.1459 37.9613 45.0827C37.5812 44.6831 35.8248 44.6385 35.2728 44.6236C35.1104 44.6192 35.0271 44.6373 34.9122 44.5179C34.8048 44.2492 34.9862 43.5804 35.0964 43.3115C35.5797 43.4837 36.085 43.5852 36.5706 43.7496C36.9044 43.8626 37.2126 44.0513 37.5562 44.1381C37.6577 44.1637 37.7434 44.1831 37.8446 44.1475L37.8385 44.0597C37.2225 43.2857 36.1267 43.2057 35.2785 42.8446L35.2124 42.816C35.0011 41.6294 35.5666 41.4955 35.5256 41.0156C35.5137 40.8754 35.4575 40.8082 35.3535 40.7213C35.2518 40.7147 35.2143 40.7067 35.124 40.7635C34.7447 41.0021 34.4702 42.2358 34.3586 42.6973C33.8632 42.6049 33.3668 42.5388 32.8673 42.4748C33.4593 41.7396 34.0499 41.0077 34.8168 40.4435C34.9844 40.3202 35.1211 40.22 35.3342 40.2522C35.4823 40.5937 35.6324 40.9343 35.7844 41.274C35.8558 41.2024 35.9425 41.1278 36.0023 41.0468C36.2231 40.7478 35.843 40.0984 35.9336 39.7014C36.3212 38.0019 37.0714 37.118 36.8139 35.2408C37.1325 34.7884 37.668 34.5901 37.802 34.3728C37.8363 34.3172 37.8112 34.2951 37.7933 34.2386L37.635 34.1699C37.8645 33.8472 38.285 33.6881 38.5404 33.3911C38.5959 33.3266 38.6162 33.3092 38.6096 33.2225C38.5206 33.1819 38.4119 33.2002 38.3148 33.2021L38.2688 33.1451C38.5343 32.6011 39.3052 32.6115 39.5565 32.2143L39.5123 32.0617C39.6994 31.7943 40.0681 31.9 40.3214 31.7401C40.3487 31.6457 40.3767 31.5625 40.4215 31.4749C40.6101 31.4149 40.798 31.5244 40.9988 31.5044C41.1575 31.3842 41.0265 31.4203 41.0662 31.2576C41.2979 31.1701 41.5286 31.2836 41.7669 31.2524C41.8561 31.2407 41.8225 31.2587 41.8764 31.1886L41.8064 31.0363C41.9843 30.8238 42.5451 31.1705 42.8308 31.0544L42.8176 30.9402C42.9751 30.8409 43.179 30.892 43.3657 30.8551C43.4672 30.7486 43.4336 30.6664 43.4326 30.5229C43.7894 30.4267 44.1051 30.8997 44.4443 30.8332C44.4551 30.7563 44.4673 30.6796 44.4811 30.6032C44.5941 30.5747 44.7057 30.5437 44.8178 30.5123C45.0456 30.4487 45.1955 30.2501 45.3543 30.0837ZM51.443 35.6637C51.1177 35.9039 50.6936 36.3455 50.5605 36.7326L50.6047 36.8079L50.6918 36.8212C50.8938 36.6005 51.5521 36.0712 51.6012 35.8001L51.5594 35.7042L51.443 35.6637ZM37.559 36.0936C37.1104 36.8433 36.5307 38.7899 36.768 39.6265C36.8041 39.7538 36.8816 39.8901 37.0088 39.9442C37.1791 40.0167 37.4365 39.9574 37.5996 39.889C38.1554 39.4571 38.4157 38.7987 38.5027 38.1144C38.5695 37.5892 38.5912 36.8559 38.2409 36.4247C38.0982 36.249 37.9065 36.1194 37.6774 36.0987C37.6381 36.0952 37.5985 36.0946 37.559 36.0936ZM51.592 36.5676C50.8265 36.85 50.3469 37.5577 50.0149 38.2694C49.7259 38.8888 49.2871 40.2357 49.5035 40.9041C49.5281 40.9802 49.5682 41.0331 49.6175 41.0947C49.7328 41.1359 49.7748 41.1602 49.8957 41.1065C49.9809 41.0686 50.0695 40.9839 50.144 40.9259C50.1598 40.9159 50.1755 40.9058 50.1914 40.8961C51.0184 40.3914 52.016 40.8828 52.3245 39.6407C52.4682 39.0622 52.5626 37.3122 52.2431 36.8309C52.1505 36.6913 52.0029 36.6249 51.8433 36.5979C51.76 36.584 51.6762 36.5739 51.592 36.5676ZM40.9435 43.5886C40.8699 43.7223 40.8068 43.8225 40.8057 43.9804C40.8927 44.2525 42.2725 45.0555 42.5947 45.3034C42.9376 45.5673 43.2139 45.8812 43.5319 46.1693C44.2638 45.1467 44.8306 44.8322 45.9269 44.2642C46.049 44.1958 46.1592 44.1378 46.201 43.9915C46.2351 43.8718 46.2238 43.8353 46.1659 43.7365C45.9715 43.6476 45.7917 43.6846 45.5972 43.7575C44.8933 44.0214 44.012 44.7069 43.5684 45.3096C43.0637 44.9285 41.5425 43.6124 40.9435 43.5886Z" fill="#FEFEFE"/>
<path d="M34.1247 36.2579C34.3027 36.2455 34.4874 36.2448 34.6579 36.1888C34.6973 36.1271 34.7399 36.0557 34.7939 36.0061C34.8825 35.9246 34.9702 35.8767 35.088 35.8805L35.121 35.9636L35.1867 35.9851C35.4681 35.7315 35.7469 35.4751 36.0231 35.2158C36.0856 35.2184 36.155 35.2179 36.217 35.2302C36.3447 35.2555 36.388 35.2909 36.4645 35.3924C36.4823 36.1977 35.7741 38.2115 35.4807 39.0428C35.1648 39.2853 34.8787 39.6091 34.5931 39.8878C33.7998 40.6615 32.9443 41.4475 32.3201 42.3698C31.6336 42.3365 29.5095 42.3157 28.9063 42.5333C28.7352 42.5951 28.492 42.7033 28.3162 42.6484C28.2872 42.5336 28.3372 42.4468 28.372 42.3356C28.4864 42.153 28.919 41.7969 28.9479 41.6915C28.924 41.6845 28.9004 41.6761 28.8761 41.6706C28.8508 41.6649 28.8249 41.662 28.7993 41.6577C28.8175 41.5169 28.8819 41.4748 28.9889 41.3806C29.0076 41.3643 29.0265 41.3484 29.0453 41.3324C29.0373 41.2491 29.0369 41.1883 29.056 41.1066C29.2148 40.9264 29.4336 40.936 29.6239 40.8145C29.7104 40.7592 29.7086 40.7397 29.7271 40.6457C29.6626 40.5876 29.6042 40.5337 29.5517 40.4645C29.8104 40.0135 30.3395 39.8527 30.6354 39.4402C30.7942 39.3964 30.9603 39.3572 31.1147 39.3002C31.2132 39.2637 31.2903 39.2213 31.3374 39.1233C31.3013 39.0402 31.2728 38.9608 31.2486 38.8735C31.414 38.3013 32.104 38.5193 32.3565 38.1642L32.2598 38.0081C32.261 37.9242 32.2642 37.8639 32.3073 37.7881C32.3891 37.6445 32.4982 37.6176 32.648 37.5853C32.8068 37.551 32.9326 37.5405 33.0337 37.4057C33.0256 37.3538 33.0049 37.2684 33.009 37.2133C33.0307 36.9188 33.6445 37.0625 33.8265 36.9005C33.8474 36.7821 33.8333 36.6796 33.8184 36.562C33.8757 36.4097 33.9968 36.3463 34.1247 36.2579Z" fill="#FEFEFE"/>
<path d="M50.6917 36.8211L50.6046 36.8078L50.5604 36.7325C50.6936 36.3454 51.1176 35.9038 51.4429 35.6636L51.5593 35.7041L51.6012 35.8C51.552 36.0711 50.8938 36.6004 50.6917 36.8211Z" fill="#1B1919"/>
<path d="M37.5996 39.8892C37.4365 39.9576 37.1791 40.0169 37.0088 39.9444C36.8816 39.8903 36.8041 39.7539 36.7679 39.6267C36.5306 38.79 37.1104 36.8435 37.5589 36.0938C37.5984 36.0948 37.6381 36.0953 37.6774 36.0989C37.9065 36.1195 38.0981 36.2491 38.2409 36.4249C38.5912 36.8561 38.5695 37.5893 38.5027 38.1145C38.4157 38.7988 38.1554 39.4572 37.5996 39.8892ZM37.5109 37.3262C37.4404 37.4745 37.3866 37.586 37.3812 37.7516C37.4301 37.8637 37.4305 37.8606 37.5406 37.9151L37.6705 37.9069C37.7441 37.7709 37.8127 37.6642 37.8119 37.5043C37.7528 37.4097 37.7266 37.3827 37.6148 37.3442C37.5816 37.3326 37.5455 37.3301 37.5109 37.3262Z" fill="#1B1919"/>
<path d="M50.144 40.9261C50.0695 40.9841 49.9808 41.0689 49.8957 41.1067C49.7748 41.1604 49.7327 41.1361 49.6174 41.0949C49.5682 41.0333 49.5281 40.9805 49.5035 40.9043C49.2871 40.2359 49.7259 38.8891 50.0149 38.2696C50.3469 37.558 50.8265 36.8502 51.5919 36.5679C51.6762 36.5741 51.7599 36.5842 51.8433 36.5981C52.0029 36.6251 52.1504 36.6915 52.2431 36.8312C52.5625 37.3124 52.4682 39.0625 52.3245 39.6409C52.016 40.883 51.0184 40.3916 50.1914 40.8963C50.1755 40.9061 50.1598 40.9162 50.144 40.9261ZM51.0429 38.0271C50.8799 38.1967 50.723 38.3806 50.7384 38.6326C50.7457 38.752 50.8084 38.8584 50.9031 38.9303C50.9809 38.9894 51.0842 39.0038 51.1777 39.0185C51.3519 38.867 51.4384 38.7394 51.4527 38.5032C51.4614 38.3593 51.4137 38.2155 51.3007 38.1197C51.2251 38.0557 51.1385 38.0338 51.0429 38.0271Z" fill="#1B1919"/>
<path d="M37.6705 37.9068L37.5406 37.915C37.4305 37.8605 37.43 37.8636 37.3811 37.7515C37.3866 37.5859 37.4404 37.4744 37.5108 37.3262C37.5454 37.3301 37.5815 37.3326 37.6147 37.3441C37.7265 37.3827 37.7528 37.4097 37.8119 37.5042C37.8126 37.6641 37.744 37.7708 37.6705 37.9068Z" fill="#FEFEFE"/>
<path d="M51.1776 39.0182C51.0841 39.0036 50.9809 38.9892 50.903 38.9301C50.8083 38.8582 50.7456 38.7518 50.7384 38.6324C50.723 38.3803 50.8798 38.1964 51.0428 38.0269C51.1385 38.0335 51.225 38.0554 51.3006 38.1194C51.4136 38.2153 51.4613 38.3591 51.4526 38.503C51.4383 38.7392 51.3519 38.8667 51.1776 39.0182Z" fill="#FEFEFE"/>
<path d="M28.0617 42.9565C28.7235 42.857 29.4064 42.8186 30.073 42.7554C30.6684 42.7075 31.2557 42.7225 31.851 42.753C31.441 43.2637 30.8471 43.6598 30.4074 44.1651C30.1188 44.4968 29.8933 44.877 29.6346 45.2313C29.0925 45.9734 28.5423 46.6941 28.0535 47.4741C27.127 48.9531 25.5707 52.0144 25.2267 53.7061C24.9976 54.8328 25.0558 55.9844 25.1404 57.1231C25.2357 57.4131 25.2852 57.7133 25.3414 58.0128L25.3158 57.9941C24.8846 57.6842 24.687 57.3999 24.5742 56.8681C24.3729 55.9194 24.3075 54.775 24.4374 53.8145C24.5096 53.2805 24.6412 52.7547 24.711 52.2199C24.8109 51.4528 24.7862 50.6736 24.9083 49.9063C25.0744 48.8635 25.5568 47.7772 25.9183 46.7843C26.0508 46.4202 26.1562 46.0283 26.3185 45.6775C26.4682 45.354 26.6887 45.0469 26.8815 44.747C26.8643 44.6656 26.8796 44.6889 26.8327 44.6305C26.8226 44.6179 26.8115 44.6062 26.8009 44.594C27.1541 44.0028 27.6093 43.4733 28.0617 42.9565Z" fill="#FEFEFE"/>
<path d="M25.7395 57.6715C25.7368 57.6649 25.7342 57.6581 25.7314 57.6514C25.5692 57.2593 25.5584 56.8066 25.5345 56.3875C25.4778 55.3913 25.5734 54.4516 25.8279 53.486C26.4405 51.1621 27.9566 48.3461 29.2729 46.3303C29.5009 45.9811 29.7377 45.571 30.0136 45.2608C30.1701 45.0846 30.4364 44.9901 30.6175 44.8306C31.2956 44.2331 31.988 43.5505 32.5903 42.877C32.9963 42.896 33.7907 42.844 34.1282 43.0714C34.2274 43.1383 34.301 43.2137 34.3117 43.3382C34.3241 43.4822 34.2707 44.6064 34.1966 44.6726C34.0801 44.7767 33.2723 44.8937 33.0575 44.9591C32.3612 45.1713 30.6627 45.8771 30.2238 46.4386L30.2498 46.4749C30.837 46.4352 31.4212 45.9723 31.9696 45.7467C32.314 45.6064 32.6663 45.4902 33.0266 45.3983C33.3868 45.3063 33.7517 45.2394 34.1212 45.1975C34.1197 45.7311 34.0528 46.2343 34.0171 46.7639C32.7817 47.4322 30.1561 48.7654 29.4224 49.8951C29.3443 50.0154 29.3075 50.1124 29.3327 50.2536C29.448 50.2853 29.4688 50.2628 29.5533 50.1868C29.8419 49.9273 30.0927 49.621 30.3958 49.3776C31.3633 48.6004 32.637 47.9694 33.7584 47.4382C33.799 48.6964 33.2616 49.4296 32.5173 50.3669C31.9728 51.1369 31.3663 51.8491 30.7872 52.5917C29.5851 54.1333 27.5772 57.023 25.7395 57.6715Z" fill="#FEFEFE"/>
<path d="M43.5319 46.1691C43.2139 45.881 42.9376 45.5671 42.5947 45.3032C42.2725 45.0553 40.8927 44.2524 40.8057 43.9803C40.8068 43.8224 40.8699 43.7222 40.9435 43.5884C41.5425 43.6122 43.0637 44.9283 43.5685 45.3094C44.012 44.7068 44.8934 44.0213 45.5972 43.7573C45.7917 43.6844 45.9715 43.6474 46.1659 43.7364C46.2238 43.8352 46.2351 43.8716 46.201 43.9913C46.1592 44.1376 46.049 44.1956 45.9269 44.264C44.8306 44.832 44.2638 45.1465 43.5319 46.1691Z" fill="#1B1919"/>
<path d="M56.0276 46.7928L55.8904 46.2793C55.9128 46.289 55.9354 46.2985 55.9576 46.3087C56.5319 46.5729 56.8602 47.025 57.0797 47.594L56.5931 47.4025C56.3356 47.3016 55.6704 47.1226 55.5411 46.9014C55.6719 46.8041 55.8684 46.8086 56.0276 46.7928Z" fill="#FEFEFE"/>
<path d="M54.0157 48.7908C54.192 48.8237 54.3926 48.8806 54.5715 48.8698C54.6513 48.8648 54.6249 48.8645 54.6887 48.7933C54.69 48.6707 54.6489 48.6067 54.5882 48.5054L54.5642 48.4663C54.7232 48.4014 54.8369 48.4283 54.9739 48.3152C55.0169 48.0843 54.8074 48.0529 54.779 47.844C54.9185 47.8418 55.055 47.8544 55.1645 47.7626C55.1622 47.6092 54.9956 47.4382 54.9068 47.3174C55.7271 47.4383 56.5708 47.848 57.3151 48.2076C57.5852 48.5732 57.7743 49.0155 57.9913 49.4147C58.4723 50.2992 58.9531 51.2093 59.5192 52.0429C59.8132 52.4757 61.8984 55.0924 61.9254 55.1836C61.789 55.1814 61.6448 55.1579 61.5273 55.2382C61.439 55.6659 62.0992 55.9936 62.0639 56.3951C61.5478 56.3684 61.1643 55.7047 60.6377 55.6141L60.5723 55.664C60.6012 56.0275 61.1139 56.4106 61.3142 56.719C61.7343 57.3657 61.94 58.0795 62.2523 58.7748C62.0499 58.671 61.8575 58.5336 61.648 58.4457C61.5189 58.3916 61.3971 58.3551 61.2678 58.4081C61.2665 58.4229 61.2631 58.4377 61.2639 58.4525C61.2756 58.6578 62.1016 59.6504 62.2891 59.8241L62.3325 59.7991C62.3699 59.5886 62.3191 59.3764 62.2872 59.1673C62.6113 59.3724 62.8647 59.6607 63.1605 59.9029C63.0228 59.4671 62.7744 59.0776 62.572 58.67C62.2905 58.105 62.0557 57.5214 61.8676 56.919C62.1083 56.9982 62.5545 57.1325 62.7879 57.0197L62.8224 56.9192C62.7249 56.5592 62.3764 56.1345 62.1761 55.8062C62.8777 56.2386 65.0246 58.0592 65.4066 58.7688C65.2043 58.6811 64.9784 58.58 64.7629 58.534C64.6765 58.5154 64.6448 58.4983 64.5686 58.5489C64.7634 59.1374 65.8862 59.8179 66.2057 60.52C66.1777 60.6218 66.1899 60.5902 66.1555 60.6752C66.1483 60.6927 66.1408 60.7102 66.1335 60.7276C66.1786 61.1442 66.5496 61.5141 66.7733 61.8605C66.7064 61.9461 66.4825 61.8703 66.3607 61.9364C66.3392 62.2079 66.9248 62.7579 67.0902 63.023C67.1005 63.0394 67.1103 63.056 67.1203 63.0725C66.8244 63.5645 66.4408 63.9329 66.0998 64.3858C65.8447 64.7246 65.6265 65.1103 65.3364 65.4196C64.9669 65.8136 64.5769 66.0818 64.2517 66.5292L64.1959 66.4715C63.9942 66.2649 63.7013 65.5707 63.4807 65.5045C63.3059 65.9271 63.3975 66.4575 63.2115 66.8884C62.9951 67.39 62.129 67.9499 61.7371 68.3654C61.5672 68.5455 61.4411 68.7745 61.3134 68.9855C60.997 69.1155 60.9124 69.303 60.6557 69.4523C60.4142 69.5926 60.1473 69.6814 59.9085 69.832C58.3931 70.7879 56.1728 72.5552 55.0012 73.8909L56.2965 71.109C56.7962 70.0151 57.2409 68.9593 57.9813 67.9953C58.1265 67.9837 58.3719 67.9975 58.4864 67.9035C58.6119 67.4908 58.5593 66.8052 58.4396 66.3899C58.4077 66.279 58.3824 66.2176 58.2788 66.1612L58.1792 66.2251C57.9636 66.614 58.0824 67.0916 58.1662 67.5022C58.0211 67.541 57.878 67.5876 57.7445 67.6573C55.9437 68.5965 53.0371 73.0232 52.1162 74.8895C51.7588 75.6135 51.4891 76.4049 51.1978 77.1582C50.85 78.0574 50.4732 78.9601 50.1829 79.8795C50.1604 79.2596 50.2854 78.6254 50.3706 78.0125C50.6919 75.7048 51.1764 73.4693 51.9246 71.259C52.2639 70.2565 52.8324 69.2839 52.9549 68.2233C52.971 68.0849 52.9881 67.9528 52.8971 67.8373C52.7901 67.8314 52.8234 67.8139 52.7488 67.8711C52.4827 68.075 52.2786 68.5943 52.1218 68.8978C50.825 71.4081 49.5203 75.1258 49.0743 77.9098C48.897 77.6266 48.6894 77.362 48.5282 77.0685C48.071 76.2368 48.3246 75.3171 48.4378 74.43C48.4691 74.1856 48.5401 73.8921 48.4895 73.6518L48.4116 73.6279C48.3633 73.6572 48.3617 73.6538 48.3184 73.7043C47.9818 74.0952 47.9351 75.6759 47.9541 76.2194C47.3575 75.5679 46.7039 74.9242 46.0579 74.3215C45.2901 73.6054 44.4137 73.0251 43.9178 72.0701C43.8141 71.8566 43.7526 71.6237 43.6722 71.4007C43.5969 71.1914 43.498 70.8699 43.2857 70.7689L43.1914 70.803C43.0804 71.0017 43.1101 71.2553 43.1194 71.4754C43.1655 72.5704 43.5206 73.3637 43.8272 74.3983C43.9326 74.7545 44.0093 75.1168 44.0574 75.4851C44.2706 77.0749 44.2796 78.7029 44.453 80.3007C44.2818 80.019 44.119 79.7325 43.9645 79.4413C43.8101 79.1501 43.6643 78.8547 43.5272 78.5549C43.39 78.2552 43.2617 77.9517 43.1423 77.6445C43.0229 77.3373 42.9125 77.0268 42.8113 76.7131C42.6651 76.2658 42.3566 74.9961 42.162 74.656C42.1093 74.564 42.0819 74.5674 41.9854 74.5414C41.923 74.5701 41.8788 74.5778 41.8384 74.6375C41.4651 75.1891 41.6594 76.511 41.7625 77.1408C41.2055 76.4261 40.6245 75.7148 39.9955 75.0621C39.1683 74.2038 38.2647 73.3925 37.5031 72.4756C37.6403 72.245 37.7589 72.0233 37.7827 71.751C37.8184 71.341 37.7225 71.0364 37.4553 70.7267C37.402 70.7346 37.3403 70.7205 37.2953 70.7503C37.2509 70.7797 37.3876 71.803 37.2245 72.0101L37.1156 72.0155C36.5557 71.6843 34.1368 68.7301 33.5766 68.0809C33.0891 67.5121 32.5834 66.96 32.0596 66.4245C32.1032 65.9839 32.5684 64.8206 32.5201 64.5761C32.5073 64.5116 32.5055 64.5275 32.4466 64.4921C32.3582 64.507 32.3806 64.4949 32.3047 64.5391C32.1047 64.6553 31.8718 64.9552 31.812 65.1778C31.7897 65.2612 31.7744 65.2942 31.7217 65.3608L31.6471 65.3575C31.6287 65.0326 31.8704 64.7041 31.8764 64.3717C31.8791 64.2203 31.8218 64.1497 31.7202 64.0464L31.6412 64.0532C31.4691 64.1993 31.3721 64.4396 31.2659 64.6363C31.2266 64.0361 31.1776 63.1989 31.5378 62.6956C31.707 62.4591 31.9262 62.2104 32.0419 61.9448C32.0937 61.8256 32.0984 61.7742 32.0543 61.6539L31.9517 61.6114C31.6197 61.7114 31.368 62.1365 31.161 62.4018C31.1531 61.9708 31.1933 61.5716 31.3488 61.1648C31.4946 60.7834 32.0796 60.1195 32.0021 59.7388L31.91 59.6846C31.4919 59.7517 31.5228 60.1177 31.1952 60.2729L31.1792 60.2585C31.1895 60.1334 31.1961 60.008 31.199 59.8824L31.1371 59.8324C31.0084 59.8315 30.9526 59.8771 30.8536 59.9497C30.8411 59.9588 30.8288 59.9682 30.8165 59.9775C30.7283 59.5676 31.2784 58.5958 31.4997 58.2459C31.6836 57.9551 31.9251 57.7117 32.0628 57.3896C32.1222 57.2505 32.155 57.1299 32.0962 56.9875C31.9853 56.9247 31.9557 56.9256 31.8267 56.9249C31.6586 57.0069 31.55 57.1772 31.4351 57.3202C31.4863 57.054 31.5356 56.7875 31.64 56.5359C31.793 56.1667 32.3808 55.5055 32.3402 55.1353L32.2553 55.0892C32.0426 55.1106 31.8705 55.2437 31.6918 55.353C32.0203 54.9124 32.4795 54.4043 32.5988 53.8599L32.5114 53.7894C32.2408 53.9094 32.0414 54.1144 31.8331 54.3179C32.1968 53.4587 32.6645 52.8132 33.5013 52.3747C33.779 52.2293 34.1105 52.0836 34.345 51.8729C34.2715 51.8204 34.1973 51.7726 34.1209 51.7244L34.125 51.643C34.5712 51.19 35.1967 50.9002 35.7472 50.5934C35.8295 50.3016 35.9255 49.879 36.115 49.6399C36.1756 49.5633 36.1835 49.5593 36.2822 49.5524C36.4605 49.8045 36.2936 50.25 36.487 50.5072C36.5719 50.62 36.6082 50.6123 36.7394 50.6267C37.0271 50.5228 37.2045 50.3097 37.4219 50.1026C37.487 50.3645 37.5649 50.6134 37.738 50.8247C38.0475 50.9402 38.1812 50.4327 38.5217 50.4164C38.4961 50.5682 38.4537 50.781 38.5166 50.9291C38.5689 51.0523 38.5959 51.0565 38.7133 51.0932C39.0711 51.0248 39.3055 50.7406 39.5556 50.4967C39.5969 50.7314 39.6115 50.9431 39.8062 51.1035C39.9922 51.1417 40.14 51.0365 40.3159 50.9884C40.3395 51.0501 40.364 51.1078 40.3917 51.1674C40.4805 51.2019 40.5258 51.2136 40.6225 51.1977C41.2678 51.0918 41.7686 51.7135 42.4384 51.6961C42.7576 51.6878 42.9192 51.5732 43.1304 51.3485C43.3478 51.5891 43.6531 51.8913 43.947 52.0351C44.0736 52.0971 44.0867 52.0869 44.2125 52.0434C44.3639 51.8856 44.4064 51.7096 44.5072 51.5235C44.574 51.4002 44.5992 51.3732 44.7329 51.3306C44.858 51.3485 44.9064 51.3806 45.0032 51.4634L45.062 51.5142C45.1774 51.6122 45.2389 51.6549 45.3916 51.6412C45.6396 51.4941 45.7498 51.2541 45.8722 51.0064C46.7837 51.3602 46.49 51.0385 47.1093 51.1053C47.3908 51.1358 47.6148 51.4233 47.9238 51.3778C48.3684 51.3124 48.0923 50.9618 48.2419 50.74L48.4653 50.719C48.5465 50.659 48.625 50.6065 48.7137 50.5582C49.7722 51.5004 49.9482 53.2325 50.5515 54.4506C50.6484 54.5178 50.6404 54.5208 50.7559 54.5021C50.8498 54.4189 50.8938 54.3721 50.9122 54.2434C50.9986 53.636 50.1337 51.7654 49.8164 51.1987C49.6822 50.9589 49.5144 50.7379 49.3497 50.5185C49.5871 50.5523 49.8988 50.6379 50.1306 50.5689C50.2563 50.5315 50.3009 50.4593 50.3626 50.3531C50.3694 50.3413 50.3759 50.3293 50.3827 50.3173C50.5124 50.2619 50.5891 50.2778 50.7218 50.3023C50.865 50.3287 50.9458 50.3382 51.0874 50.2932C51.1366 50.2776 51.1856 50.2651 51.2357 50.2526C51.9723 50.6372 53.485 52.5591 54.1109 53.2803C54.209 53.3934 54.3062 53.5018 54.4611 53.5133C54.5285 53.4322 54.5312 53.41 54.5222 53.302C54.4656 52.6189 52.256 50.5833 51.6609 50.0215C51.8329 50.0186 52.2153 50.0714 52.3563 49.9948C52.4557 49.9407 52.4828 49.8007 52.4964 49.7012C52.5099 49.6024 52.5247 49.5258 52.5642 49.4326L52.6837 49.435C52.7937 49.4376 52.9083 49.4468 53.0179 49.4355C53.1243 49.4245 53.1977 49.3755 53.2594 49.2899C53.2509 49.2249 53.241 49.1756 53.2157 49.1142C53.2087 49.097 53.2006 49.0802 53.1931 49.0632C53.2113 49.0605 53.2293 49.0567 53.2475 49.0552C54.059 48.9883 55.8244 50.919 56.4968 51.4058C56.6186 51.494 56.7048 51.5355 56.8542 51.5156L56.8962 51.4441C56.721 50.8404 54.6212 49.2385 54.0157 48.7908ZM62.3014 60.2067C62.3647 60.6209 62.7485 61.0354 62.9094 61.4352C62.6275 61.2591 62.3288 61.0192 61.9855 61.0077L61.9298 61.0679C61.9675 61.6312 62.612 62.1839 62.5125 62.9535L62.4445 62.9968C62.1312 62.7882 61.5816 62.4017 61.1981 62.4066C61.1214 62.5111 61.1203 62.5668 61.1234 62.6986C61.1336 63.1413 61.2301 63.5834 61.2428 64.0297C61.254 64.4231 61.1731 64.876 61.2193 65.2586C61.2252 65.3083 61.2355 65.3252 61.2539 65.3662C61.3348 65.3253 61.3108 65.3492 61.3414 65.3144C61.6959 64.5979 61.7307 63.8007 61.6568 63.0163C61.9175 63.2135 62.2614 63.4437 62.4128 63.7429C62.5025 63.9202 62.506 64.1811 62.6388 64.3257C62.7527 64.2689 62.8067 64.1848 62.8446 64.064C62.9794 63.6331 62.9237 62.9649 62.8399 62.5248C62.8025 62.3288 62.6872 62.1051 62.7209 61.9083C62.8394 61.9447 62.9248 62.0047 63.0305 62.0656C63.1067 62.1095 63.0792 62.0949 63.1802 62.1086C63.2714 61.9671 63.2398 61.7872 63.2055 61.6269C63.0972 61.1207 62.7971 60.5536 62.3682 60.2455C62.3473 60.2305 62.3237 60.2197 62.3014 60.2067ZM60.2275 63.9479C60.1792 64.5959 60.1456 65.0727 59.917 65.6974C59.7612 65.4484 59.6613 65.2425 59.3668 65.1418L59.3013 65.1974C59.28 65.6763 59.7339 66.3284 59.8958 66.7921L60.0603 66.3982C60.2479 65.9303 60.3879 65.4484 60.5337 64.9663C60.5648 65.31 60.5508 65.7489 60.6638 66.0722L60.7244 66.0715C60.9313 65.6473 60.8597 64.974 60.7095 64.5321C60.6469 64.3482 60.57 64.1592 60.4294 64.0217C60.363 63.9968 60.2956 63.9685 60.2275 63.9479ZM39.6645 64.2579C39.2508 64.4478 38.9313 64.7601 38.7752 65.1947C38.7523 65.2602 38.7316 65.3264 38.713 65.3933C38.7897 65.5239 38.9756 65.7406 38.9235 65.8915C38.8743 66.0341 38.7731 66.0914 38.7935 66.2593L38.8623 66.3504C38.9867 66.3445 39.0119 66.2919 39.0927 66.202C39.1132 66.1792 39.1328 66.1558 39.1528 66.1326C39.3787 65.972 39.7505 65.779 39.82 65.4862C39.8473 65.371 39.807 65.2985 39.7459 65.206L39.6661 65.1752L39.6031 65.0351L39.5276 65.1279C39.6598 64.8614 40.0952 64.7446 40.0928 64.4065C39.9932 64.2939 39.8677 64.2601 39.7151 64.256C39.6983 64.2555 39.6814 64.2573 39.6645 64.2579ZM50.7547 65.1989C49.7014 65.6077 48.5024 66.2302 48.0365 67.3376C47.9836 67.4635 47.9353 67.6089 47.9851 67.7428C48.008 67.8049 48.0639 67.8445 48.1262 67.8652C48.3529 67.9405 48.6868 67.7451 48.8913 67.6512C48.4687 68.1014 47.5492 69.0029 47.606 69.654C47.6146 69.7523 47.637 69.8009 47.6875 69.8828C47.8285 69.9623 47.8996 69.9855 48.064 69.9353C48.2102 69.8906 48.3708 69.7475 48.494 69.6572C48.6584 69.539 48.8403 69.4361 48.9384 69.2541L48.9246 69.1622C48.6925 69.0805 48.4513 69.2037 48.2318 69.2823L48.2583 69.2194C48.5041 68.6413 48.8825 68.1723 49.3098 67.7188C49.4204 67.6015 49.672 67.3925 49.74 67.2548C49.7566 67.2211 49.7426 67.1797 49.7438 67.1422C49.556 66.9777 49.2806 67.0163 49.0431 67.0316C48.9638 67.0367 48.8857 67.0444 48.8067 67.0528C49.0517 66.7889 49.2886 66.56 49.587 66.3556C49.9257 66.1236 51.2089 65.5662 51.3004 65.2927C51.2635 65.2158 51.2826 65.21 51.2129 65.1882C51.0804 65.1466 50.8938 65.1848 50.7547 65.1989ZM61.5672 66.1451C61.0593 66.8081 61.1024 67.8455 60.5712 68.4786C60.4934 68.4462 60.5336 68.4717 60.4657 68.3966C60.3825 68.3047 60.2889 68.2479 60.1609 68.2497C60.0779 68.2508 60.035 68.2957 59.9835 68.3591C59.7911 68.5953 59.675 69.3339 59.7143 69.6249L59.7725 69.6977C59.8783 69.6569 59.8605 69.6608 59.9178 69.5758C59.9859 69.4156 60.0913 69.0327 60.2276 68.9425C60.3442 69.1018 60.2422 69.2946 60.3626 69.4438C60.6373 69.239 60.824 68.3065 61.0601 68.2961C61.1852 68.2905 61.172 68.3763 61.3181 68.2992C61.3879 68.1607 61.6121 66.3248 61.5775 66.1761C61.575 66.1655 61.5706 66.1555 61.5672 66.1451ZM39.5139 66.28C39.1905 66.5038 39.0667 66.8389 38.996 67.2138C38.9541 67.4354 38.9405 67.6657 38.9335 67.8908L39.161 68.2712C39.1515 68.6714 39.1515 69.0741 39.1315 69.4737C38.9996 69.2281 38.8619 68.8885 38.6018 68.7563L38.5391 68.7855C38.4547 69.0921 38.5721 69.4218 38.5728 69.733C38.5733 69.9207 38.5365 70.1224 38.5126 70.3082C38.3834 70.0251 38.261 69.5919 37.9599 69.455C37.8561 69.4754 37.8501 69.4618 37.7724 69.5424C37.7471 70.3052 38.2772 70.5925 37.9776 71.5629C37.9576 71.6276 37.9407 71.6938 37.9222 71.7589C38.0213 71.7965 38.1416 71.7665 38.2369 71.7254C38.5059 71.6094 38.5438 71.089 38.7316 70.8537C38.8891 70.6567 38.9731 70.4452 39.0655 70.2141C39.5032 70.508 39.9915 70.6236 40.358 71.0202C40.4214 71.0351 40.4623 71.0646 40.5212 71.0276C40.591 70.9837 40.6218 70.927 40.6658 70.8598C40.8734 71.0904 40.843 71.5236 41.2489 71.5569C41.3243 71.563 41.3022 71.5582 41.371 71.5149C41.4494 71.4655 41.4149 71.4754 41.4849 71.4685L41.568 71.6061C41.7073 71.8535 41.8916 72.2301 42.1775 72.3239C42.2906 72.361 42.325 72.364 42.4326 72.3305C42.4868 72.2062 42.4803 72.1526 42.4238 72.0266C42.2483 71.6351 41.944 71.3087 41.8298 70.8908C41.7549 70.6167 41.6919 70.2375 41.5556 69.9932C41.4923 69.9982 41.4494 69.9855 41.402 70.0348C41.2349 70.209 41.2668 70.582 41.2534 70.8095C41.1686 70.6031 41.0644 70.3813 41.0341 70.1592C41.0072 69.9614 41.0708 69.1725 40.9688 69.0497C40.9357 69.01 40.8846 68.9896 40.8426 68.9595L40.7103 68.9457C40.534 69.1088 40.5374 69.4826 40.5281 69.7093C40.5213 69.8735 40.5246 70.0409 40.5116 70.2046C40.3672 69.8594 40.2617 69.5638 40.2406 69.1862C40.2192 68.8031 40.5135 67.4295 40.2585 67.237C40.1473 67.255 40.1117 67.2818 40.0475 67.3713C39.8076 67.706 39.726 68.3155 39.6855 68.7115L39.6548 68.2255C39.6229 67.6606 39.4024 67.3526 39.6276 66.7592C39.6776 66.6277 39.7057 66.5545 39.6702 66.4117C39.6166 66.3525 39.5879 66.3134 39.5139 66.28ZM47.6978 70.0035C47.4112 70.4036 47.0336 71.1256 47.1559 71.6378C47.1845 71.7574 47.2185 71.7741 47.3111 71.8447C47.7032 71.8947 48.3942 71.3222 48.7901 71.1373C47.9839 72.0482 46.5033 72.5746 46.6335 74.0506C46.6448 74.1775 46.6995 74.2798 46.8017 74.3578C46.886 74.4221 47.0157 74.4419 47.117 74.4099C47.3704 74.3299 47.4058 73.9493 47.5435 73.7494C47.7056 73.5138 48.1213 73.295 48.3517 73.1103C48.6538 72.8392 48.8435 72.6163 49.0115 72.2391L49.0401 72.1764L49.0568 72.1385C48.4886 72.4125 47.9828 72.7772 47.4794 73.1525C47.8495 72.3781 48.6056 71.7637 49.1563 71.1051C49.2979 70.9357 49.4795 70.7603 49.5624 70.5538L49.5128 70.4878C49.0346 70.4396 48.1976 70.8681 47.7152 71.0198C47.8881 70.7741 48.1178 70.5145 48.1803 70.2167C48.146 70.1059 48.1426 70.0665 48.024 70.019C47.9422 69.9861 47.7847 69.9975 47.6978 70.0035Z" fill="#FEFEFE"/>
<path d="M41.4835 50.6967L41.5216 50.6537C41.9692 50.1392 42.6933 49.9374 43.246 49.5449C43.5568 49.5669 45.0429 50.4257 45.2972 50.6905L45.2604 50.8853C45.0674 51.0983 44.6974 50.6467 44.4096 50.6794C44.0998 50.8571 44.23 51.2136 44.0481 51.4649L43.9632 51.4781L43.8317 51.3644C43.6113 51.1105 43.3879 50.8593 43.1613 50.6109C42.9158 50.6991 42.7035 50.8078 42.5156 50.9916C42.1507 50.9291 41.8233 50.8448 41.4835 50.6967Z" fill="#FEFEFE"/>
<path d="M62.9095 61.435C62.7485 61.0353 62.3647 60.6208 62.3015 60.2065C62.3237 60.2195 62.3474 60.2304 62.3683 60.2454C62.7971 60.5534 63.0973 61.1205 63.2055 61.6267C63.2399 61.787 63.2715 61.967 63.1803 62.1085C63.0793 62.0948 63.1067 62.1093 63.0306 62.0654C62.9249 62.0046 62.8394 61.9446 62.721 61.9082C62.6873 62.105 62.8025 62.3286 62.8399 62.5247C62.9238 62.9648 62.9794 63.6329 62.8446 64.0639C62.8068 64.1847 62.7528 64.2687 62.6389 64.3256C62.506 64.181 62.5026 63.9201 62.4129 63.7428C62.2615 63.4436 61.9176 63.2133 61.6569 63.0162C61.7308 63.8006 61.6959 64.5978 61.3414 65.3143C61.3108 65.3491 61.3348 65.3251 61.2539 65.366C61.2356 65.325 61.2253 65.3082 61.2193 65.2584C61.1731 64.8758 61.254 64.423 61.2429 64.0296C61.2302 63.5833 61.1336 63.1412 61.1234 62.6984C61.1204 62.5667 61.1215 62.5109 61.1982 62.4065C61.5816 62.4016 62.1312 62.7881 62.4446 62.9967L62.5126 62.9534C62.6121 62.1837 61.9676 61.6311 61.9299 61.0678L61.9856 61.0075C62.3288 61.0191 62.6276 61.259 62.9095 61.435Z" fill="#1B1919"/>
<path d="M59.917 65.6973C60.1456 65.0726 60.1792 64.5958 60.2275 63.9478C60.2956 63.9683 60.363 63.9967 60.4294 64.0216C60.5699 64.1591 60.6468 64.3481 60.7095 64.532C60.8597 64.9739 60.9313 65.6472 60.7244 66.0714L60.6637 66.0721C60.5507 65.7488 60.5647 65.3099 60.5337 64.9662C60.3879 65.4483 60.2478 65.9302 60.0602 66.3981L59.8958 66.792C59.7339 66.3283 59.28 65.6762 59.3013 65.1973L59.3668 65.1417C59.6613 65.2424 59.7611 65.4483 59.917 65.6973Z" fill="#1B1919"/>
<path d="M38.713 65.3932C38.7316 65.3264 38.7523 65.2602 38.7752 65.1947C38.9313 64.7601 39.2508 64.4478 39.6645 64.2579C39.6814 64.2572 39.6983 64.2555 39.7152 64.2559C39.8677 64.2601 39.9932 64.2939 40.0928 64.4065C40.0952 64.7446 39.6598 64.8614 39.5276 65.1279L39.6031 65.035L39.6661 65.1752L39.746 65.2059C39.807 65.2985 39.8474 65.371 39.82 65.4862C39.7505 65.779 39.3787 65.972 39.1529 66.1326C39.1328 66.1558 39.1132 66.1792 39.0927 66.202C39.0119 66.2919 38.9867 66.3445 38.8623 66.3504L38.7935 66.2593C38.7731 66.0914 38.8743 66.034 38.9235 65.8914C38.9756 65.7406 38.7897 65.5239 38.713 65.3932Z" fill="#1B1919"/>
<path d="M48.8913 67.6513C48.6868 67.7452 48.3529 67.9405 48.1262 67.8653C48.064 67.8446 48.008 67.805 47.9851 67.7429C47.9354 67.609 47.9836 67.4636 48.0366 67.3377C48.5024 66.2303 49.7014 65.6077 50.7548 65.199C50.8938 65.1849 51.0805 65.1467 51.213 65.1883C51.2826 65.2101 51.2635 65.2159 51.3005 65.2928C51.209 65.5663 49.9257 66.1237 49.587 66.3557C49.2887 66.5601 49.0517 66.7889 48.8067 67.0529C48.8857 67.0444 48.9639 67.0368 49.0432 67.0317C49.2806 67.0164 49.556 66.9777 49.7438 67.1423C49.7426 67.1798 49.7566 67.2212 49.74 67.2548C49.672 67.3926 49.4204 67.6015 49.3098 67.7189C48.8825 68.1724 48.5042 68.6413 48.2583 69.2195L48.2319 69.2824C48.4514 69.2037 48.6925 69.0806 48.9246 69.1623L48.9384 69.2542C48.8404 69.4362 48.6585 69.5391 48.4941 69.6573C48.3709 69.7476 48.2103 69.8907 48.0641 69.9353C47.8997 69.9855 47.8285 69.9623 47.6876 69.8828C47.637 69.801 47.6147 69.7524 47.606 69.6541C47.5493 69.003 48.4687 68.1015 48.8913 67.6513Z" fill="#1B1919"/>
<path d="M59.9177 69.5757C59.8605 69.6608 59.8783 69.6568 59.7725 69.6976L59.7143 69.6249C59.675 69.3338 59.7911 68.5953 59.9835 68.359C60.035 68.2956 60.0779 68.2507 60.1609 68.2496C60.2889 68.2478 60.3825 68.3046 60.4657 68.3965C60.5336 68.4716 60.4934 68.4461 60.5712 68.4785C61.1024 67.8454 61.0593 66.808 61.5672 66.145C61.5706 66.1554 61.575 66.1654 61.5775 66.176C61.6121 66.3247 61.3878 68.1606 61.3181 68.2991C61.172 68.3762 61.1852 68.2904 61.0601 68.296C60.824 68.3065 60.6373 69.2389 60.3626 69.4438C60.2422 69.2945 60.3442 69.1017 60.2276 68.9424C60.0912 69.0326 59.9858 69.4155 59.9177 69.5757Z" fill="#1B1919"/>
<path d="M63.9917 66.7377C63.8721 66.7792 63.7819 66.8082 63.6526 66.8026C63.5557 66.6726 63.6306 66.3938 63.6489 66.2314C63.7514 66.3007 63.8561 66.409 63.9254 66.5111C63.9909 66.6075 64.0165 66.6206 63.9917 66.7377Z" fill="#FEFEFE"/>
<path d="M38.9335 67.8906C38.9405 67.6654 38.9541 67.4352 38.996 67.2136C39.0667 66.8387 39.1905 66.5036 39.5139 66.2798C39.5879 66.3132 39.6166 66.3523 39.6702 66.4115C39.7057 66.5543 39.6776 66.6275 39.6276 66.759C39.4024 67.3524 39.6229 67.6603 39.6548 68.2253L39.6855 68.7113C39.726 68.3153 39.8076 67.7058 40.0475 67.3711C40.1116 67.2816 40.1473 67.2548 40.2585 67.2368C40.5135 67.4293 40.2192 68.8029 40.2406 69.186C40.2617 69.5636 40.3672 69.8592 40.5116 70.2044C40.5246 70.0407 40.5213 69.8733 40.5281 69.7091C40.5374 69.4824 40.5339 69.1086 40.7103 68.9454L40.8426 68.9593C40.8846 68.9894 40.9357 69.0098 40.9688 69.0495C41.0708 69.1723 41.0072 69.9612 41.0341 70.159C41.0644 70.3811 41.1686 70.6028 41.2534 70.8093C41.2668 70.5818 41.2349 70.2088 41.402 70.0346C41.4493 69.9853 41.4923 69.998 41.5556 69.9929C41.6919 70.2373 41.7548 70.6165 41.8298 70.8906C41.944 71.3085 42.2483 71.6349 42.4237 72.0264C42.4802 72.1523 42.4868 72.206 42.4326 72.3303C42.325 72.3638 42.2906 72.3608 42.1775 72.3237C41.8916 72.2299 41.7073 71.8533 41.568 71.6059L41.4849 71.4683C41.4149 71.4752 41.4494 71.4653 41.371 71.5147C41.3022 71.558 41.3243 71.5628 41.2489 71.5566C40.843 71.5234 40.8734 71.0902 40.6658 70.8595C40.6218 70.9268 40.591 70.9835 40.5211 71.0274C40.4623 71.0644 40.4214 71.0349 40.358 71.02C39.9915 70.6233 39.5031 70.5078 39.0654 70.2138C38.9731 70.445 38.8891 70.6565 38.7316 70.8535C38.5438 71.0888 38.5059 71.6092 38.2369 71.7252C38.1416 71.7663 38.0213 71.7963 37.9222 71.7587C37.9407 71.6936 37.9576 71.6274 37.9776 71.5627C38.2771 70.5923 37.7471 70.305 37.7724 69.5422C37.8501 69.4615 37.856 69.4752 37.9599 69.4548C38.261 69.5917 38.3834 70.0249 38.5126 70.308C38.5364 70.1222 38.5733 69.9205 38.5728 69.7328C38.5721 69.4216 38.4547 69.0918 38.5391 68.7853L38.6018 68.7561C38.8619 68.8883 38.9996 69.2278 39.1315 69.4735C39.1514 69.0738 39.1515 68.6712 39.161 68.271L38.9335 67.8906Z" fill="#1B1919"/>
<path d="M48.7901 71.1373C48.3942 71.3222 47.7032 71.8947 47.3111 71.8447C47.2185 71.7741 47.1845 71.7574 47.156 71.6377C47.0336 71.1256 47.4112 70.4035 47.6978 70.0035C47.7847 69.9975 47.9422 69.9861 48.024 70.0189C48.1426 70.0664 48.146 70.1058 48.1803 70.2166C48.1178 70.5145 47.8881 70.7741 47.7152 71.0197C48.1976 70.8681 49.0346 70.4395 49.5128 70.4878L49.5624 70.5537C49.4796 70.7603 49.2979 70.9357 49.1563 71.105C48.6056 71.7636 47.8495 72.378 47.4794 73.1524C47.9828 72.7771 48.4886 72.4125 49.0568 72.1385L49.0401 72.1763L49.0115 72.2391C48.8435 72.6163 48.6538 72.8391 48.3517 73.1102C48.1214 73.2949 47.7056 73.5138 47.5435 73.7493C47.4058 73.9492 47.3704 74.3299 47.117 74.4099C47.0157 74.4419 46.886 74.422 46.8017 74.3577C46.6995 74.2797 46.6448 74.1775 46.6335 74.0506C46.5033 72.5745 47.9839 72.0481 48.7901 71.1373Z" fill="#1B1919"/>
<path d="M47.5849 83.409C47.5607 83.4876 47.5475 83.5311 47.4976 83.5981C47.3889 83.4983 47.125 81.6175 47.0634 81.3268C46.6535 79.3883 46.1492 77.3439 45.3938 75.5112C45.7936 75.6933 46.2736 76.5105 46.5113 76.876C47.7419 78.7679 48.059 81.2233 47.5849 83.409Z" fill="#FEFEFE"/>
<path d="M45.7222 81.2025C45.7053 81.1879 45.6859 81.1759 45.6714 81.1589C45.1807 80.5826 44.9233 78.221 44.9454 77.4204C45.3525 78.0124 45.6408 80.406 45.7222 81.2025Z" fill="#FEFEFE"/>
</g>
<defs>
<clipPath id="clip0_462_7004">
<rect width="95" height="95" fill="white" transform="translate(0.5 0.0537109)"/>
</clipPath>
</defs>
</svg>
