<svg width="96" height="96" viewBox="0 0 96 96" fill="none" xmlns="http://www.w3.org/2000/svg">
<g clip-path="url(#clip0_462_7034)">
<path d="M0.5 0.107422H95.5V95.1074H0.5V0.107422ZM46.726 7.17846C44.4908 7.26697 42.2374 7.47932 40.0412 7.91523C39.7852 7.96732 39.5298 8.02188 39.2749 8.07891C39.0201 8.13593 38.7658 8.19541 38.5121 8.25735C38.2584 8.31928 38.0053 8.38366 37.7528 8.45048C37.5003 8.5173 37.2485 8.58656 36.9973 8.65824C36.7462 8.72993 36.4958 8.80403 36.2461 8.88055C35.9963 8.95707 35.7473 9.036 35.4991 9.11733C35.251 9.19865 35.0036 9.28237 34.7571 9.36847C34.5105 9.45461 34.2647 9.5431 34.0199 9.63396C33.775 9.72475 33.5311 9.81796 33.288 9.91357C33.0449 10.0091 32.8028 10.107 32.5617 10.2072C32.3205 10.3075 32.0803 10.41 31.8411 10.5149C31.6019 10.6198 31.3638 10.7269 31.1266 10.8364C30.8895 10.9459 30.6535 11.0576 30.4185 11.1717C30.1835 11.2857 29.9497 11.402 29.717 11.5206C29.4843 11.6391 29.2527 11.7599 29.0224 11.8829C28.792 12.0059 28.5628 12.1311 28.3348 12.2586C28.1068 12.3861 27.8801 12.5157 27.6547 12.6475C27.4292 12.7793 27.205 12.9133 26.9822 13.0495C26.7593 13.1856 26.5377 13.3239 26.3176 13.4644C26.0974 13.6048 25.8785 13.7473 25.6611 13.892C25.4436 14.0366 25.2276 14.1834 25.013 14.3322C24.7984 14.4811 24.5852 14.632 24.3735 14.7849C24.1618 14.9378 23.9515 15.0928 23.7428 15.2498C23.5341 15.4068 23.327 15.5658 23.1213 15.7268C22.9157 15.8878 22.7116 16.0508 22.5091 16.2158C22.3066 16.3807 22.1057 16.5476 21.9065 16.7164C21.7072 16.8852 21.5095 17.056 21.3135 17.2286C21.1176 17.4013 20.9233 17.5758 20.7307 17.7522C20.5381 17.9286 20.3472 18.1068 20.158 18.2868C19.9689 18.4669 19.7815 18.6488 19.5958 18.8325C19.4102 19.0162 19.2263 19.2017 19.0443 19.389C18.8622 19.5762 18.682 19.7652 18.5035 19.9559C16.5323 22.0866 14.7088 24.4299 13.2043 26.9141C13.0799 27.1213 12.9574 27.3295 12.8368 27.5389C12.7162 27.7482 12.5974 27.9586 12.4806 28.1701C12.3637 28.3816 12.2488 28.5942 12.1358 28.8077C12.0228 29.0213 11.9118 29.2358 11.8026 29.4514C11.6934 29.6669 11.5862 29.8835 11.481 30.101C11.3758 30.3184 11.2725 30.5369 11.1712 30.7562C11.0699 30.9756 10.9705 31.1958 10.8732 31.417C10.7758 31.6381 10.6805 31.8601 10.5871 32.0829C10.4937 32.3058 10.4024 32.5295 10.3131 32.7539C10.2237 32.9784 10.1364 33.2037 10.0512 33.4298C9.96592 33.6558 9.88267 33.8827 9.80147 34.1103C9.72029 34.3378 9.64117 34.5661 9.56409 34.7951C9.48703 35.0241 9.41202 35.2538 9.33907 35.4842C9.26613 35.7145 9.19527 35.9455 9.12649 36.1771C9.05771 36.4087 8.99102 36.6409 8.92642 36.8737C8.86182 37.1066 8.79932 37.34 8.73892 37.5739C8.67853 37.8079 8.62024 38.0423 8.56406 38.2773C8.50788 38.5123 8.45383 38.7478 8.40189 38.9838C8.34996 39.2197 8.30015 39.4561 8.25247 39.693C8.20479 39.9299 8.15925 40.1672 8.11585 40.4049C8.07244 40.6426 8.03117 40.8806 7.99205 41.119C7.95293 41.3575 7.91596 41.5962 7.88114 41.8352C7.84632 42.0744 7.81365 42.3138 7.78314 42.5535C7.75263 42.7932 7.72428 43.0331 7.69809 43.2732C7.6719 43.5135 7.64787 43.7539 7.62601 43.9945C7.60415 44.2351 7.58445 44.4759 7.56692 44.7169C7.5494 44.9579 7.53404 45.199 7.52086 45.4402C7.50768 45.6815 7.49666 45.9229 7.48783 46.1643C7.47899 46.4058 7.47232 46.6473 7.46782 46.8889C7.46333 47.1305 7.46102 47.3721 7.46088 47.6136C7.46074 47.8553 7.46278 48.0969 7.46699 48.3385C7.47119 48.5801 7.47758 48.8216 7.48614 49.063C7.4988 49.3953 7.51556 49.7273 7.53639 50.0591C7.55722 50.391 7.58213 50.7225 7.61111 51.0537C7.64009 51.3849 7.67315 51.7157 7.71027 52.0461C7.74738 52.3765 7.78855 52.7064 7.83378 53.0358C7.87901 53.3651 7.92828 53.6939 7.98158 54.0221C8.0349 54.3502 8.09224 54.6777 8.1536 55.0045C8.21496 55.3313 8.28032 55.6572 8.3497 55.9824C8.41908 56.3075 8.49244 56.6317 8.56979 56.9551C8.64713 57.2785 8.72844 57.6009 8.81371 57.9222C8.89899 58.2435 8.9882 58.5638 9.08135 58.8829C9.17449 59.2021 9.27155 59.5201 9.37252 59.8369C9.47348 60.1536 9.57832 60.4691 9.68704 60.7833C9.79573 61.0975 9.90831 61.4103 10.0248 61.7218C10.1412 62.0332 10.2614 62.3432 10.3854 62.6517C10.5094 62.9601 10.6373 63.267 10.7688 63.5723C10.9004 63.8776 11.0358 64.1813 11.1748 64.4833C11.3138 64.7853 11.4565 65.0855 11.6029 65.384C11.7494 65.6826 11.8995 65.9792 12.0532 66.274C12.2069 66.5688 12.3642 66.8617 12.5251 67.1526C12.686 67.4436 12.8505 67.7325 13.0186 68.0193C13.1866 68.3063 13.3581 68.591 13.5331 68.8737C13.7081 69.1564 13.8866 69.4369 14.0686 69.7151C14.2505 69.9935 14.4358 70.2695 14.6245 70.5432C14.8132 70.8169 15.0052 71.0883 15.2006 71.3573C15.396 71.6263 15.5946 71.8929 15.7966 72.157C15.9985 72.4211 16.2037 72.6827 16.412 72.9418C16.6204 73.2009 16.8319 73.4574 17.0466 73.7113C17.2613 73.9652 17.479 74.2164 17.6998 74.4649C17.9207 74.7134 18.1445 74.9592 18.3714 75.2022C18.5983 75.4452 18.8282 75.6854 19.061 75.9228C19.2938 76.1602 19.5295 76.3946 19.768 76.6262C20.0066 76.8578 20.2479 77.0865 20.4921 77.3121C20.7325 77.5358 20.9757 77.7565 21.2216 77.9743C21.4674 78.1921 21.7159 78.4068 21.967 78.6184C22.2182 78.8301 22.4719 79.0386 22.7281 79.244C22.9844 79.4494 23.2431 79.6516 23.5044 79.8506C23.7656 80.0497 24.0293 80.2455 24.2954 80.438C24.5614 80.6306 24.8297 80.8198 25.1005 81.0058C25.3712 81.1917 25.6441 81.3744 25.9193 81.5536C26.1945 81.7328 26.4719 81.9087 26.7514 82.0811C27.0309 82.2535 27.3125 82.4225 27.5962 82.588C27.8799 82.7535 28.1655 82.9155 28.4531 83.0741C28.7408 83.2325 29.0303 83.3874 29.3218 83.5388C29.6133 83.6902 29.9066 83.8379 30.2017 83.982C30.4968 84.1262 30.7936 84.2667 31.0921 84.4036C31.3907 84.5405 31.6909 84.6736 31.9927 84.8031C32.2945 84.9325 32.5979 85.0583 32.9028 85.1803C33.2077 85.3023 33.5141 85.4206 33.8219 85.5351C34.1297 85.6495 34.4389 85.7602 34.7494 85.8671C35.06 85.974 35.3718 86.077 35.6849 86.1762C35.998 86.2755 36.3122 86.3709 36.6276 86.4623C36.9431 86.5538 37.2596 86.6414 37.5771 86.7251C37.8947 86.8088 38.2133 86.8886 38.5328 86.9645C38.8524 87.0403 39.1728 87.1123 39.4941 87.1803C39.8154 87.2483 40.1375 87.3123 40.4604 87.3723C40.7832 87.4325 41.1068 87.4886 41.4311 87.5406C41.7554 87.5928 42.0802 87.6409 42.4057 87.6851C42.7311 87.7292 43.057 87.7693 43.3834 87.8054C43.7098 87.8415 44.0367 87.8736 44.3639 87.9017C44.6912 87.9299 45.0187 87.9539 45.3465 87.9739C45.6743 87.9939 46.0023 88.0099 46.3304 88.0219C46.6587 88.0339 46.987 88.0418 47.3154 88.0457C47.6438 88.0496 47.9722 88.0495 48.3006 88.0453C48.629 88.0411 48.9573 88.0329 49.2855 88.0206C50.4256 87.9812 51.5625 87.8979 52.6962 87.7709C53.8299 87.6439 54.957 87.4735 56.0776 87.2596C56.3356 87.2062 56.5931 87.1504 56.8501 87.0921C57.1071 87.0338 57.3635 86.973 57.6193 86.9097C57.8752 86.8464 58.1304 86.7806 58.3849 86.7124C58.6394 86.6441 58.8932 86.5735 59.1464 86.5004C59.3996 86.4272 59.652 86.3516 59.9038 86.2736C60.1554 86.1956 60.4063 86.1151 60.6565 86.0322C60.9066 85.9494 61.156 85.8641 61.4045 85.7764C61.653 85.6887 61.9006 85.5986 62.1473 85.5061C62.3941 85.4136 62.6399 85.3187 62.8848 85.2215C63.1298 85.1243 63.3737 85.0247 63.6167 84.9227C63.8597 84.8207 64.1017 84.7164 64.3427 84.6097C64.5836 84.5031 64.8236 84.3942 65.0624 84.2829C65.3013 84.1716 65.5391 84.058 65.7758 83.9421C66.0124 83.8262 66.2479 83.708 66.4823 83.5876C66.7167 83.4671 66.9499 83.3445 67.1819 83.2195C67.4139 83.0945 67.6447 82.9673 67.8742 82.838C68.1038 82.7085 68.3321 82.5769 68.5591 82.443C68.786 82.3092 69.0117 82.1732 69.2361 82.035C69.4605 81.8968 69.6835 81.7564 69.9051 81.6139C70.1268 81.4714 70.347 81.3267 70.5659 81.1799C70.7848 81.0331 71.0022 80.8843 71.2181 80.7333C71.4341 80.5823 71.6486 80.4292 71.8616 80.2741C72.0746 80.1189 72.2861 79.9618 72.4961 79.8026C72.7061 79.6433 72.9145 79.4821 73.1214 79.3188C73.3282 79.1556 73.5334 78.9903 73.7371 78.8231C73.9408 78.6558 74.1428 78.4867 74.3432 78.3155C74.5436 78.1444 74.7423 77.9713 74.9393 77.7964C75.1363 77.6214 75.3317 77.4445 75.5253 77.2657C75.7189 77.087 75.9108 76.9064 76.1009 76.7239C76.291 76.5414 76.4793 76.3571 76.6659 76.171C76.8524 75.9849 77.0372 75.797 77.2201 75.6073C77.403 75.4176 77.5841 75.2261 77.7633 75.0329C77.9885 74.7891 78.2106 74.5426 78.4297 74.2933C78.6488 74.0441 78.8648 73.7922 79.0777 73.5376C79.2907 73.283 79.5004 73.0259 79.707 72.7662C79.9136 72.5064 80.1169 72.2442 80.3171 71.9795C80.5172 71.7148 80.7141 71.4476 80.9077 71.1781C81.1013 70.9086 81.2915 70.6367 81.4784 70.3624C81.6653 70.0882 81.8488 69.8117 82.0289 69.5329C82.209 69.2542 82.3857 68.9733 82.5588 68.6902C82.732 68.4071 82.9017 68.1219 83.068 67.8346C83.2342 67.5474 83.3968 67.2582 83.5559 66.9669C83.715 66.6757 83.8704 66.3825 84.0223 66.0874C84.1742 65.7923 84.3224 65.4954 84.467 65.1967C84.6115 64.898 84.7524 64.5975 84.8897 64.2953C85.0269 63.9932 85.1603 63.6894 85.29 63.3839C85.4198 63.0784 85.5457 62.7714 85.6679 62.4629C85.7901 62.1543 85.9085 61.8443 86.023 61.5328C86.1376 61.2213 86.2483 60.9085 86.3551 60.5943C86.462 60.2802 86.565 59.9647 86.6642 59.648C86.7633 59.3313 86.8585 59.0134 86.9498 58.6943C87.0411 58.3753 87.1285 58.0552 87.2119 57.7339C87.2954 57.4127 87.3749 57.0906 87.4504 56.7674C87.5259 56.4442 87.5975 56.1202 87.665 55.7952C87.7325 55.4703 87.7961 55.1446 87.8557 54.8181C87.9152 54.4917 87.9708 54.1646 88.0223 53.8367C88.0738 53.5088 88.1213 53.1804 88.1647 52.8514C88.2082 52.5224 88.2476 52.1929 88.2829 51.8629C88.3183 51.5329 88.3495 51.2025 88.3768 50.8718C88.404 50.5411 88.4271 50.21 88.4463 49.8787C88.4653 49.5474 88.4803 49.2159 88.4912 48.8843C88.5022 48.5526 88.5091 48.2208 88.5118 47.8889C88.5146 47.5571 88.5133 47.2252 88.5079 46.8933C88.5026 46.5615 88.4932 46.2298 88.4797 45.8983C88.1689 38.6306 85.7141 30.962 81.4992 25.0089C80.8792 24.1331 80.2422 23.0988 79.4561 22.3662C79.2485 22.766 79.0124 23.1528 78.8101 23.5542C79.7197 24.7744 80.6211 25.9976 81.4195 27.2949C81.5991 27.589 81.7748 27.8854 81.9467 28.1842C82.1185 28.4829 82.2864 28.7839 82.4503 29.0871C82.6142 29.3902 82.7741 29.6954 82.93 30.0028C83.0859 30.3102 83.2377 30.6195 83.3855 30.9309C83.5332 31.2423 83.6769 31.5555 83.8164 31.8706C83.9559 32.1858 84.0912 32.5027 84.2224 32.8214C84.3536 33.1401 84.4805 33.4605 84.6033 33.7825C84.7261 34.1046 84.8446 34.4282 84.9588 34.7533C85.073 35.0784 85.183 35.405 85.2886 35.7331C85.3942 36.0611 85.4956 36.3905 85.5925 36.7212C85.6895 37.0519 85.7821 37.3839 85.8704 37.717C85.9587 38.0501 86.0425 38.3844 86.1219 38.7197C86.2014 39.0551 86.2764 39.3914 86.3471 39.7288C86.4176 40.0661 86.4838 40.4043 86.5455 40.7434C86.6072 41.0825 86.6645 41.4222 86.7172 41.7628C86.7701 42.1034 86.8184 42.4446 86.8621 42.7864C87.0411 44.2092 87.2064 45.6728 87.1954 47.1088C87.1985 47.4329 87.1976 47.7569 87.1927 48.0809C87.1877 48.405 87.1788 48.729 87.1659 49.0527C87.1529 49.3766 87.1359 49.7002 87.115 50.0236C87.094 50.347 87.069 50.6701 87.0401 50.9929C87.0111 51.3157 86.9781 51.6381 86.9411 51.9601C86.9041 52.2821 86.8632 52.6035 86.8183 52.9245C86.7733 53.2454 86.7244 53.5657 86.6715 53.8855C86.6186 54.2053 86.5618 54.5243 86.501 54.8426C86.4402 55.161 86.3755 55.4785 86.3068 55.7952C86.2382 56.112 86.1656 56.4278 86.0891 56.7427C86.0126 57.0577 85.9322 57.3716 85.8479 57.6846C85.7636 57.9975 85.6755 58.3093 85.5835 58.6201C85.4915 58.9308 85.3956 59.2404 85.2959 59.5488C85.1963 59.8571 85.0928 60.1642 84.9855 60.4701C84.8782 60.7759 84.7672 61.0803 84.6524 61.3834C84.5375 61.6864 84.4189 61.988 84.2966 62.2882C84.1743 62.5883 84.0483 62.8868 83.9185 63.1838C83.7888 63.4808 83.6555 63.7762 83.5184 64.0699C83.3814 64.3635 83.2408 64.6555 83.0965 64.9457C82.9522 65.2359 82.8043 65.5242 82.6529 65.8108C82.5015 66.0973 82.3465 66.382 82.188 66.6647C82.0296 66.9474 81.8676 67.228 81.7022 67.5067C81.5367 67.7854 81.3679 68.062 81.1956 68.3365C81.0233 68.611 80.8476 68.8833 80.6686 69.1534C80.4895 69.4236 80.3072 69.6915 80.1215 69.9571C79.9358 70.2227 79.7469 70.486 79.5547 70.747C79.3624 71.0079 79.167 71.2664 78.9684 71.5225C78.7698 71.7786 78.5681 72.0322 78.3632 72.2833C78.1583 72.5343 77.9503 72.7829 77.7392 73.0288C77.5281 73.2747 77.3141 73.518 77.097 73.7587C76.8799 73.9993 76.6598 74.2372 76.4368 74.4724C76.2139 74.7075 75.988 74.9399 75.7592 75.1695C75.5338 75.3958 75.3057 75.6193 75.0749 75.84C74.8441 76.0608 74.6106 76.2787 74.3745 76.4937C74.1383 76.7088 73.8996 76.9209 73.6583 77.1302C73.417 77.3394 73.1732 77.5457 72.9268 77.749C72.6805 77.9522 72.4318 78.1525 72.1806 78.3498C71.9294 78.5471 71.6758 78.7412 71.4199 78.9323C71.164 79.1234 70.9058 79.3113 70.6452 79.4962C70.3847 79.681 70.122 79.8625 69.8571 80.0409C69.5922 80.2193 69.3252 80.3945 69.056 80.5664C68.7868 80.7383 68.5156 80.9069 68.2423 81.0722C67.969 81.2375 67.6938 81.3994 67.4165 81.5581C67.1393 81.7166 66.8602 81.8718 66.5792 82.0236C66.2982 82.1754 66.0154 82.3238 65.7308 82.4687C65.4461 82.6136 65.1598 82.755 64.8718 82.893C64.5837 83.031 64.294 83.1654 64.0027 83.2962C63.7114 83.4271 63.4185 83.5545 63.124 83.6783C62.8296 83.8021 62.5337 83.9222 62.2364 84.0387C61.939 84.1553 61.6403 84.2682 61.3402 84.3775C61.0401 84.4868 60.7387 84.5924 60.436 84.6944C60.1333 84.7964 59.8294 84.8946 59.5244 84.9892C59.2193 85.0837 58.9131 85.1746 58.6059 85.2617C58.2986 85.3488 57.9903 85.4322 57.681 85.5118C57.3717 85.5914 57.0615 85.6672 56.7503 85.7393C56.4391 85.8113 56.1271 85.8796 55.8143 85.944C55.5015 86.0085 55.188 86.0691 54.8737 86.1259C54.5594 86.1827 54.2444 86.2357 53.9289 86.2849C53.6133 86.334 53.2972 86.3793 52.9804 86.4208C52.6638 86.4623 52.3467 86.4999 52.0291 86.5336C51.7115 86.5674 51.3935 86.5972 51.0752 86.6232C50.7568 86.6492 50.4382 86.6713 50.1194 86.6895C49.8005 86.7078 49.4815 86.7222 49.1623 86.7327C48.8431 86.7431 48.5238 86.7497 48.2044 86.7524C47.8836 86.7537 47.5629 86.751 47.2422 86.7444C46.9215 86.7377 46.601 86.7272 46.2805 86.7126C45.9602 86.6982 45.64 86.6797 45.32 86.6573C45 86.635 44.6804 86.6087 44.3611 86.5785C44.0417 86.5483 43.7228 86.5142 43.4044 86.4762C43.0859 86.4381 42.7679 86.3961 42.4504 86.3503C42.133 86.3044 41.8162 86.2547 41.4999 86.2011C41.1837 86.1475 40.8681 86.0899 40.5533 86.0285C40.2384 85.9672 39.9244 85.9019 39.6112 85.8329C39.298 85.7638 38.9857 85.6909 38.6742 85.6141C38.3628 85.5373 38.0524 85.4568 37.743 85.3724C37.4335 85.2881 37.1251 85.1999 36.8178 85.1079C36.5105 85.016 36.2044 84.9202 35.8995 84.8208C35.5946 84.7213 35.2909 84.6181 34.9884 84.5112C34.6861 84.4043 34.385 84.2937 34.0853 84.1794C33.7856 84.0651 33.4874 83.9471 33.1906 83.8254C32.8938 83.7038 32.5985 83.5786 32.3048 83.4497C32.0111 83.3208 31.719 83.1883 31.4285 83.0523C31.1381 82.9162 30.8493 82.7766 30.5623 82.6335C30.2753 82.4903 29.99 82.3437 29.7066 82.1935C29.4231 82.0434 29.1416 81.8898 28.862 81.7327C28.5823 81.5756 28.3046 81.4152 28.0288 81.2513C27.7531 81.0874 27.4794 80.9202 27.2078 80.7496C26.9362 80.579 26.6667 80.4051 26.3994 80.2279C26.132 80.0507 25.8669 79.8702 25.6039 79.6864C25.341 79.5027 25.0804 79.3158 24.8221 79.1257C24.5638 78.9356 24.3078 78.7423 24.0542 78.5459C23.8007 78.3495 23.5495 78.15 23.3008 77.9474C23.0521 77.7448 22.806 77.5393 22.5624 77.3306C22.3187 77.122 22.0777 76.9104 21.8392 76.6959C21.6008 76.4813 21.365 76.2639 21.1319 76.0436C20.8988 75.8233 20.6684 75.6001 20.4408 75.3741C20.2418 75.176 20.045 74.9759 19.8503 74.7736C19.6556 74.5713 19.4631 74.367 19.2727 74.1607C19.0823 73.9543 18.8942 73.7459 18.7082 73.5357C18.5222 73.3253 18.3385 73.113 18.157 72.8988C17.9755 72.6846 17.7964 72.4685 17.6195 72.2505C17.4426 72.0324 17.268 71.8126 17.0958 71.5908C16.9235 71.3692 16.7536 71.1457 16.5861 70.9204C16.4186 70.6951 16.2535 70.468 16.0908 70.2392C15.928 70.0104 15.7678 69.7799 15.6099 69.5477C15.4521 69.3155 15.2967 69.0817 15.1438 68.8462C14.9909 68.6108 14.8406 68.3737 14.6928 68.135C14.5449 67.8964 14.3995 67.6562 14.2567 67.4145C14.114 67.1727 13.9738 66.9295 13.8361 66.6848C13.6985 66.4401 13.5635 66.1939 13.431 65.9463C13.2986 65.6988 13.1688 65.4499 13.0417 65.1996C12.9145 64.9493 12.79 64.6976 12.6682 64.4447C12.5463 64.1917 12.4272 63.9375 12.3107 63.6821C12.1943 63.4266 12.0806 63.1699 11.9696 62.9121C11.8586 62.6542 11.7503 62.3951 11.6447 62.135C11.5392 61.8748 11.4364 61.6135 11.3364 61.3512C11.2364 61.0889 11.1392 60.8255 11.0447 60.5611C10.9503 60.2967 10.8587 60.0313 10.7699 59.765C10.6811 59.4987 10.5951 59.2314 10.5119 58.9633C10.4288 58.6951 10.3485 58.4261 10.271 58.1562C10.1936 57.8864 10.119 57.6157 10.0472 57.3443C9.97548 57.0729 9.90661 56.8007 9.84062 56.5279C9.77465 56.2549 9.71158 55.9813 9.65139 55.7071C9.59121 55.4329 9.53393 55.1581 9.47957 54.8826C9.4252 54.6072 9.37375 54.3312 9.32523 54.0547C9.2767 53.7782 9.23111 53.5012 9.18845 53.2236C9.14578 52.9461 9.10606 52.6682 9.06928 52.3899C9.0325 52.1116 8.99867 51.8329 8.96778 51.5538C8.84904 50.4443 8.73764 49.3179 8.7317 48.2009C8.72885 47.8803 8.72992 47.5597 8.73492 47.2391C8.73993 46.9185 8.74885 46.5981 8.76171 46.2778C8.77456 45.9574 8.79134 45.6373 8.81204 45.3174C8.83274 44.9975 8.85735 44.6778 8.88588 44.3585C8.91441 44.0392 8.94685 43.7202 8.9832 43.4016C9.01955 43.0831 9.05979 42.7651 9.10393 42.4475C9.14807 42.13 9.1961 41.813 9.24801 41.4966C9.29992 41.1803 9.35569 40.8646 9.41533 40.5496C9.47498 40.2346 9.53847 39.9204 9.60581 39.6069C9.67316 39.2935 9.74435 38.9809 9.81937 38.6692C9.89433 38.3574 9.97313 38.0467 10.0558 37.7369C10.1384 37.4271 10.2248 37.1185 10.315 36.8108C10.4051 36.5031 10.4991 36.1966 10.5968 35.8913C10.6945 35.5859 10.7959 35.2818 10.901 34.9789C11.0062 34.676 11.115 34.3745 11.2276 34.0743C11.3401 33.7741 11.4563 33.4753 11.5761 33.178C11.696 32.8806 11.8195 32.5848 11.9466 32.2904C12.0737 31.9961 12.2045 31.7034 12.3387 31.4122C12.473 31.1211 12.6108 30.8317 12.7522 30.5439C12.8935 30.2562 13.0384 29.9702 13.1868 29.686C13.3351 29.4018 13.487 29.1195 13.6423 28.839C13.7976 28.5585 13.9563 28.28 14.1185 28.0034C14.2806 27.7268 14.4461 27.4522 14.6149 27.1796C14.7838 26.9071 14.9559 26.6367 15.1314 26.3684C15.3069 26.1001 15.4857 25.834 15.6676 25.57C15.8496 25.3061 16.0349 25.0445 16.2232 24.7851C16.4117 24.5257 16.6033 24.2686 16.798 24.0138C16.9927 23.7591 17.1905 23.5069 17.3914 23.2571C17.5922 23.0072 17.7962 22.7598 18.0031 22.515C18.2101 22.2701 18.4201 22.0278 18.6329 21.7881C18.8458 21.5484 19.0616 21.3113 19.2803 21.0769C19.499 20.8425 19.7206 20.6108 19.9449 20.3818C27.5189 12.7459 37.1535 8.52174 47.9536 8.46659C48.1753 8.46695 48.397 8.46918 48.6187 8.47329C48.8404 8.47739 49.062 8.48338 49.2836 8.49124C49.5052 8.49909 49.7266 8.50882 49.9481 8.52043C50.1695 8.53204 50.3908 8.54551 50.6119 8.56086C50.8331 8.57621 51.0542 8.59343 51.2751 8.61252C51.496 8.63161 51.7167 8.65256 51.9372 8.67539C52.1578 8.69821 52.3781 8.7229 52.5982 8.74945C52.8183 8.776 53.0382 8.80442 53.2578 8.83468C53.4775 8.86495 53.6968 8.89708 53.916 8.93107C54.135 8.96505 54.3538 9.00088 54.5723 9.03856C54.7908 9.07625 55.0089 9.11578 55.2268 9.15715C55.4446 9.19852 55.6621 9.24174 55.8792 9.2868C56.0962 9.33185 56.3129 9.37873 56.5292 9.42744C56.7455 9.47618 56.9614 9.52674 57.1769 9.57913C57.3923 9.63145 57.6072 9.68563 57.8217 9.74166C58.0363 9.7977 58.2504 9.85553 58.4639 9.91515C58.6774 9.97477 58.8904 10.0362 59.1029 10.0994C59.3154 10.1627 59.5274 10.2277 59.7388 10.2945C59.9502 10.3613 60.161 10.4299 60.3713 10.5003C60.5816 10.5707 60.7912 10.6428 61.0003 10.7168C61.2092 10.7907 61.4176 10.8664 61.6254 10.9439C61.8331 11.0214 62.0402 11.1005 62.2466 11.1815C62.453 11.2625 62.6587 11.3452 62.8637 11.4296C63.0687 11.5141 63.273 11.6003 63.4766 11.6881C63.6801 11.776 63.8829 11.8657 64.0849 11.957C64.2869 12.0483 64.4882 12.1413 64.6886 12.2361C64.8891 12.3308 65.0887 12.4272 65.2876 12.5253C65.4864 12.6235 65.6843 12.7233 65.8815 12.8247C66.0786 12.9262 66.2749 13.0293 66.4703 13.1341C66.6657 13.2389 66.8602 13.3453 67.0538 13.4533C67.2474 13.5615 67.4401 13.6712 67.6318 13.7825C67.8235 13.8938 68.0143 14.0068 68.2041 14.1213C69.1882 14.7198 70.1775 15.3475 71.107 16.0276C71.7432 16.4932 72.3421 17.0092 72.9792 17.4728C73.4815 17.3118 73.9859 17.1724 74.4962 17.0393C73.7022 16.3893 72.9147 15.7265 72.0886 15.1174C70.2346 13.7503 68.1926 12.5091 66.1446 11.4584C60.5096 8.56751 53.0658 6.85625 46.726 7.17846ZM46.2035 9.63627C44.6476 9.73016 43.1134 9.86543 41.5759 10.1322C41.313 10.178 41.0507 10.2265 40.7888 10.2777C40.5269 10.329 40.2656 10.383 40.0049 10.4397C39.7441 10.4964 39.484 10.5558 39.2246 10.618C38.965 10.6802 38.7062 10.7451 38.448 10.8127C38.19 10.8803 37.9326 10.9506 37.6759 11.0236C37.4193 11.0967 37.1634 11.1724 36.9084 11.2507C36.6533 11.3291 36.3991 11.4101 36.1457 11.4939C35.8924 11.5776 35.6399 11.6639 35.3883 11.7529C35.1367 11.8419 34.8862 11.9335 34.6365 12.0278C34.3869 12.1221 34.1383 12.219 33.8906 12.3184C33.6431 12.4179 33.3965 12.52 33.1511 12.6246C32.9056 12.7292 32.6613 12.8365 32.4181 12.9462C32.1749 13.056 31.9328 13.1683 31.692 13.2832C31.4512 13.3981 31.2115 13.5154 30.9731 13.6353C30.7347 13.7552 30.4976 13.8776 30.2618 14.0024C30.026 14.1273 29.7915 14.2546 29.5583 14.3843C29.3251 14.5141 29.0934 14.6463 28.8631 14.7809C28.6327 14.9156 28.4037 15.0526 28.1762 15.1921C27.9487 15.3315 27.7227 15.4733 27.4982 15.6175C27.2736 15.7616 27.0506 15.9082 26.8292 16.057C26.6077 16.2059 26.3878 16.3571 26.1696 16.5105C25.9513 16.664 25.7346 16.8198 25.5196 16.9777C25.3046 17.1357 25.0912 17.296 24.8796 17.4585C24.6679 17.621 24.458 17.7857 24.2498 17.9526C24.0416 18.1194 23.8351 18.2885 23.6305 18.4598C23.4258 18.631 23.223 18.8043 23.022 18.9798C22.8209 19.1553 22.6218 19.3329 22.4245 19.5125C22.2272 19.6921 22.0318 19.8739 21.8384 20.0576C21.6448 20.2414 21.4533 20.4271 21.2637 20.6149C21.0742 20.8027 20.8866 20.9924 20.701 21.1842C20.5153 21.3759 20.3318 21.5695 20.1502 21.765C19.9687 21.9606 19.7892 22.158 19.6118 22.3574C19.4037 22.5886 19.1985 22.8224 18.9961 23.0587C18.7938 23.2951 18.5943 23.5338 18.3979 23.775C18.2014 24.0163 18.0079 24.2599 17.8174 24.5059C17.6269 24.7519 17.4394 25.0001 17.2551 25.2507C17.0706 25.5013 16.8893 25.7541 16.7111 26.0091C16.533 26.2642 16.3579 26.5214 16.186 26.7807C16.0142 27.04 15.8455 27.3015 15.6801 27.5649C15.5146 27.8284 15.3524 28.0939 15.1935 28.3613C15.0346 28.6288 14.879 28.8982 14.7266 29.1694C14.5743 29.4407 14.4254 29.7138 14.2798 29.9888C14.1342 30.2637 13.992 30.5404 13.8532 30.8189C13.7144 31.0973 13.579 31.3774 13.4471 31.6592C13.3152 31.941 13.1867 32.2243 13.0618 32.5092C12.9369 32.7941 12.8154 33.0806 12.6975 33.3685C12.5796 33.6564 12.4652 33.9457 12.3544 34.2364C12.2436 34.5271 12.1364 34.8192 12.0328 35.1125C11.9291 35.4059 11.8291 35.7004 11.7326 35.9963C11.6363 36.292 11.5435 36.589 11.4544 36.8871C11.3653 37.1851 11.2799 37.4843 11.1982 37.7845C11.1164 38.0846 11.0384 38.3858 10.964 38.6879C10.8896 38.99 10.819 39.2929 10.7521 39.5968C10.6852 39.9007 10.622 40.2053 10.5626 40.5106C10.5031 40.816 10.4475 41.1221 10.3956 41.4289C10.3436 41.7357 10.2955 42.043 10.2511 42.3509C10.2068 42.6588 10.1663 42.9673 10.1295 43.2762C10.0927 43.5851 10.0597 43.8945 10.0305 44.2043C10.0013 44.514 9.97597 44.8241 9.95445 45.1345C9.93286 45.4448 9.91511 45.7554 9.9012 46.0662C9.88728 46.377 9.87717 46.688 9.87086 46.999C9.86455 47.3101 9.86208 47.6211 9.86344 47.9322C9.8648 48.2433 9.86999 48.5544 9.87902 48.8654C9.88799 49.1764 9.90079 49.4872 9.91743 49.7979C9.93803 50.1113 9.96246 50.4244 9.99072 50.7371C10.019 51.0499 10.0512 51.3623 10.0871 51.6742C10.123 51.9862 10.1628 52.2977 10.2063 52.6087C10.2499 52.9197 10.2972 53.2301 10.3485 53.54C10.3996 53.8498 10.4546 54.159 10.5133 54.4675C10.5721 54.776 10.6346 55.0837 10.7009 55.3907C10.7671 55.6976 10.8372 56.0037 10.911 56.309C10.9848 56.6142 11.0623 56.9185 11.1435 57.2219C11.2248 57.5253 11.3097 57.8276 11.3984 58.1289C11.487 58.4301 11.5793 58.7302 11.6754 59.0292C11.7714 59.3283 11.871 59.6261 11.9743 59.9226C12.0776 60.2192 12.1845 60.5144 12.295 60.8083C12.4056 61.1023 12.5198 61.3949 12.6375 61.6861C12.7552 61.9772 12.8764 62.2668 13.0012 62.555C13.126 62.8432 13.2543 63.1298 13.3861 63.4148C13.5179 63.6999 13.6532 63.9833 13.792 64.265C13.9308 64.5467 14.073 64.8267 14.2186 65.1049C14.3642 65.3831 14.5133 65.6596 14.6657 65.9342C14.8181 66.2087 14.9738 66.4814 15.1329 66.7521C15.292 67.0229 15.4543 67.2917 15.6199 67.5585C15.7856 67.8253 15.9545 68.09 16.1267 68.3527C16.2989 68.6153 16.4742 68.8759 16.6527 69.1342C16.8312 69.3925 17.0129 69.6487 17.1977 69.9025C17.3825 70.1565 17.5704 70.4081 17.7614 70.6573C17.9524 70.9067 18.1464 71.1536 18.3434 71.3982C18.5404 71.6427 18.7404 71.8848 18.9434 72.1245C19.1463 72.3641 19.3522 72.6013 19.561 72.8359C19.7698 73.0704 19.9814 73.3024 20.1958 73.5318C20.4102 73.7613 20.6275 73.9881 20.8475 74.2122C21.0675 74.4362 21.2902 74.6576 21.5157 74.8762C21.7411 75.0949 21.9692 75.3107 22.1999 75.5238C22.4306 75.7369 22.6639 75.947 22.8998 76.1544C23.1309 76.3576 23.3644 76.558 23.6004 76.7556C23.8364 76.9532 24.0748 77.1478 24.3155 77.3396C24.5562 77.5314 24.7992 77.7203 25.0445 77.9062C25.2898 78.0921 25.5373 78.2749 25.7871 78.4549C26.0368 78.6347 26.2886 78.8116 26.5427 78.9853C26.7967 79.1591 27.0528 79.3298 27.311 79.4974C27.5691 79.6649 27.8293 79.8293 28.0915 79.9905C28.3536 80.1518 28.6177 80.3098 28.8837 80.4647C29.1497 80.6195 29.4175 80.7711 29.6872 80.9195C29.9568 81.0678 30.2283 81.2128 30.5014 81.3546C30.7746 81.4964 31.0495 81.6348 31.3261 81.7698C31.6026 81.9049 31.8808 82.0366 32.1605 82.165C32.4403 82.2933 32.7215 82.4182 33.0043 82.5397C33.2871 82.6612 33.5713 82.7793 33.857 82.8939C34.1426 83.0085 34.4296 83.1196 34.7179 83.2272C35.0062 83.3349 35.2959 83.439 35.5867 83.5396C35.8776 83.6402 36.1697 83.7373 36.4629 83.8308C36.7561 83.9243 37.0504 84.0143 37.3458 84.1007C37.6412 84.1871 37.9376 84.2699 38.235 84.349C38.5325 84.4283 38.8308 84.5039 39.13 84.5758C39.4293 84.6477 39.7294 84.716 40.0303 84.7807C40.3312 84.8454 40.6328 84.9063 40.9352 84.9637C41.2376 85.0211 41.5406 85.0747 41.8443 85.1247C42.148 85.1747 42.4523 85.221 42.7571 85.2636C43.0619 85.3062 43.3672 85.3451 43.673 85.3803C43.9787 85.4155 44.2849 85.447 44.5914 85.4748C44.8979 85.5025 45.2047 85.5266 45.5118 85.5469C45.8189 85.5672 46.1262 85.5838 46.4337 85.5967C46.7412 85.6095 47.0489 85.6187 47.3566 85.6241C47.6643 85.6295 47.972 85.6312 48.2798 85.6291C48.5876 85.627 48.8953 85.6212 49.2029 85.6117C49.5105 85.6022 49.818 85.5889 50.1253 85.5719C50.3739 85.5575 50.6223 85.5408 50.8706 85.5216C51.1188 85.5024 51.3668 85.4807 51.6146 85.4567C51.8625 85.4326 52.1101 85.4061 52.3574 85.3773C52.6047 85.3483 52.8517 85.3169 53.0984 85.2832C53.345 85.2495 53.5913 85.2133 53.8373 85.1747C54.0833 85.1362 54.3289 85.0952 54.5741 85.0518C54.8193 85.0084 55.064 84.9627 55.3082 84.9145C55.5525 84.8663 55.7963 84.8158 56.0397 84.7628C56.2829 84.7099 56.5256 84.6545 56.7678 84.5968C57.0101 84.5392 57.2517 84.4791 57.4928 84.4167C57.7338 84.3543 57.9742 84.2895 58.2139 84.2223C58.4537 84.1552 58.6928 84.0858 58.9312 84.0139C59.1696 83.9421 59.4072 83.868 59.6442 83.7915C59.8812 83.715 60.1174 83.6363 60.3528 83.5552C60.5882 83.4741 60.8228 83.3907 61.0566 83.305C61.2904 83.2193 61.5232 83.1314 61.7552 83.0411C61.9873 82.9508 62.2185 82.8583 62.4487 82.7635C62.679 82.6688 62.9083 82.5718 63.1366 82.4725C63.365 82.3732 63.5923 82.2718 63.8186 82.168C64.045 82.0643 64.2703 81.9584 64.4947 81.8503C64.7189 81.7422 64.9421 81.6319 65.1642 81.5194C65.3864 81.4069 65.6074 81.2922 65.8272 81.1754C66.0471 81.0585 66.2658 80.9396 66.4833 80.8185C66.7009 80.6974 66.9173 80.5741 67.1324 80.4488C67.3475 80.3234 67.5614 80.196 67.774 80.0665C67.9866 79.937 68.198 79.8053 68.4081 79.6717C68.6182 79.538 68.8269 79.4023 69.0343 79.2646C69.2417 79.1268 69.4477 78.987 69.6524 78.8453C69.8571 78.7034 70.0603 78.5597 70.2622 78.414C70.4641 78.2682 70.6645 78.1204 70.8635 77.9707C71.0624 77.821 71.2599 77.6694 71.4558 77.5158C71.6518 77.3622 71.8463 77.2068 72.0393 77.0494C73.8489 75.5632 75.5319 73.8674 77.0815 72.1141C77.8586 71.2348 78.5448 70.2822 79.2243 69.3268C79.3784 69.1099 79.5301 68.8913 79.6794 68.6712C79.8288 68.451 79.9758 68.2292 80.1204 68.0059C80.2651 67.7826 80.4073 67.5578 80.5471 67.3314C80.6868 67.1051 80.8242 66.8772 80.9592 66.6479C81.094 66.4185 81.2265 66.1878 81.3565 65.9557C81.4864 65.7235 81.6139 65.49 81.7389 65.2552C81.8638 65.0203 81.9863 64.784 82.1062 64.5466C82.2261 64.3091 82.3435 64.0703 82.4583 63.8302C82.5731 63.5902 82.6853 63.349 82.7949 63.1066C82.9045 62.8642 83.0115 62.6206 83.1159 62.3758C83.2203 62.1312 83.322 61.8854 83.4212 61.6385C83.5203 61.3916 83.6168 61.1436 83.7106 60.8946C83.8045 60.6457 83.8956 60.3957 83.984 60.1448C84.0725 59.8939 84.1583 59.6421 84.2414 59.3893C84.3244 59.1366 84.4048 58.8829 84.4824 58.6284C84.56 58.3739 84.6349 58.1186 84.7071 57.8626C84.7792 57.6065 84.8486 57.3497 84.9153 57.0921C84.982 56.8345 85.0459 56.5763 85.107 56.3174C85.1681 56.0584 85.2264 55.7988 85.282 55.5386C85.3376 55.2784 85.3903 55.0177 85.4403 54.7564C85.4903 54.495 85.5374 54.2332 85.5818 53.9708C85.6261 53.7085 85.6677 53.4458 85.7065 53.1825C85.7452 52.9193 85.7811 52.6557 85.8142 52.3918C85.8472 52.1277 85.8774 51.8634 85.9049 51.5987C85.9323 51.3341 85.9569 51.0692 85.9786 50.804C86.0003 50.5389 86.0192 50.2735 86.0353 50.0079C86.0513 49.7424 86.0645 49.4767 86.0749 49.2108C86.0853 48.9449 86.0928 48.679 86.0974 48.413C86.1021 48.147 86.1039 47.8809 86.1029 47.6148C86.1018 47.3488 86.0979 47.0828 86.0912 46.8168C86.0845 46.5509 86.0748 46.285 86.0623 46.0192C86.0499 45.7535 86.0346 45.4879 86.0165 45.2224C85.5601 37.9915 82.8321 30.2452 78.2083 24.6136L77.9627 25.1017C83.2256 32.1494 85.8427 40.1929 85.5628 48.9897C85.5519 49.2973 85.5371 49.6047 85.5185 49.9119C85.4999 50.2191 85.4776 50.5259 85.4513 50.8326C85.4252 51.1392 85.3952 51.4455 85.3614 51.7514C85.3275 52.0573 85.2899 52.3627 85.2484 52.6677C85.207 52.9726 85.1618 53.277 85.1128 53.5808C85.0638 53.8846 85.0111 54.1878 84.9545 54.4904C84.8979 54.7929 84.8376 55.0946 84.7735 55.3957C84.7095 55.6967 84.6417 55.9968 84.5702 56.2961C84.4987 56.5955 84.4234 56.8939 84.3445 57.1913C84.2655 57.4887 84.1829 57.7852 84.0966 58.0806C84.0102 58.376 83.9202 58.6703 83.8266 58.9634C83.733 59.2565 83.6357 59.5485 83.5347 59.8392C83.4338 60.13 83.3293 60.4194 83.2212 60.7076C83.113 60.9957 83.0013 61.2824 82.8861 61.5678C82.7708 61.8532 82.6521 62.137 82.5297 62.4194C82.4074 62.7018 82.2815 62.9827 82.1522 63.2619C82.0229 63.5412 81.8901 63.8188 81.7539 64.0947C81.6177 64.3707 81.478 64.645 81.335 64.9175C81.1919 65.1899 81.0455 65.4606 80.8958 65.7294C80.746 65.9983 80.5929 66.2652 80.4365 66.5302C80.2801 66.7953 80.1204 67.0583 79.9574 67.3194C79.7944 67.5804 79.6282 67.8394 79.4587 68.0963C79.2893 68.3533 79.1167 68.6081 78.941 68.8607C78.7652 69.1133 78.5863 69.3637 78.4044 69.6119C78.2223 69.86 78.0373 70.1059 77.8492 70.3495C77.6611 70.5931 77.47 70.8343 77.2759 71.0731C77.0818 71.3119 76.8847 71.5482 76.6847 71.7821C76.4847 72.0161 76.2818 72.2474 76.0761 72.4763C75.8703 72.7052 75.6618 72.9314 75.4504 73.1551C75.239 73.3787 75.0248 73.5998 74.808 73.8181C74.5911 74.0365 74.3715 74.2521 74.1493 74.465C73.927 74.6778 73.7021 74.8879 73.4747 75.0952C73.2505 75.3034 73.0239 75.5088 72.7947 75.7115C72.5656 75.9141 72.334 76.1139 72.0999 76.3109C71.8659 76.5079 71.6295 76.7019 71.3906 76.8931C71.1518 77.0843 70.9107 77.2725 70.6673 77.4577C70.4239 77.643 70.1782 77.8253 69.9303 78.0045C69.6825 78.1838 69.4325 78.3601 69.1803 78.5332C68.928 78.7063 68.6738 78.8763 68.4174 79.0432C68.161 79.2102 67.9027 79.3739 67.6424 79.5345C67.382 79.695 67.1197 79.8524 66.8555 80.0065C66.5912 80.1607 66.3251 80.3116 66.0572 80.4592C65.7893 80.6069 65.5196 80.7512 65.2482 80.8922C64.9767 81.0332 64.7035 81.1709 64.4287 81.3052C64.1539 81.4396 63.8775 81.5705 63.5994 81.6981C63.3214 81.8257 63.0418 81.9498 62.7607 82.0705C62.4797 82.1913 62.1972 82.3085 61.9131 82.4223C61.6292 82.5361 61.3439 82.6464 61.0573 82.7533C60.7706 82.8601 60.4827 82.9633 60.1935 83.0631C59.9043 83.1629 59.614 83.2591 59.3224 83.3517C59.0309 83.4444 58.7382 83.5334 58.4445 83.6189C58.1508 83.7044 57.8561 83.7862 57.5604 83.8645C57.2646 83.9427 56.968 84.0173 56.6704 84.0883C56.3729 84.1594 56.0745 84.2267 55.7753 84.2904C55.4761 84.354 55.1762 84.414 54.8755 84.4704C54.5748 84.5267 54.2735 84.5794 53.9715 84.6284C53.6696 84.6773 53.3671 84.7225 53.064 84.7641C52.761 84.8057 52.4574 84.8435 52.1534 84.8776C51.8494 84.9117 51.545 84.9421 51.2403 84.9687C50.9356 84.9953 50.6306 85.0183 50.3253 85.0375C50.0199 85.0567 49.7144 85.0721 49.4088 85.0838C49.103 85.0955 48.7973 85.1034 48.4914 85.1077C48.1855 85.1119 47.8796 85.1123 47.5738 85.109C47.2679 85.1058 46.9621 85.0987 46.6564 85.088C46.3445 85.0769 46.0327 85.062 45.7212 85.0431C45.4097 85.0243 45.0984 85.0016 44.7874 84.975C44.4765 84.9484 44.1659 84.9179 43.8556 84.8836C43.5455 84.8492 43.2357 84.811 42.9265 84.7689C42.6172 84.7269 42.3085 84.681 42.0004 84.6312C41.6923 84.5814 41.3849 84.5278 41.0781 84.4704C40.7713 84.4129 40.4653 84.3517 40.1601 84.2866C39.8548 84.2215 39.5504 84.1527 39.2469 84.0801C38.9434 84.0074 38.6408 83.931 38.3391 83.8508C38.0376 83.7705 37.737 83.6866 37.4375 83.5989C37.1379 83.5112 36.8395 83.4198 36.5423 83.3246C36.245 83.2295 35.949 83.1306 35.6543 83.0281C35.3594 82.9256 35.066 82.8194 34.7738 82.7095C34.4817 82.5997 34.191 82.4862 33.9017 82.3692C33.6124 82.252 33.3246 82.1313 33.0383 82.0071C32.752 81.8828 32.4673 81.755 32.1842 81.6236C31.9011 81.4923 31.6197 81.3574 31.3399 81.219C31.0602 81.0805 30.7822 80.9387 30.506 80.7934C30.2298 80.6481 29.9554 80.4993 29.6829 80.3472C29.4105 80.195 29.1399 80.0394 28.8713 79.8805C28.6026 79.7216 28.3361 79.5593 28.0715 79.3938C27.8069 79.2283 27.5445 79.0594 27.2842 78.8873C27.0238 78.7152 26.7656 78.5398 26.5096 78.3613C26.2536 78.1827 25.9999 78.001 25.7485 77.8161C25.497 77.6313 25.2479 77.4433 25.0011 77.2522C24.7543 77.0611 24.51 76.867 24.2681 76.6697C24.0261 76.4725 23.7867 76.2724 23.5498 76.0693C23.3129 75.8661 23.0785 75.66 22.8467 75.451C22.6149 75.242 22.3857 75.0301 22.1593 74.8155C21.9328 74.6007 21.709 74.3832 21.4879 74.1629C21.2668 73.9426 21.0485 73.7196 20.833 73.4939C20.6175 73.2682 20.4048 73.0397 20.195 72.8087C19.9905 72.5847 19.7888 72.3583 19.5898 72.1295C19.3908 71.9006 19.1947 71.6694 19.0012 71.4357C18.8079 71.2021 18.6174 70.9662 18.4298 70.7281C18.2421 70.4898 18.0574 70.2493 17.8755 70.0066C17.6938 69.7639 17.5149 69.519 17.339 69.272C17.1631 69.0249 16.9903 68.7758 16.8204 68.5245C16.6506 68.2733 16.4838 68.02 16.3202 67.7648C16.1565 67.5095 15.9959 67.2522 15.8384 66.9931C15.681 66.7339 15.5267 66.4728 15.3756 66.2099C15.2245 65.947 15.0766 65.6823 14.9318 65.4157C14.7872 65.1492 14.6458 64.881 14.5076 64.611C14.3694 64.3411 14.2344 64.0695 14.1028 63.7963C13.9712 63.5231 13.8429 63.2483 13.718 62.972C13.5931 62.6957 13.4715 62.4179 13.3533 62.1386C13.2351 61.8594 13.1203 61.5787 13.0089 61.2966C12.8975 61.0146 12.7896 60.7312 12.685 60.4465C12.5805 60.1619 12.4795 59.876 12.3819 59.5888C12.2843 59.3017 12.1902 59.0135 12.0996 58.7241C12.0089 58.4346 11.9219 58.1442 11.8383 57.8527C11.7547 57.5611 11.6747 57.2686 11.5983 56.9752C11.5219 56.6817 11.449 56.3874 11.3796 56.0921C11.3103 55.7969 11.2446 55.5009 11.1825 55.2041C11.1203 54.9073 11.0618 54.6097 11.0069 54.3115C10.9519 54.0132 10.9006 53.7143 10.853 53.4149C10.8053 53.1154 10.7612 52.8154 10.7208 52.5149C10.6805 52.2143 10.6437 51.9133 10.6106 51.6118C10.5775 51.3104 10.5481 51.0086 10.5223 50.7064C10.4965 50.4042 10.4744 50.1018 10.456 49.7991C10.4376 49.4964 10.4228 49.1935 10.4116 48.8905C10.4006 48.5874 10.3931 48.2843 10.3894 47.9811C10.3857 47.6779 10.3856 47.3746 10.3892 47.0714C10.3928 46.7681 10.4001 46.465 10.4111 46.1619C10.4239 45.8511 10.4407 45.5404 10.4613 45.23C10.4819 44.9196 10.5063 44.6095 10.5347 44.2997C10.563 43.9899 10.5952 43.6805 10.6312 43.3715C10.6672 43.0625 10.7071 42.754 10.7508 42.446C10.7945 42.138 10.8421 41.8305 10.8935 41.5237C10.9448 41.2169 11 40.9107 11.059 40.6053C11.118 40.2998 11.1808 39.9951 11.2474 39.6912C11.314 39.3873 11.3843 39.0843 11.4585 38.7822C11.5326 38.48 11.6105 38.1789 11.6921 37.8786C11.7737 37.5784 11.8591 37.2793 11.9482 36.9812C12.0373 36.6832 12.1301 36.3863 12.2266 36.0904C12.323 35.7947 12.4232 35.5002 12.527 35.207C12.6308 34.9137 12.7383 34.6217 12.8494 34.3312C12.9604 34.0405 13.0751 33.7514 13.1934 33.4636C13.3117 33.1759 13.4335 32.8897 13.5589 32.6049C13.6843 32.3202 13.8133 32.0372 13.9457 31.7557C14.0782 31.4742 14.2142 31.1944 14.3536 30.9163C14.493 30.6382 14.6359 30.3619 14.7822 30.0873C14.9285 29.8128 15.0782 29.5401 15.2313 29.2693C15.3844 28.9984 15.5409 28.7295 15.7007 28.4626C15.8605 28.1957 16.0236 27.9309 16.19 27.668C16.3564 27.4051 16.5261 27.1444 16.699 26.8857C16.8719 26.6271 17.0479 26.3706 17.2272 26.1164C17.4065 25.8622 17.5889 25.6102 17.7745 25.3604C17.9601 25.1108 18.1487 24.8634 18.3403 24.6183C18.5321 24.3734 18.7268 24.1308 18.9246 23.8906C19.1224 23.6505 19.323 23.4128 19.5267 23.1777C19.7304 22.9425 19.937 22.7099 20.1464 22.4799C20.3559 22.2499 20.5682 22.0225 20.7833 21.7978C20.9985 21.5731 21.2164 21.3511 21.437 21.1317C21.6577 20.9124 21.8811 20.6959 22.1071 20.4821C22.3332 20.2684 22.5619 20.0576 22.7932 19.8495C30.3359 12.9525 40.0335 9.67255 50.2034 10.138C55.8841 10.3979 61.9404 12.2905 66.8441 15.1556C67.7378 15.6755 68.6107 16.2282 69.4629 16.8137C70.0239 17.2052 70.5627 17.6457 71.1432 18.0059C71.3256 17.9629 71.5109 17.9246 71.6903 17.8705C69.9362 16.4856 68.0662 15.1965 66.0927 14.1417C60.7148 11.2676 54.3702 9.59369 48.2703 9.60241C47.5898 9.60343 46.8817 9.57857 46.2035 9.63627ZM85.2226 15.8009C83.9705 16.0252 82.714 16.2267 81.468 16.4839C76.7629 17.4548 72.0801 18.8214 67.7096 20.8343C66.8903 21.2116 65.8153 21.6221 65.0976 22.1496C64.2728 22.7556 63.5613 23.7877 62.9818 24.6208C61.9966 26.0367 61.1782 27.4403 60.7317 29.1283C60.5283 29.8968 60.4285 30.7017 60.1863 31.4569C60.236 28.5427 61.2628 25.1931 63.3508 23.0907C61.9941 23.7654 60.6947 24.7277 59.4732 25.6223C54.0067 29.6251 50.1886 34.3828 48.0207 40.8428C46.2165 46.2189 46.3437 52.4338 48.8905 57.5582C49.2646 58.3108 49.7057 59.061 50.178 59.7557C50.9936 56.5137 51.7229 53.2562 52.7696 50.0757C53.1371 48.9279 53.535 47.7907 53.9633 46.6643C54.3917 45.5378 54.8498 44.4236 55.3378 43.3217C55.8258 42.2197 56.3429 41.1316 56.8891 40.0572C57.4353 38.983 58.0099 37.9241 58.6128 36.8806C58.8211 36.5232 59.0341 36.1685 59.2517 35.8167C59.4692 35.4649 59.6914 35.1159 59.9181 34.7699C60.1448 34.4239 60.376 34.0808 60.6117 33.7409C60.8474 33.4009 61.0875 33.064 61.332 32.7303C61.5765 32.3966 61.8253 32.0662 62.0785 31.739C62.3316 31.4117 62.589 31.0879 62.8505 30.7675C63.1121 30.447 63.3779 30.13 63.6478 29.8164C63.9177 29.5029 64.1917 29.193 64.4697 28.8867C64.7477 28.5803 65.0297 28.2777 65.3156 27.9787C65.6015 27.6797 65.8913 27.3845 66.185 27.0932C66.4786 26.8017 66.776 26.5142 67.0772 26.2307C67.3783 25.947 67.6832 25.6674 67.9917 25.3917C68.3001 25.1161 68.6121 24.8446 68.9277 24.5771C69.2433 24.3096 69.5623 24.0462 69.8848 23.7871C70.2073 23.528 70.5331 23.2732 70.8623 23.0226C71.1914 22.7719 71.5237 22.5256 71.8593 22.2837C72.576 21.777 73.2885 21.2692 74.0434 20.8201C74.606 20.4853 76.7183 19.2709 77.234 19.3422L77.2834 19.4012C77.2319 19.742 76.7758 20.1185 76.5029 20.318C75.712 20.8963 74.8387 21.3881 74.0287 21.9445C72.3665 23.0865 70.7274 24.3398 69.1815 25.6343C62.888 30.9045 58.2006 38.5344 55.255 46.1346C54.4401 48.1404 53.7845 50.2468 53.1867 52.3266C51.3173 58.8306 50.1208 65.5956 50.2505 72.381C50.2901 74.453 50.4388 76.5559 50.9333 78.5738C51.4251 77.7393 51.9928 76.9701 52.4982 76.1505C51.7321 74.1053 51.7914 71.7136 51.8373 69.5634C51.8667 68.6025 51.9149 67.6425 51.9819 66.6835C52.0489 65.7245 52.1346 64.7671 52.2391 63.8114C52.3435 62.8558 52.4666 61.9025 52.6083 60.9517C52.75 60.0008 52.9103 59.0531 53.089 58.1085C53.2678 57.1639 53.465 56.2232 53.6806 55.2864C53.8962 54.3495 54.1299 53.4172 54.382 52.4894C54.634 51.5617 54.9041 50.6393 55.1923 49.7221C55.4804 48.8049 55.7863 47.8938 56.1101 46.9885C56.6814 45.3664 57.2844 43.7211 57.9968 42.155C59.327 39.2308 60.7115 36.4818 62.4824 33.7941C63.3941 32.4105 64.4276 30.9696 65.6836 29.8749C63.9759 32.3258 62.5503 34.9368 61.2665 37.6312C58.681 43.0578 56.9268 48.4113 55.2865 54.1769C54.7517 56.0322 54.304 57.9084 53.9434 59.8053C53.8065 60.5129 53.6223 61.2633 53.5954 61.9845C60.8363 59.5284 66.9556 53.9708 70.331 47.1327C71.7241 44.3104 72.7122 41.2552 73.4003 38.1861C74.5751 32.9463 75.0813 27.3841 77.9295 22.6984C78.0284 22.5391 78.1297 22.3812 78.2333 22.2248C78.3368 22.0684 78.4426 21.9135 78.5508 21.7602C78.6588 21.6069 78.7691 21.4551 78.8815 21.3049C78.994 21.1548 79.1086 21.0064 79.2254 20.8596C79.3422 20.7128 79.4611 20.5677 79.5821 20.4244C79.7032 20.2811 79.8262 20.1396 79.9514 19.9998C80.0765 19.86 80.2037 19.7221 80.3327 19.5861C80.462 19.4501 80.5931 19.3159 80.7261 19.1837C80.8591 19.0514 80.9941 18.9211 81.1309 18.7928C81.2677 18.6645 81.4063 18.5382 81.5469 18.4139C81.6874 18.2896 81.8297 18.1674 81.9737 18.0472C82.1178 17.9271 82.2635 17.8091 82.4111 17.6932C82.5586 17.5773 82.7077 17.4635 82.8585 17.352C83.0093 17.2404 83.1617 17.131 83.3157 17.0238C83.4696 16.9167 83.6251 16.8118 83.7822 16.7092C83.9392 16.6066 84.0977 16.5063 84.2576 16.4083C84.356 16.3469 85.2557 15.8332 85.2581 15.8015L85.2226 15.8009ZM20.8448 25.7033C20.7153 25.8623 20.5933 26.0268 20.4788 26.1969C20.3642 26.367 20.2577 26.5419 20.1591 26.7218C20.0605 26.9016 19.9703 27.0855 19.8884 27.2735C19.8067 27.4615 19.7336 27.6529 19.6692 27.8476C19.3452 28.8189 19.261 29.873 19.1157 30.8832C18.9967 31.7103 18.8378 32.5329 18.7498 33.3642C18.4025 36.6482 18.3996 40.7224 18.7582 44.0108C18.8163 44.5716 18.8881 45.1307 18.9736 45.688C19.0591 46.2454 19.1583 46.8002 19.271 47.3527C19.3837 47.9051 19.5099 48.4544 19.6496 49.0007C19.7893 49.5469 19.9423 50.0895 20.1086 50.6282C21.6009 55.3931 24.6814 61.0031 28.6348 64.1668C29.1583 64.5882 29.7029 64.9802 30.2687 65.3429C30.8344 65.7057 31.418 66.037 32.0194 66.3368C33.3007 66.9748 34.6487 67.4293 35.9593 67.995C37.8019 68.7904 39.5964 69.9693 40.9815 71.4247C41.3141 71.7742 41.804 72.2031 42.0062 72.6445C42.3717 73.4426 42.7649 76.4748 42.9238 77.4745C43.1043 78.6104 43.3829 82.4928 43.94 83.2076C44.2693 83.6301 45.0222 83.881 45.4978 84.0946C45.8193 80.7319 45.11 76.6796 44.4381 73.3575C44.3161 72.7581 44.1827 72.1613 44.0378 71.567C43.9248 71.1032 43.7613 70.6116 43.741 70.1331C43.7145 69.5031 44.3253 68.132 44.5255 67.4755C44.7186 66.8424 44.8835 66.1876 45.032 65.5428C46.3495 59.8241 45.599 52.4225 41.75 47.7645C40.5845 46.3541 39.2216 45.015 37.6944 43.999C36.6179 43.2829 35.4692 42.7062 34.3245 42.1095C29.5772 39.6344 25.4796 37.9378 22.3882 33.2759C21.148 31.4056 20.4262 29.1981 20.6294 26.938C20.6621 26.5752 20.8935 26.0454 20.8448 25.7033Z" fill="#FEFEFE"/>
<path d="M79.4569 22.3661C80.243 23.0987 80.88 24.1331 81.5 25.0088C85.7149 30.9619 88.1696 38.6305 88.4804 45.8982C88.494 46.2297 88.5034 46.5614 88.5088 46.8933C88.5141 47.2251 88.5154 47.557 88.5126 47.8888C88.5098 48.2207 88.503 48.5525 88.492 48.8842C88.4811 49.2158 88.4661 49.5473 88.447 49.8786C88.4279 50.2099 88.4048 50.541 88.3776 50.8718C88.3503 51.2025 88.319 51.5328 88.2837 51.8629C88.2484 52.1928 88.209 52.5223 88.1655 52.8514C88.1221 53.1803 88.0746 53.5088 88.0231 53.8366C87.9715 54.1645 87.916 54.4916 87.8564 54.8181C87.7969 55.1446 87.7333 55.4703 87.6658 55.7951C87.5983 56.1201 87.5267 56.4442 87.4512 56.7673C87.3757 57.0905 87.2962 57.4127 87.2127 57.7338C87.1293 58.0551 87.0419 58.3752 86.9506 58.6942C86.8593 59.0133 86.7641 59.3312 86.665 59.6479C86.5658 59.9647 86.4628 60.2801 86.3559 60.5942C86.2491 60.9084 86.1383 61.2212 86.0238 61.5327C85.9093 61.8442 85.7909 62.1542 85.6687 62.4628C85.5465 62.7713 85.4206 63.0784 85.2908 63.3838C85.1611 63.6893 85.0277 63.9931 84.8905 64.2952C84.7532 64.5974 84.6123 64.8979 84.4678 65.1966C84.3232 65.4953 84.1749 65.7923 84.023 66.0873C83.8712 66.3824 83.7158 66.6756 83.5567 66.9668C83.3976 67.2581 83.235 67.5473 83.0688 67.8345C82.9025 68.1218 82.7328 68.407 82.5596 68.6901C82.3865 68.9732 82.2098 69.2541 82.0297 69.5328C81.8496 69.8116 81.6661 70.0881 81.4792 70.3623C81.2923 70.6365 81.102 70.9084 80.9085 71.178C80.7149 71.4475 80.518 71.7147 80.3179 71.9794C80.1177 72.2441 79.9144 72.5063 79.7078 72.7661C79.5012 73.0258 79.2914 73.2829 79.0785 73.5375C78.8656 73.7921 78.6496 74.044 78.4305 74.2932C78.2114 74.5425 77.9893 74.789 77.7641 75.0328C77.5849 75.226 77.4038 75.4175 77.2209 75.6072C77.0379 75.7969 76.8532 75.9848 76.6667 76.1709C76.4801 76.357 76.2918 76.5413 76.1017 76.7238C75.9116 76.9063 75.7197 77.0869 75.5261 77.2656C75.3325 77.4444 75.1371 77.6213 74.9401 77.7963C74.7431 77.9712 74.5444 78.1443 74.344 78.3154C74.1436 78.4866 73.9416 78.6558 73.7379 78.823C73.5342 78.9902 73.329 79.1555 73.1222 79.3187C72.9153 79.482 72.7068 79.6432 72.4969 79.8025C72.2869 79.9617 72.0754 80.1189 71.8624 80.274C71.6494 80.4292 71.4349 80.5822 71.2189 80.7332C71.0029 80.8842 70.7855 81.033 70.5667 81.1798C70.3478 81.3266 70.1276 81.4713 69.9059 81.6138C69.6843 81.7563 69.4613 81.8967 69.2369 82.0349C69.0125 82.1731 68.7868 82.3091 68.5598 82.4429C68.3329 82.5768 68.1046 82.7084 67.875 82.8379C67.6455 82.9672 67.4147 83.0944 67.1827 83.2194C66.9507 83.3444 66.7175 83.467 66.4831 83.5875C66.2487 83.708 66.0132 83.8261 65.7766 83.9421C65.5399 84.0579 65.3021 84.1715 65.0632 84.2828C64.8244 84.3941 64.5844 84.503 64.3435 84.6096C64.1025 84.7163 63.8605 84.8206 63.6175 84.9226C63.3745 85.0246 63.1306 85.1242 62.8856 85.2214C62.6407 85.3187 62.3949 85.4136 62.1481 85.506C61.9014 85.5985 61.6538 85.6886 61.4053 85.7763C61.1567 85.864 60.9074 85.9493 60.6573 86.0321C60.4071 86.115 60.1562 86.1955 59.9046 86.2735C59.6528 86.3515 59.4004 86.4271 59.1472 86.5003C58.894 86.5734 58.6402 86.644 58.3857 86.7123C58.1312 86.7805 57.876 86.8463 57.6201 86.9096C57.3643 86.9729 57.1079 87.0337 56.8509 87.092C56.5939 87.1503 56.3364 87.2062 56.0784 87.2595C54.9578 87.4734 53.8307 87.6438 52.697 87.7708C51.5633 87.8978 50.4264 87.9811 49.2863 88.0206C48.9581 88.0328 48.6298 88.041 48.3014 88.0452C47.973 88.0494 47.6446 88.0495 47.3162 88.0456C46.9878 88.0417 46.6595 88.0338 46.3312 88.0219C46.0031 88.0098 45.6751 87.9938 45.3473 87.9738C45.0195 87.9538 44.692 87.9298 44.3647 87.9017C44.0375 87.8736 43.7106 87.8414 43.3842 87.8053C43.0578 87.7692 42.7319 87.7291 42.4065 87.685C42.081 87.6408 41.7562 87.5927 41.4319 87.5405C41.1076 87.4885 40.784 87.4324 40.4612 87.3723C40.1383 87.3122 39.8162 87.2482 39.4949 87.1802C39.1736 87.1122 38.8531 87.0402 38.5336 86.9643C38.2141 86.8885 37.8955 86.8087 37.578 86.725C37.2604 86.6413 36.9439 86.5537 36.6284 86.4622C36.313 86.3708 35.9988 86.2754 35.6857 86.1761C35.3726 86.0769 35.0608 85.9739 34.7502 85.867C34.4397 85.7601 34.1305 85.6495 33.8227 85.535C33.5149 85.4205 33.2085 85.3022 32.9036 85.1802C32.5987 85.0582 32.2953 84.9324 31.9935 84.803C31.6917 84.6735 31.3915 84.5404 31.0929 84.4035C30.7944 84.2666 30.4976 84.1261 30.2025 83.9819C29.9073 83.8378 29.6141 83.6901 29.3226 83.5387C29.0311 83.3873 28.7416 83.2324 28.4539 83.074C28.1663 82.9155 27.8806 82.7534 27.5969 82.5879C27.3133 82.4224 27.0317 82.2534 26.7522 82.081C26.4727 81.9086 26.1953 81.7327 25.9201 81.5535C25.6449 81.3743 25.372 81.1917 25.1012 81.0057C24.8305 80.8198 24.5622 80.6305 24.2962 80.4379C24.0301 80.2454 23.7664 80.0496 23.5052 79.8506C23.2439 79.6515 22.9852 79.4493 22.7289 79.2439C22.4727 79.0385 22.219 78.83 21.9678 78.6183C21.7167 78.4067 21.4682 78.192 21.2224 77.9742C20.9765 77.7564 20.7333 77.5357 20.4929 77.312C20.2487 77.0864 20.0074 76.8577 19.7688 76.6261C19.5303 76.3946 19.2946 76.1601 19.0618 75.9227C18.829 75.6853 18.5991 75.4451 18.3722 75.2021C18.1453 74.9591 17.9215 74.7133 17.7006 74.4648C17.4798 74.2163 17.2621 73.9651 17.0474 73.7112C16.8327 73.4573 16.6212 73.2008 16.4128 72.9417C16.2045 72.6826 15.9993 72.421 15.7974 72.157C15.5954 71.8928 15.3968 71.6262 15.2014 71.3572C15.006 71.0882 14.814 70.8168 14.6253 70.5432C14.4366 70.2694 14.2513 69.9934 14.0694 69.7151C13.8874 69.4368 13.7089 69.1563 13.5339 68.8736C13.3589 68.591 13.1873 68.3062 13.0194 68.0192C12.8513 67.7324 12.6868 67.4435 12.5259 67.1526C12.365 66.8616 12.2077 66.5687 12.054 66.2739C11.9003 65.9791 11.7502 65.6825 11.6037 65.3839C11.4573 65.0854 11.3146 64.7852 11.1756 64.4832C11.0365 64.1812 10.9012 63.8775 10.7696 63.5723C10.6381 63.2669 10.5102 62.96 10.3862 62.6515C10.2622 62.343 10.142 62.0331 10.0256 61.7217C9.9091 61.4102 9.79653 61.0974 9.68783 60.7832C9.57911 60.469 9.47427 60.1535 9.3733 59.8368C9.27234 59.52 9.17529 59.202 9.08214 58.8828C8.98899 58.5637 8.89978 58.2434 8.81451 57.9221C8.72924 57.6008 8.64793 57.2784 8.57058 56.955C8.49323 56.6317 8.41987 56.3074 8.35049 55.9823C8.28112 55.6571 8.21575 55.3312 8.15439 55.0044C8.09303 54.6776 8.03569 54.3501 7.98238 54.022C7.92907 53.6938 7.8798 53.365 7.83457 53.0357C7.78935 52.7063 7.74818 52.3764 7.71106 52.046C7.67394 51.7156 7.64089 51.3848 7.6119 51.0536C7.58292 50.7224 7.55802 50.3909 7.53719 50.0591C7.51635 49.7272 7.4996 49.3952 7.48693 49.063C7.47837 48.8215 7.47199 48.58 7.46778 48.3384C7.46357 48.0968 7.46153 47.8552 7.46168 47.6136C7.46181 47.372 7.46413 47.1304 7.46863 46.8888C7.47312 46.6472 7.47978 46.4057 7.48862 46.1642C7.49746 45.9228 7.50847 45.6814 7.52165 45.4402C7.53484 45.1989 7.5502 44.9578 7.56772 44.7168C7.58525 44.4758 7.60494 44.2351 7.6268 43.9945C7.64867 43.7538 7.67269 43.5134 7.69888 43.2732C7.72507 43.033 7.75342 42.7931 7.78393 42.5534C7.81445 42.3137 7.84711 42.0743 7.88193 41.8352C7.91675 41.5961 7.95373 41.3574 7.99285 41.1189C8.03197 40.8805 8.07323 40.6425 8.11664 40.4048C8.16004 40.1671 8.20559 39.9298 8.25327 39.6929C8.30095 39.456 8.35075 39.2196 8.40269 38.9837C8.45463 38.7477 8.50868 38.5122 8.56485 38.2772C8.62103 38.0422 8.67932 37.8078 8.73972 37.5738C8.80012 37.3398 8.86262 37.1064 8.92722 36.8736C8.99182 36.6408 9.05851 36.4086 9.12728 36.177C9.19607 35.9454 9.26693 35.7144 9.33988 35.4841C9.41281 35.2537 9.48782 35.024 9.5649 34.795C9.64197 34.566 9.72109 34.3377 9.80226 34.1102C9.88347 33.8826 9.96671 33.6558 10.052 33.4297C10.1372 33.2036 10.2245 32.9784 10.3139 32.7538C10.4032 32.5293 10.4945 32.3057 10.5879 32.0828C10.6813 31.86 10.7766 31.638 10.874 31.4169C10.9713 31.1957 11.0707 30.9755 11.172 30.7562C11.2733 30.5368 11.3766 30.3184 11.4818 30.1009C11.587 29.8834 11.6942 29.6668 11.8034 29.4513C11.9125 29.2358 12.0236 29.0212 12.1366 28.8076C12.2496 28.5941 12.3645 28.3815 12.4814 28.17C12.5982 27.9585 12.717 27.7481 12.8376 27.5388C12.9582 27.3294 13.0807 27.1212 13.2051 26.914C14.7096 24.4298 16.5331 22.0865 18.5043 19.9558C18.6827 19.7651 18.863 19.5761 19.0451 19.3889C19.2271 19.2016 19.411 19.0161 19.5966 18.8325C19.7823 18.6488 19.9697 18.4669 20.1588 18.2868C20.348 18.1067 20.5389 17.9285 20.7315 17.7521C20.9241 17.5757 21.1184 17.4012 21.3143 17.2285C21.5103 17.0559 21.708 16.8851 21.9072 16.7163C22.1065 16.5475 22.3074 16.3806 22.5099 16.2157C22.7124 16.0507 22.9165 15.8878 23.1221 15.7268C23.3278 15.5657 23.5349 15.4067 23.7436 15.2497C23.9523 15.0927 24.1626 14.9377 24.3743 14.7848C24.586 14.6319 24.7991 14.481 25.0138 14.3321C25.2284 14.1833 25.4444 14.0366 25.6619 13.8919C25.8793 13.7472 26.0982 13.6047 26.3183 13.4643C26.5385 13.3238 26.7601 13.1855 26.983 13.0494C27.2058 12.9132 27.43 12.7792 27.6555 12.6474C27.8809 12.5156 28.1076 12.386 28.3356 12.2585C28.5636 12.1311 28.7928 12.0058 29.0232 11.8828C29.2535 11.7598 29.4851 11.639 29.7178 11.5205C29.9505 11.4019 30.1843 11.2856 30.4193 11.1716C30.6543 11.0575 30.8903 10.9458 31.1274 10.8363C31.3646 10.7268 31.6027 10.6197 31.8419 10.5148C32.0811 10.41 32.3213 10.3074 32.5625 10.2071C32.8036 10.1069 33.0457 10.009 33.2888 9.91349C33.5319 9.81787 33.7758 9.72467 34.0207 9.63387C34.2655 9.54302 34.5113 9.45452 34.7579 9.36839C35.0044 9.28229 35.2518 9.19857 35.4999 9.11725C35.7481 9.03591 35.9971 8.95699 36.2469 8.88047C36.4965 8.80395 36.747 8.72985 36.9981 8.65816C37.2493 8.58647 37.5011 8.51722 37.7536 8.4504C38.0061 8.38358 38.2592 8.3192 38.5129 8.25726C38.7666 8.19533 39.0209 8.13585 39.2757 8.07882C39.5306 8.0218 39.786 7.96724 40.0419 7.91515C42.2382 7.47924 44.4915 7.26689 46.7268 7.17837C53.0666 6.85617 60.5104 8.56742 66.1454 11.4584C68.1934 12.509 70.2353 13.7502 72.0894 15.1173C72.9155 15.7264 73.703 16.3892 74.497 17.0392C73.9867 17.1723 73.4823 17.3117 72.98 17.4727C72.3429 17.0091 71.744 16.4931 71.1078 16.0275C70.1783 15.3474 69.189 14.7197 68.2049 14.1212C68.0151 14.0067 67.8243 13.8938 67.6326 13.7824C67.4408 13.6711 67.2482 13.5614 67.0546 13.4533C66.861 13.3452 66.6665 13.2388 66.4711 13.134C66.2757 13.0293 66.0794 12.9261 65.8823 12.8246C65.6851 12.7232 65.4872 12.6234 65.2884 12.5253C65.0895 12.4272 64.8899 12.3307 64.6894 12.236C64.489 12.1412 64.2877 12.0482 64.0857 11.9569C63.8837 11.8656 63.6809 11.7759 63.4773 11.6881C63.2738 11.6002 63.0695 11.514 62.8645 11.4295C62.6595 11.3451 62.4538 11.2624 62.2474 11.1814C62.041 11.1005 61.8339 11.0213 61.6261 10.9438C61.4184 10.8663 61.21 10.7906 61.001 10.7167C60.792 10.6428 60.5824 10.5706 60.3721 10.5002C60.1618 10.4298 59.951 10.3612 59.7396 10.2944C59.5282 10.2276 59.3162 10.1626 59.1037 10.0993C58.8912 10.0361 58.6782 9.97469 58.4647 9.91507C58.2511 9.85545 58.0371 9.79762 57.8225 9.74158C57.608 9.68555 57.3931 9.63137 57.1777 9.57904C56.9622 9.52666 56.7463 9.4761 56.53 9.42736C56.3137 9.37865 56.097 9.33177 55.8799 9.28672C55.6629 9.24166 55.4454 9.19844 55.2276 9.15706C55.0097 9.11569 54.7916 9.07617 54.5731 9.03848C54.3546 9.0008 54.1358 8.96496 53.9168 8.93098C53.6976 8.897 53.4783 8.86487 53.2586 8.8346C53.039 8.80433 52.8191 8.77592 52.599 8.74937C52.3789 8.72282 52.1586 8.69813 51.938 8.67531C51.7175 8.65249 51.4967 8.63153 51.2759 8.61244C51.055 8.59335 50.8339 8.57613 50.6127 8.56078C50.3916 8.54543 50.1703 8.53195 49.9488 8.52035C49.7274 8.50874 49.506 8.49901 49.2844 8.49115C49.0628 8.48329 48.8412 8.47731 48.6195 8.4732C48.3978 8.4691 48.1761 8.46686 47.9544 8.4665C37.1543 8.52166 27.5197 12.7459 19.9457 20.3817C19.7213 20.6107 19.4998 20.8424 19.2811 21.0768C19.0624 21.3112 18.8466 21.5483 18.6337 21.788C18.4208 22.0278 18.2109 22.27 18.0039 22.5149C17.7969 22.7598 17.593 23.0071 17.3921 23.257C17.1913 23.5068 16.9935 23.7591 16.7988 24.0138C16.6041 24.2685 16.4125 24.5256 16.224 24.785C16.0356 25.0444 15.8504 25.306 15.6684 25.5699C15.4865 25.8339 15.3077 26.1 15.1322 26.3683C14.9567 26.6366 14.7846 26.9071 14.6157 27.1796C14.4469 27.4522 14.2814 27.7267 14.1193 28.0033C13.9571 28.2799 13.7984 28.5584 13.6431 28.8389C13.4878 29.1194 13.3359 29.4017 13.1876 29.6859C13.0392 29.9701 12.8943 30.2561 12.753 30.5438C12.6116 30.8316 12.4738 31.121 12.3395 31.4122C12.2052 31.7033 12.0745 31.996 11.9474 32.2903C11.8203 32.5847 11.6968 32.8805 11.5769 33.1779C11.4571 33.4752 11.3409 33.774 11.2284 34.0742C11.1158 34.3744 11.007 34.676 10.9018 34.9788C10.7967 35.2817 10.6953 35.5858 10.5976 35.8912C10.4999 36.1965 10.4059 36.503 10.3158 36.8107C10.2256 37.1184 10.1392 37.4271 10.0566 37.7369C9.97392 38.0466 9.89512 38.3574 9.82016 38.6691C9.74513 38.9808 9.67395 39.2934 9.60661 39.6068C9.53926 39.9203 9.47577 40.2345 9.41613 40.5495C9.35648 40.8645 9.30071 41.1802 9.2488 41.4965C9.19689 41.813 9.14886 42.1299 9.10472 42.4475C9.06058 42.765 9.02034 43.083 8.984 43.4015C8.94765 43.7201 8.91521 44.0391 8.88668 44.3584C8.85815 44.6777 8.83353 44.9974 8.81283 45.3173C8.79213 45.6372 8.77535 45.9573 8.7625 46.2777C8.74965 46.598 8.74072 46.9185 8.73572 47.239C8.73071 47.5597 8.72964 47.8802 8.7325 48.2008C8.73843 49.3178 8.84984 50.4442 8.96858 51.5537C8.99946 51.8328 9.03329 52.1115 9.07007 52.3898C9.10685 52.6681 9.14658 52.946 9.18924 53.2236C9.2319 53.5011 9.2775 53.7781 9.32602 54.0546C9.37454 54.3312 9.42599 54.6071 9.48036 54.8825C9.53473 55.158 9.592 55.4328 9.65219 55.707C9.71237 55.9813 9.77545 56.2548 9.84141 56.5278C9.9074 56.8007 9.97627 57.0728 10.048 57.3442C10.1198 57.6156 10.1943 57.8863 10.2718 58.1561C10.3493 58.426 10.4296 58.695 10.5127 58.9632C10.5959 59.2313 10.6819 59.4986 10.7707 59.7649C10.8595 60.0312 10.9511 60.2966 11.0455 60.561C11.14 60.8254 11.2372 61.0888 11.3372 61.3512C11.4372 61.6135 11.54 61.8747 11.6455 62.1349C11.7511 62.395 11.8594 62.6541 11.9704 62.912C12.0814 63.1698 12.1951 63.4265 12.3115 63.682C12.428 63.9374 12.5471 64.1916 12.669 64.4446C12.7908 64.6976 12.9153 64.9492 13.0425 65.1995C13.1696 65.4498 13.2994 65.6987 13.4318 65.9462C13.5643 66.1938 13.6993 66.44 13.8369 66.6847C13.9746 66.9294 14.1148 67.1726 14.2575 67.4144C14.4003 67.6561 14.5457 67.8963 14.6936 68.1349C14.8414 68.3736 14.9917 68.6107 15.1446 68.8461C15.2975 69.0816 15.4529 69.3154 15.6107 69.5476C15.7685 69.7798 15.9288 70.0104 16.0916 70.2391C16.2543 70.4679 16.4194 70.695 16.5869 70.9203C16.7544 71.1456 16.9243 71.3691 17.0966 71.5908C17.2688 71.8125 17.4434 72.0323 17.6203 72.2504C17.7972 72.4684 17.9763 72.6845 18.1578 72.8987C18.3393 73.1129 18.523 73.3252 18.709 73.5356C18.895 73.7458 19.0831 73.9542 19.2735 74.1606C19.4639 74.3669 19.6564 74.5712 19.8511 74.7735C20.0458 74.9758 20.2426 75.1759 20.4416 75.3741C20.6692 75.6001 20.8996 75.8232 21.1327 76.0435C21.3658 76.2638 21.6016 76.4812 21.84 76.6958C22.0785 76.9104 22.3195 77.1219 22.5632 77.3306C22.8068 77.5392 23.0529 77.7448 23.3016 77.9473C23.5503 78.1499 23.8015 78.3494 24.055 78.5458C24.3086 78.7422 24.5646 78.9355 24.8229 79.1256C25.0813 79.3158 25.3419 79.5027 25.6047 79.6863C25.8676 79.8701 26.1328 80.0506 26.4002 80.2278C26.6675 80.405 26.937 80.5789 27.2086 80.7495C27.4802 80.9201 27.7539 81.0873 28.0296 81.2513C28.3054 81.4151 28.5831 81.5756 28.8627 81.7327C29.1424 81.8897 29.424 82.0433 29.7074 82.1935C29.9908 82.3436 30.2761 82.4903 30.5631 82.6334C30.8501 82.7765 31.1389 82.9161 31.4293 83.0522C31.7198 83.1882 32.0119 83.3207 32.3057 83.4496C32.5993 83.5785 32.8946 83.7038 33.1914 83.8253C33.4882 83.947 33.7864 84.065 34.0861 84.1793C34.3858 84.2936 34.6868 84.4042 34.9892 84.5111C35.2917 84.6181 35.5953 84.7213 35.9003 84.8207C36.2052 84.9202 36.5113 85.0159 36.8186 85.1078C37.1259 85.1998 37.4343 85.288 37.7438 85.3723C38.0532 85.4567 38.3636 85.5373 38.675 85.614C38.9865 85.6908 39.2988 85.7637 39.612 85.8328C39.9252 85.9019 40.2392 85.9671 40.5541 86.0284C40.8689 86.0898 41.1845 86.1474 41.5007 86.201C41.817 86.2546 42.1338 86.3043 42.4512 86.3502C42.7687 86.3961 43.0866 86.438 43.4052 86.4761C43.7236 86.5141 44.0425 86.5482 44.3619 86.5784C44.6812 86.6086 45.0008 86.6349 45.3208 86.6572C45.6408 86.6796 45.961 86.6981 46.2814 86.7125C46.6018 86.7271 46.9223 86.7376 47.243 86.7443C47.5637 86.7509 47.8844 86.7536 48.2052 86.7523C48.5246 86.7496 48.8439 86.743 49.1631 86.7326C49.4823 86.7221 49.8013 86.7077 50.1202 86.6894C50.439 86.6712 50.7576 86.6491 51.076 86.6231C51.3943 86.5971 51.7123 86.5673 52.0299 86.5335C52.3474 86.4998 52.6646 86.4622 52.9812 86.4207C53.298 86.3792 53.6141 86.3339 53.9297 86.2848C54.2452 86.2356 54.5602 86.1826 54.8745 86.1258C55.1888 86.069 55.5023 86.0084 55.8151 85.9439C56.1279 85.8795 56.4399 85.8112 56.7511 85.7392C57.0622 85.6671 57.3725 85.5913 57.6818 85.5117C57.9911 85.4321 58.2994 85.3487 58.6067 85.2616C58.9139 85.1745 59.2201 85.0837 59.5252 84.9891C59.8302 84.8945 60.1341 84.7963 60.4368 84.6943C60.7395 84.5924 61.0409 84.4867 61.341 84.3774C61.6411 84.2682 61.9398 84.1552 62.2372 84.0386C62.5345 83.9221 62.8304 83.802 63.1248 83.6782C63.4193 83.5544 63.7122 83.4271 64.0035 83.2962C64.2948 83.1653 64.5845 83.0309 64.8726 82.8929C65.1606 82.755 65.4469 82.6135 65.7316 82.4686C66.0162 82.3237 66.299 82.1753 66.58 82.0235C66.861 81.8717 67.1401 81.7165 67.4173 81.558C67.6945 81.3993 67.9698 81.2374 68.2431 81.0721C68.5164 80.9068 68.7876 80.7382 69.0568 80.5663C69.326 80.3944 69.593 80.2193 69.8579 80.0408C70.1228 79.8625 70.3855 79.6809 70.646 79.4961C70.9066 79.3113 71.1648 79.1233 71.4207 78.9322C71.6766 78.7411 71.9302 78.547 72.1814 78.3498C72.4326 78.1525 72.6813 77.9522 72.9276 77.7489C73.174 77.5456 73.4178 77.3393 73.659 77.1301C73.9004 76.9208 74.1391 76.7087 74.3753 76.4936C74.6114 76.2786 74.8449 76.0607 75.0757 75.84C75.3065 75.6192 75.5346 75.3957 75.76 75.1694C75.9888 74.9398 76.2146 74.7074 76.4376 74.4723C76.6606 74.2371 76.8807 73.9992 77.0978 73.7586C77.3149 73.5179 77.5289 73.2747 77.74 73.0287C77.9511 72.7828 78.1591 72.5343 78.364 72.2832C78.5689 72.0321 78.7706 71.7785 78.9692 71.5224C79.1678 71.2663 79.3632 71.0078 79.5555 70.7469C79.7477 70.4859 79.9366 70.2227 80.1223 69.957C80.308 69.6914 80.4903 69.4235 80.6694 69.1533C80.8484 68.8832 81.0241 68.6109 81.1964 68.3364C81.3687 68.0619 81.5375 67.7853 81.703 67.5066C81.8684 67.228 82.0304 66.9473 82.1888 66.6646C82.3473 66.3819 82.5023 66.0972 82.6537 65.8107C82.8051 65.5241 82.953 65.2358 83.0973 64.9456C83.2416 64.6554 83.3822 64.3635 83.5192 64.0698C83.6562 63.7761 83.7896 63.4807 83.9193 63.1837C84.0491 62.8867 84.1751 62.5882 84.2974 62.2881C84.4197 61.9879 84.5383 61.6863 84.6532 61.3833C84.768 61.0802 84.879 60.7758 84.9863 60.47C85.0936 60.1642 85.1971 59.857 85.2967 59.5487C85.3964 59.2403 85.4923 58.9307 85.5843 58.62C85.6763 58.3092 85.7644 57.9974 85.8487 57.6845C85.933 57.3715 86.0133 57.0576 86.0899 56.7426C86.1664 56.4277 86.2389 56.1119 86.3076 55.7951C86.3762 55.4784 86.441 55.1609 86.5018 54.8425C86.5626 54.5242 86.6194 54.2052 86.6723 53.8854C86.7252 53.5657 86.7741 53.2453 86.8191 52.9244C86.864 52.6034 86.9049 52.282 86.9419 51.96C86.9789 51.638 87.0119 51.3156 87.0409 50.9928C87.0698 50.67 87.0948 50.3469 87.1157 50.0235C87.1367 49.7001 87.1537 49.3765 87.1667 49.0527C87.1796 48.7289 87.1885 48.4049 87.1935 48.0809C87.1984 47.7568 87.1993 47.4328 87.1962 47.1087C87.2072 45.6727 87.0419 44.2091 86.8629 42.7864C86.8191 42.4445 86.7708 42.1033 86.718 41.7627C86.6653 41.4222 86.608 41.0824 86.5463 40.7433C86.4846 40.4043 86.4185 40.066 86.3479 39.7286C86.2772 39.3913 86.2022 39.055 86.1227 38.7196C86.0433 38.3843 85.9594 38.0501 85.8712 37.7169C85.7829 37.3838 85.6903 37.0518 85.5933 36.7211C85.4964 36.3904 85.395 36.061 85.2894 35.733C85.1838 35.4049 85.0738 35.0783 84.9596 34.7532C84.8454 34.4281 84.7269 34.1045 84.6041 33.7824C84.4813 33.4604 84.3543 33.14 84.2232 32.8213C84.092 32.5026 83.9567 32.1857 83.8172 31.8706C83.6777 31.5554 83.534 31.2422 83.3863 30.9308C83.2385 30.6194 83.0867 30.3101 82.9308 30.0027C82.7749 29.6954 82.615 29.3901 82.4511 29.087C82.2872 28.7838 82.1193 28.4828 81.9475 28.1841C81.7756 27.8853 81.5999 27.5889 81.4203 27.2948C80.6219 25.9975 79.7205 24.7743 78.8108 23.5542C79.0132 23.1527 79.2493 22.766 79.4569 22.3661Z" fill="#1B1919"/>
<path d="M78.2079 24.6138C82.8317 30.2453 85.5597 37.9917 86.0161 45.2226C86.0342 45.4881 86.0495 45.7537 86.0619 46.0194C86.0744 46.2852 86.084 46.5511 86.0908 46.817C86.0975 47.083 86.1014 47.349 86.1024 47.615C86.1034 47.8811 86.1016 48.1472 86.097 48.4132C86.0924 48.6792 86.0848 48.9451 86.0745 49.211C86.0641 49.4769 86.0509 49.7426 86.0348 50.0081C86.0188 50.2737 85.9999 50.5391 85.9782 50.8042C85.9565 51.0694 85.9319 51.3343 85.9045 51.5989C85.877 51.8636 85.8468 52.1279 85.8138 52.3919C85.7807 52.6559 85.7448 52.9195 85.7061 53.1827C85.6673 53.446 85.6257 53.7087 85.5814 53.971C85.537 54.2334 85.4899 54.4952 85.4399 54.7566C85.3899 55.0179 85.3372 55.2786 85.2816 55.5388C85.226 55.799 85.1677 56.0586 85.1066 56.3176C85.0454 56.5765 84.9816 56.8347 84.9149 57.0923C84.8482 57.3498 84.7788 57.6067 84.7067 57.8628C84.6345 58.1189 84.5596 58.3741 84.482 58.6286C84.4044 58.8831 84.324 59.1368 84.241 59.3895C84.1579 59.6423 84.0721 59.8941 83.9836 60.145C83.8952 60.3959 83.804 60.6459 83.7102 60.8948C83.6164 61.1438 83.5199 61.3918 83.4208 61.6387C83.3216 61.8856 83.2199 62.1314 83.1155 62.376C83.0111 62.6208 82.9041 62.8644 82.7945 63.1068C82.6849 63.3492 82.5727 63.5904 82.4579 63.8304C82.3431 64.0705 82.2257 64.3093 82.1058 64.5468C81.9859 64.7843 81.8634 65.0205 81.7385 65.2554C81.6135 65.4902 81.486 65.7237 81.3561 65.9559C81.2261 66.188 81.0936 66.4187 80.9587 66.6481C80.8238 66.8774 80.6864 67.1053 80.5466 67.3316C80.4069 67.558 80.2646 67.7828 80.12 68.0061C79.9754 68.2294 79.8284 68.4512 79.679 68.6714C79.5297 68.8915 79.378 69.1101 79.2239 69.327C78.5444 70.2824 77.8582 71.235 77.0811 72.1143C75.5315 73.8676 73.8485 75.5634 72.0389 77.0496C71.8459 77.207 71.6514 77.3624 71.4554 77.516C71.2595 77.6696 71.062 77.8212 70.863 77.9709C70.6641 78.1206 70.4637 78.2684 70.2618 78.4142C70.0599 78.5599 69.8566 78.7036 69.652 78.8455C69.4473 78.9872 69.2413 79.127 69.0339 79.2648C68.8265 79.4025 68.6177 79.5382 68.4077 79.6719C68.1976 79.8055 67.9862 79.9372 67.7736 80.0667C67.561 80.1962 67.3471 80.3236 67.132 80.449C66.9169 80.5743 66.7005 80.6976 66.4829 80.8187C66.2654 80.9398 66.0467 81.0587 65.8268 81.1756C65.607 81.2924 65.386 81.4071 65.1638 81.5196C64.9417 81.6321 64.7185 81.7424 64.4942 81.8505C64.2699 81.9586 64.0446 82.0645 63.8182 82.1682C63.5919 82.2719 63.3646 82.3735 63.1362 82.4727C62.9079 82.572 62.6786 82.669 62.4483 82.7637C62.2181 82.8586 61.9869 82.9511 61.7548 83.0413C61.5228 83.1316 61.2899 83.2195 61.0562 83.3052C60.8224 83.3909 60.5878 83.4743 60.3524 83.5554C60.117 83.6365 59.8808 83.7152 59.6438 83.7917C59.4068 83.8682 59.1692 83.9423 58.9308 84.0141C58.6924 84.086 58.4533 84.1554 58.2135 84.2225C57.9738 84.2897 57.7334 84.3545 57.4924 84.4169C57.2513 84.4793 57.0097 84.5394 56.7674 84.597C56.5252 84.6547 56.2825 84.7101 56.0392 84.763C55.7959 84.8159 55.5521 84.8665 55.3078 84.9147C55.0636 84.9629 54.8189 85.0086 54.5737 85.052C54.3285 85.0954 54.0829 85.1364 53.8369 85.1749C53.5909 85.2135 53.3446 85.2497 53.098 85.2835C52.8512 85.3172 52.6042 85.3485 52.357 85.3774C52.1096 85.4063 51.8621 85.4328 51.6142 85.4569C51.3664 85.4809 51.1184 85.5026 50.8702 85.5218C50.6219 85.541 50.3735 85.5577 50.1249 85.5721C49.8176 85.5891 49.5101 85.6024 49.2025 85.6119C48.8949 85.6214 48.5872 85.6272 48.2794 85.6293C47.9716 85.6314 47.6639 85.6297 47.3562 85.6243C47.0484 85.6189 46.7408 85.6097 46.4333 85.5969C46.1258 85.584 45.8185 85.5674 45.5114 85.5471C45.2043 85.5268 44.8975 85.5027 44.591 85.475C44.2845 85.4472 43.9783 85.4157 43.6725 85.3805C43.3668 85.3453 43.0615 85.3064 42.7567 85.2638C42.4519 85.2212 42.1476 85.1749 41.8439 85.1249C41.5402 85.0749 41.2372 85.0213 40.9348 84.9639C40.6324 84.9065 40.3308 84.8456 40.0299 84.7809C39.729 84.7162 39.4289 84.6479 39.1296 84.576C38.8304 84.5041 38.5321 84.4285 38.2346 84.3492C37.9372 84.2701 37.6408 84.1873 37.3454 84.1009C37.05 84.0145 36.7557 83.9245 36.4625 83.831C36.1692 83.7375 35.8772 83.6404 35.5863 83.5398C35.2954 83.4392 35.0058 83.3351 34.7175 83.2274C34.4292 83.1198 34.1422 83.0087 33.8566 82.8941C33.5709 82.7795 33.2867 82.6614 33.0039 82.5399C32.7211 82.4184 32.4398 82.2935 32.1601 82.1652C31.8804 82.0368 31.6022 81.9051 31.3257 81.7701C31.0491 81.635 30.7742 81.4966 30.501 81.3548C30.2279 81.213 29.9564 81.068 29.6868 80.9197C29.4171 80.7713 29.1493 80.6197 28.8833 80.4649C28.6172 80.31 28.3532 80.152 28.0911 79.9907C27.8289 79.8295 27.5687 79.6651 27.3106 79.4976C27.0524 79.33 26.7963 79.1593 26.5423 78.9855C26.2882 78.8118 26.0363 78.6349 25.7867 78.4551C25.5369 78.2751 25.2894 78.0923 25.0441 77.9064C24.7988 77.7205 24.5558 77.5316 24.3151 77.3398C24.0744 77.148 23.836 76.9534 23.6 76.7558C23.364 76.5582 23.1305 76.3578 22.8994 76.1546C22.6635 75.9472 22.4302 75.7371 22.1995 75.524C21.9688 75.3109 21.7407 75.0951 21.5153 74.8764C21.2898 74.6578 21.0671 74.4364 20.8471 74.2123C20.6271 73.9883 20.4098 73.7615 20.1954 73.532C19.981 73.3026 19.7693 73.0706 19.5605 72.8361C19.3518 72.6015 19.1459 72.3643 18.943 72.1247C18.74 71.885 18.54 71.6429 18.343 71.3983C18.146 71.1538 17.952 70.9069 17.761 70.6576C17.57 70.4083 17.3821 70.1567 17.1973 69.9027C17.0125 69.6489 16.8308 69.3927 16.6523 69.1344C16.4738 68.8761 16.2984 68.6155 16.1263 68.3529C15.9541 68.0902 15.7852 67.8255 15.6195 67.5587C15.4539 67.2919 15.2915 67.0231 15.1325 66.7523C14.9734 66.4816 14.8177 66.2089 14.6653 65.9344C14.5129 65.6598 14.3638 65.3834 14.2182 65.1052C14.0726 64.8269 13.9304 64.5469 13.7916 64.2652C13.6528 63.9835 13.5175 63.7001 13.3857 63.415C13.2539 63.13 13.1256 62.8434 13.0008 62.5552C12.876 62.267 12.7547 61.9774 12.6371 61.6863C12.5194 61.3951 12.4052 61.1025 12.2946 60.8085C12.1841 60.5146 12.0772 60.2194 11.9739 59.9228C11.8706 59.6263 11.771 59.3285 11.675 59.0294C11.5789 58.7304 11.4866 58.4303 11.398 58.1291C11.3093 57.8278 11.2244 57.5255 11.1431 57.2221C11.0619 56.9187 10.9844 56.6144 10.9106 56.3092C10.8368 56.0039 10.7667 55.6978 10.7005 55.3909C10.6342 55.0839 10.5717 54.7762 10.5129 54.4677C10.4542 54.1592 10.3992 53.85 10.3481 53.5402C10.2969 53.2303 10.2495 52.9199 10.2059 52.6089C10.1624 52.2979 10.1226 51.9864 10.0867 51.6744C10.0508 51.3625 10.0186 51.0501 9.99032 50.7373C9.96205 50.4246 9.93762 50.1115 9.91703 49.7981C9.90039 49.4874 9.88759 49.1766 9.87862 48.8656C9.86959 48.5546 9.86439 48.2435 9.86303 47.9324C9.86167 47.6213 9.86415 47.3102 9.87046 46.9992C9.87676 46.6882 9.88688 46.3772 9.90079 46.0664C9.91471 45.7556 9.93246 45.445 9.95404 45.1347C9.97557 44.8243 10.0009 44.5142 10.0301 44.2045C10.0593 43.8947 10.0923 43.5853 10.1291 43.2764C10.1658 42.9675 10.2064 42.6591 10.2507 42.3512C10.2951 42.0432 10.3432 41.7359 10.3952 41.4291C10.4471 41.1223 10.5027 40.8162 10.5622 40.5108C10.6216 40.2055 10.6848 39.9009 10.7517 39.597C10.8186 39.2932 10.8892 38.9902 10.9636 38.6881C11.0379 38.386 11.116 38.0848 11.1978 37.7847C11.2795 37.4845 11.3649 37.1853 11.454 36.8873C11.5431 36.5892 11.6359 36.2922 11.7322 35.9965C11.8287 35.7006 11.9287 35.4061 12.0324 35.1127C12.136 34.8194 12.2432 34.5273 12.354 34.2366C12.4648 33.9459 12.5792 33.6566 12.6971 33.3687C12.815 33.0808 12.9365 32.7943 13.0614 32.5094C13.1863 32.2245 13.3148 31.9412 13.4467 31.6594C13.5786 31.3776 13.714 31.0975 13.8528 30.8191C13.9916 30.5406 14.1338 30.2639 14.2794 29.989C14.425 29.714 14.5739 29.4409 14.7262 29.1696C14.8786 28.8984 15.0342 28.629 15.1931 28.3615C15.352 28.0941 15.5142 27.8286 15.6796 27.5651C15.8451 27.3017 16.0138 27.0402 16.1856 26.7809C16.3575 26.5216 16.5325 26.2644 16.7107 26.0093C16.8889 25.7543 17.0702 25.5015 17.2547 25.2509C17.439 25.0003 17.6265 24.7521 17.817 24.5061C18.0075 24.2601 18.201 24.0165 18.3974 23.7752C18.5939 23.534 18.7934 23.2953 18.9957 23.0589C19.1981 22.8226 19.4033 22.5888 19.6114 22.3576C19.7888 22.1582 19.9683 21.9608 20.1498 21.7652C20.3314 21.5697 20.5149 21.3761 20.7005 21.1844C20.8862 20.9926 21.0737 20.8029 21.2633 20.6151C21.4529 20.4273 21.6444 20.2416 21.8379 20.0578C22.0314 19.8741 22.2268 19.6923 22.4241 19.5127C22.6214 19.3331 22.8205 19.1555 23.0216 18.98C23.2226 18.8045 23.4254 18.6312 23.6301 18.46C23.8347 18.2887 24.0412 18.1196 24.2494 17.9528C24.4576 17.7859 24.6675 17.6212 24.8792 17.4587C25.0908 17.2962 25.3041 17.1359 25.5192 16.9779C25.7342 16.82 25.9508 16.6642 26.1692 16.5107C26.3874 16.3573 26.6073 16.2061 26.8288 16.0572C27.0502 15.9084 27.2732 15.7618 27.4978 15.6177C27.7223 15.4735 27.9483 15.3317 28.1758 15.1923C28.4033 15.0528 28.6323 14.9158 28.8627 14.7811C29.093 14.6465 29.3247 14.5143 29.5579 14.3845C29.7911 14.2548 30.0256 14.1274 30.2614 14.0026C30.4972 13.8778 30.7343 13.7554 30.9727 13.6355C31.2111 13.5156 31.4508 13.3983 31.6916 13.2834C31.9324 13.1685 32.1745 13.0562 32.4176 12.9464C32.6609 12.8367 32.9052 12.7294 33.1506 12.6248C33.3961 12.5202 33.6427 12.4181 33.8902 12.3186C34.1379 12.2192 34.3865 12.1223 34.6361 12.028C34.8858 11.9337 35.1363 11.8421 35.3879 11.7531C35.6395 11.6641 35.8919 11.5778 36.1453 11.4941C36.3987 11.4103 36.6529 11.3293 36.908 11.2509C37.163 11.1726 37.4189 11.0969 37.6755 11.0238C37.9322 10.9508 38.1895 10.8805 38.4476 10.8129C38.7058 10.7453 38.9646 10.6804 39.2242 10.6182C39.4836 10.556 39.7437 10.4966 40.0045 10.4399C40.2652 10.3832 40.5265 10.3292 40.7884 10.2779C41.0503 10.2267 41.3126 10.1782 41.5755 10.1324C43.113 9.86562 44.6472 9.73036 46.2031 9.63647C46.8813 9.57877 47.5894 9.60363 48.2698 9.60261C54.3698 9.59389 60.7144 11.2678 66.0923 14.1419C68.0658 15.1967 69.9358 16.4858 71.6899 17.8707C71.5105 17.9248 71.3252 17.9631 71.1428 18.0061C70.5623 17.6459 70.0234 17.2054 69.4624 16.8139C68.6103 16.2284 67.7374 15.6757 66.8437 15.1558C61.94 12.2907 55.8837 10.3981 50.203 10.1382C40.033 9.67275 30.3355 12.9527 22.7928 19.8497C22.5615 20.0578 22.3328 20.2687 22.1067 20.4824C21.8807 20.6961 21.6573 20.9126 21.4366 21.1319C21.216 21.3513 20.9981 21.5733 20.7829 21.798C20.5678 22.0227 20.3555 22.2501 20.146 22.4801C19.9366 22.7101 19.73 22.9427 19.5263 23.1779C19.3226 23.413 19.1219 23.6507 18.9242 23.8908C18.7264 24.131 18.5317 24.3736 18.3399 24.6185C18.1483 24.8636 17.9596 25.111 17.7741 25.3606C17.5885 25.6104 17.4061 25.8624 17.2268 26.1166C17.0475 26.3708 16.8714 26.6273 16.6986 26.8859C16.5257 27.1446 16.356 27.4053 16.1896 27.6682C16.0232 27.9311 15.8601 28.1959 15.7003 28.4628C15.5405 28.7297 15.384 28.9986 15.2309 29.2695C15.0778 29.5403 14.9281 29.813 14.7818 30.0875C14.6355 30.3621 14.4926 30.6384 14.3532 30.9165C14.2138 31.1946 14.0778 31.4744 13.9453 31.7559C13.8129 32.0374 13.6839 32.3204 13.5585 32.6051C13.4331 32.8899 13.3113 33.1761 13.1929 33.4638C13.0747 33.7516 12.96 34.0407 12.8489 34.3314C12.7379 34.6219 12.6304 34.9139 12.5266 35.2072C12.4228 35.5004 12.3226 35.7949 12.2262 36.0906C12.1297 36.3865 12.0369 36.6834 11.9478 36.9814C11.8587 37.2795 11.7733 37.5786 11.6917 37.8788C11.61 38.1791 11.5322 38.4802 11.4581 38.7824C11.3839 39.0845 11.3136 39.3875 11.247 39.6914C11.1804 39.9953 11.1176 40.3 11.0586 40.6055C10.9996 40.9109 10.9444 41.2171 10.8931 41.5239C10.8417 41.8307 10.7941 42.1382 10.7504 42.4462C10.7067 42.7542 10.6668 43.0627 10.6308 43.3717C10.5948 43.6807 10.5626 43.9901 10.5342 44.2999C10.5059 44.6097 10.4815 44.9198 10.4609 45.2302C10.4403 45.5406 10.4235 45.8513 10.4107 46.1621C10.3997 46.4652 10.3924 46.7683 10.3888 47.0716C10.3852 47.3748 10.3853 47.6781 10.389 47.9813C10.3927 48.2845 10.4002 48.5876 10.4112 48.8907C10.4224 49.1937 10.4371 49.4966 10.4556 49.7993C10.474 50.102 10.4961 50.4044 10.5219 50.7066C10.5477 51.0088 10.5771 51.3106 10.6102 51.612C10.6433 51.9135 10.6801 52.2145 10.7204 52.5151C10.7608 52.8156 10.8049 53.1156 10.8526 53.4151C10.9002 53.7146 10.9515 54.0135 11.0065 54.3117C11.0614 54.6099 11.1199 54.9075 11.1821 55.2043C11.2442 55.5011 11.3099 55.7971 11.3792 56.0923C11.4486 56.3876 11.5215 56.6819 11.5979 56.9754C11.6744 57.2688 11.7544 57.5613 11.8379 57.8529C11.9215 58.1444 12.0085 58.4348 12.0992 58.7243C12.1898 59.0137 12.2839 59.3019 12.3815 59.589C12.4791 59.8762 12.5801 60.1621 12.6846 60.4467C12.7892 60.7314 12.8971 61.0148 13.0085 61.2968C13.1199 61.5789 13.2347 61.8596 13.3529 62.1388C13.4711 62.4181 13.5926 62.6959 13.7176 62.9722C13.8426 63.2485 13.9709 63.5233 14.1024 63.7965C14.234 64.0697 14.3689 64.3413 14.5072 64.6112C14.6453 64.8812 14.7868 65.1494 14.9315 65.4159C15.0762 65.6825 15.2241 65.9472 15.3752 66.2101C15.5263 66.473 15.6806 66.7341 15.8381 66.9933C15.9955 67.2524 16.1561 67.5097 16.3198 67.765C16.4834 68.0202 16.6502 68.2735 16.82 68.5247C16.9899 68.776 17.1627 69.0251 17.3386 69.2722C17.5145 69.5192 17.6934 69.7641 17.8751 70.0068C18.057 70.2495 18.2417 70.49 18.4294 70.7282C18.617 70.9664 18.8075 71.2023 19.0008 71.4359C19.1942 71.6696 19.3904 71.9008 19.5894 72.1297C19.7884 72.3585 19.9901 72.5849 20.1946 72.8089C20.4044 73.0399 20.6171 73.2684 20.8326 73.4941C21.0481 73.7198 21.2664 73.9428 21.4875 74.1631C21.7086 74.3834 21.9324 74.6009 22.1589 74.8157C22.3853 75.0303 22.6145 75.2422 22.8463 75.4512C23.0781 75.6602 23.3125 75.8663 23.5494 76.0695C23.7863 76.2726 24.0257 76.4728 24.2677 76.67C24.5096 76.8672 24.7539 77.0613 25.0007 77.2523C25.2475 77.4435 25.4966 77.6315 25.7481 77.8163C25.9995 78.0012 26.2532 78.1829 26.5092 78.3615C26.7652 78.54 27.0234 78.7154 27.2837 78.8875C27.5441 79.0596 27.8065 79.2285 28.0711 79.394C28.3356 79.5595 28.6022 79.7218 28.8709 79.8807C29.1395 80.0396 29.4101 80.1952 29.6825 80.3474C29.955 80.4995 30.2294 80.6483 30.5056 80.7936C30.7818 80.9389 31.0598 81.0807 31.3395 81.2192C31.6193 81.3576 31.9007 81.4925 32.1838 81.6238C32.4669 81.7552 32.7516 81.883 33.0379 82.0073C33.3242 82.1315 33.612 82.2522 33.9013 82.3694C34.1906 82.4864 34.4813 82.5999 34.7734 82.7098C35.0656 82.8196 35.359 82.9258 35.6539 83.0283C35.9486 83.1308 36.2446 83.2297 36.5419 83.3248C36.8391 83.42 37.1375 83.5114 37.4371 83.5991C37.7366 83.6868 38.0372 83.7707 38.3388 83.851C38.6404 83.9312 38.943 84.0076 39.2465 84.0803C39.55 84.1529 39.8544 84.2217 40.1597 84.2868C40.4649 84.3519 40.7709 84.4131 41.0777 84.4706C41.3844 84.528 41.6919 84.5816 42 84.6314C42.3082 84.6812 42.6168 84.7271 42.9261 84.7691C43.2353 84.8112 43.545 84.8494 43.8552 84.8838C44.1655 84.9181 44.4761 84.9486 44.787 84.9752C45.098 85.0018 45.4093 85.0245 45.7208 85.0434C46.0323 85.0622 46.3441 85.0771 46.656 85.0882C46.9617 85.0989 47.2675 85.106 47.5734 85.1092C47.8792 85.1125 48.1851 85.1121 48.491 85.1078C48.7969 85.1036 49.1026 85.0957 49.4084 85.084C49.714 85.0723 50.0195 85.0569 50.3248 85.0377C50.6301 85.0185 50.9352 84.9956 51.2399 84.969C51.5446 84.9423 51.849 84.9119 52.153 84.8778C52.457 84.8437 52.7606 84.8059 53.0636 84.7643C53.3667 84.7227 53.6692 84.6775 53.9711 84.6286C54.2731 84.5796 54.5744 84.5269 54.8751 84.4706C55.1758 84.4142 55.4757 84.3542 55.7749 84.2906C56.0741 84.2269 56.3725 84.1596 56.67 84.0885C56.9676 84.0175 57.2642 83.9429 57.56 83.8647C57.8557 83.7864 58.1504 83.7046 58.4441 83.6191C58.7378 83.5336 59.0305 83.4446 59.322 83.3519C59.6136 83.2593 59.9039 83.1631 60.1931 83.0633C60.4823 82.9635 60.7702 82.8603 61.0569 82.7534C61.3435 82.6466 61.6288 82.5363 61.9127 82.4225C62.1967 82.3087 62.4793 82.1915 62.7603 82.0707C63.0414 81.95 63.321 81.8259 63.599 81.6983C63.8771 81.5707 64.1535 81.4398 64.4283 81.3054C64.7031 81.1711 64.9763 81.0334 65.2478 80.8924C65.5192 80.7514 65.7889 80.6071 66.0568 80.4594C66.3247 80.3118 66.5908 80.1609 66.8551 80.0068C67.1193 79.8526 67.3816 79.6952 67.642 79.5347C67.9023 79.3741 68.1606 79.2104 68.417 79.0434C68.6734 78.8765 68.9276 78.7065 69.1799 78.5334C69.4321 78.3603 69.6821 78.184 69.9299 78.0047C70.1778 77.8255 70.4235 77.6432 70.6669 77.4579C70.9103 77.2727 71.1514 77.0845 71.3902 76.8933C71.629 76.7021 71.8655 76.5081 72.0995 76.3111C72.3336 76.1141 72.5652 75.9143 72.7943 75.7117C73.0235 75.509 73.2501 75.3036 73.4743 75.0954C73.7017 74.8881 73.9266 74.678 74.1489 74.4652C74.3711 74.2523 74.5907 74.0367 74.8076 73.8183C75.0244 73.6 75.2386 73.3789 75.45 73.1553C75.6614 72.9316 75.8699 72.7054 76.0757 72.4765C76.2814 72.2476 76.4843 72.0163 76.6843 71.7823C76.8843 71.5484 77.0814 71.3121 77.2755 71.0733C77.4696 70.8345 77.6607 70.5933 77.8488 70.3496C78.0369 70.1061 78.2219 69.8602 78.404 69.6121C78.5859 69.3639 78.7648 69.1135 78.9406 68.8609C79.1163 68.6082 79.2889 68.3535 79.4583 68.0965C79.6278 67.8396 79.794 67.5806 79.957 67.3196C80.1199 67.0585 80.2796 66.7955 80.4361 66.5304C80.5925 66.2654 80.7456 65.9985 80.8954 65.7296C81.0452 65.4608 81.1916 65.1901 81.3346 64.9177C81.4776 64.6452 81.6173 64.3709 81.7535 64.0949C81.8897 63.819 82.0225 63.5414 82.1518 63.2621C82.2811 62.9829 82.407 62.702 82.5293 62.4196C82.6516 62.1372 82.7704 61.8534 82.8857 61.568C83.0009 61.2826 83.1126 60.9959 83.2207 60.7078C83.3289 60.4196 83.4334 60.1302 83.5343 59.8394C83.6352 59.5487 83.7325 59.2567 83.8262 58.9636C83.9198 58.6705 84.0098 58.3762 84.0962 58.0808C84.1825 57.7854 84.2651 57.489 84.344 57.1915C84.423 56.8941 84.4983 56.5957 84.5698 56.2963C84.6413 55.997 84.7091 55.6969 84.7731 55.3959C84.8372 55.0948 84.8975 54.7931 84.954 54.4906C85.0106 54.188 85.0634 53.8848 85.1124 53.581C85.1614 53.2772 85.2066 52.9728 85.248 52.6679C85.2895 52.3629 85.3271 52.0575 85.3609 51.7516C85.3948 51.4457 85.4248 51.1394 85.4509 50.8328C85.4771 50.5261 85.4995 50.2193 85.5181 49.9121C85.5367 49.6049 85.5515 49.2975 85.5624 48.9899C85.8422 40.1931 83.2252 32.1496 77.9623 25.1019L78.2079 24.6138Z" fill="#1B1919"/>
<path d="M60.187 31.4568C60.4292 30.7016 60.5291 29.8967 60.7324 29.1282C61.1789 27.4402 61.9974 26.0366 62.9825 24.6207C63.562 23.7876 64.2736 22.7554 65.0983 22.1495C65.816 21.622 66.8911 21.2115 67.7104 20.8342C72.0808 18.8213 76.7637 17.4547 81.4688 16.4838C82.7147 16.2266 83.9712 16.0251 85.2233 15.8008L85.2588 15.8014C85.2564 15.8331 84.3567 16.3468 84.2584 16.4082C84.0984 16.5062 83.9399 16.6065 83.7829 16.7091C83.6259 16.8117 83.4704 16.9166 83.3164 17.0237C83.1624 17.1309 83.01 17.2403 82.8592 17.3519C82.7085 17.4634 82.5593 17.5772 82.4118 17.6931C82.2643 17.809 82.1185 17.927 81.9745 18.0471C81.8304 18.1673 81.6881 18.2895 81.5476 18.4138C81.4071 18.5381 81.2684 18.6644 81.1316 18.7927C80.9948 18.921 80.8599 19.0513 80.7268 19.1836C80.5938 19.3158 80.4627 19.45 80.3336 19.586C80.2044 19.722 80.0773 19.8599 79.9521 19.9997C79.827 20.1395 79.7039 20.281 79.5829 20.4243C79.4619 20.5676 79.343 20.7127 79.2262 20.8595C79.1094 21.0063 78.9947 21.1547 78.8822 21.3048C78.7698 21.455 78.6595 21.6068 78.5514 21.7601C78.4434 21.9134 78.3376 22.0683 78.234 22.2247C78.1304 22.3811 78.0292 22.539 77.9302 22.6983C75.082 27.384 74.5759 32.9461 73.401 38.186C72.7129 41.2551 71.7249 44.3103 70.3318 47.1326C66.9563 53.9706 60.8371 59.5283 53.5961 61.9844C53.623 61.2632 53.8072 60.5127 53.9442 59.8052C54.3048 57.9083 54.7525 56.0321 55.2873 54.1768C56.9276 48.4112 58.6817 43.0577 61.2673 37.6311C62.5511 34.9367 63.9766 32.3257 65.6844 29.8748C64.4283 30.9695 63.3948 32.4104 62.4831 33.794C60.7123 36.4816 59.3277 39.2307 57.9975 42.1549C57.2851 43.721 56.6821 45.3663 56.1108 46.9884C55.787 47.8936 55.4811 48.8048 55.193 49.722C54.9049 50.6392 54.6348 51.5616 54.3827 52.4893C54.1307 53.4171 53.8969 54.3493 53.6814 55.2862C53.4657 56.2231 53.2686 57.1638 53.0898 58.1084C52.911 59.053 52.7508 60.0007 52.6091 60.9516C52.4673 61.9024 52.3442 62.8557 52.2398 63.8113C52.1354 64.767 52.0497 65.7244 51.9827 66.6834C51.9157 67.6424 51.8675 68.6024 51.838 69.5633C51.7921 71.7135 51.7328 74.1052 52.499 76.1504C51.9935 76.97 51.4258 77.7392 50.9341 78.5737C50.4396 76.5558 50.2909 74.4529 50.2512 72.3809C50.1215 65.5955 51.318 58.8305 53.1874 52.3265C53.7853 50.2467 54.4409 48.1403 55.2557 46.1344C58.2014 38.5343 62.8887 30.9044 69.1822 25.6342C70.7281 24.3396 72.3672 23.0864 74.0294 21.9444C74.8394 21.388 75.7127 20.8962 76.5036 20.3179C76.7766 20.1184 77.2326 19.7419 77.2841 19.4011L77.2348 19.3421C76.719 19.2708 74.6068 20.4852 74.0441 20.82C73.2892 21.2691 72.5768 21.7769 71.86 22.2836C71.5244 22.5255 71.1921 22.7718 70.863 23.0225C70.5338 23.2731 70.208 23.5279 69.8855 23.787C69.5631 24.0461 69.244 24.3095 68.9285 24.577C68.6129 24.8445 68.3008 25.116 67.9924 25.3916C67.6839 25.6673 67.3791 25.9469 67.0779 26.2306C66.7767 26.5141 66.4793 26.8016 66.1857 27.0931C65.8921 27.3844 65.6023 27.6796 65.3163 27.9786C65.0304 28.2776 64.7484 28.5802 64.4704 28.8866C64.1924 29.1929 63.9185 29.5028 63.6486 29.8163C63.3786 30.1299 63.1129 30.4469 62.8513 30.7674C62.5897 31.0878 62.3323 31.4116 62.0792 31.7389C61.8261 32.0661 61.5772 32.3965 61.3327 32.7302C61.0883 33.0639 60.8482 33.4008 60.6125 33.7407C60.3767 34.0807 60.1456 34.4237 59.9189 34.7698C59.6921 35.1158 59.47 35.4648 59.2524 35.8166C59.0348 36.1684 58.8219 36.5231 58.6136 36.8805C58.0107 37.924 57.4361 38.9829 56.8898 40.0571C56.3436 41.1315 55.8266 42.2196 55.3386 43.3216C54.8506 44.4235 54.3924 45.5377 53.964 46.6642C53.5357 47.7906 53.1378 48.9278 52.7703 50.0756C51.7236 53.2561 50.9944 56.5136 50.1788 59.7556C49.7065 59.0609 49.2653 58.3107 48.8913 57.5581C46.3445 52.4337 46.2173 46.2188 48.0214 40.8427C50.1894 34.3826 54.0075 29.625 59.4739 25.6221C60.6955 24.7276 61.9949 23.7653 63.3515 23.0906C61.2635 25.193 60.2367 28.5426 60.187 31.4568ZM74.3631 30.2048C73.4883 31.4098 72.5658 32.4621 71.3661 33.3591C68.6173 35.414 65.1667 36.3927 63.0685 39.2678C62.9172 39.4751 62.5758 39.8855 62.5828 40.1404C63.4018 39.4586 64.221 38.8094 65.1226 38.2391C67.5024 36.7337 70.8187 35.1605 72.7019 33.1029C73.1851 32.575 73.5717 31.9861 73.9004 31.3518C74.0503 31.0627 74.3245 30.6471 74.3673 30.3226C74.3751 30.2631 74.371 30.256 74.3631 30.2048ZM49.8419 37.2061C49.6096 37.5399 49.405 37.8518 49.2548 38.2303C48.3427 40.5292 48.3351 44.8877 48.7663 47.3076C48.9372 48.2662 49.2395 49.4719 49.7608 50.3025C49.9932 50.6728 50.3179 51.0009 50.6124 51.3212L50.8812 51.5864C50.5338 50.4485 50.0561 49.3538 49.7096 48.216C48.9874 45.8439 48.9402 43.3101 49.2344 40.8627C49.3242 40.1164 49.4336 39.3636 49.5741 38.6249C49.6619 38.1625 49.8153 37.6743 49.8419 37.2061ZM70.9426 44.4906C70.3883 45.4659 69.8446 46.4414 69.2176 47.3729C66.5347 51.3583 62.3857 55.7536 58.3938 58.4208C58.1511 58.583 56.8051 59.4269 56.8103 59.5393C62.63 57.3512 68.1288 50.8626 70.6375 45.3161C70.7289 45.1138 70.9662 44.7068 70.9426 44.4906Z" fill="#1B1919"/>
<path d="M45.4973 84.0948C45.0216 83.8813 44.2688 83.6303 43.9394 83.2078C43.3823 82.4931 43.1037 78.6107 42.9233 77.4748C42.7644 76.4751 42.3712 73.4429 42.0057 72.6447C41.8035 72.2034 41.3136 71.7744 40.981 71.425C39.5959 69.9695 37.8014 68.7907 35.9588 67.9953C34.6482 67.4296 33.3002 66.9751 32.0189 66.3371C31.4175 66.0372 30.8339 65.7059 30.2682 65.3432C29.7024 64.9805 29.1578 64.5885 28.6343 64.1671C24.6809 61.0033 21.6004 55.3933 20.1081 50.6285C19.9418 50.0897 19.7888 49.5472 19.6491 49.001C19.5094 48.4547 19.3832 47.9054 19.2705 47.3529C19.1578 46.8005 19.0586 46.2456 18.9731 45.6883C18.8875 45.131 18.8157 44.5719 18.7577 44.0111C18.3991 40.7227 18.402 36.6485 18.7493 33.3645C18.8373 32.5332 18.9962 31.7106 19.1152 30.8834C19.2605 29.8733 19.3446 28.8192 19.6687 27.8479C19.7331 27.6532 19.8062 27.4618 19.8879 27.2738C19.9698 27.0858 20.06 26.9019 20.1585 26.7221C20.2571 26.5422 20.3637 26.3673 20.4782 26.1972C20.5928 26.0271 20.7148 25.8626 20.8443 25.7036C20.8929 26.0457 20.6616 26.5755 20.6289 26.9382C20.4256 29.1984 21.1475 31.4058 22.3877 33.2762C25.4791 37.9381 29.5767 39.6347 34.3239 42.1098C35.4687 42.7065 36.6174 43.2832 37.6939 43.9993C39.2211 45.0152 40.584 46.3543 41.7495 47.7648C45.5985 52.4227 46.3489 59.8244 45.0315 65.543C44.8829 66.1879 44.7181 66.8427 44.525 67.4758C44.3248 68.1322 43.714 69.5033 43.7405 70.1334C43.7608 70.6119 43.9243 71.1035 44.0373 71.5673C44.1822 72.1616 44.3156 72.7584 44.4376 73.3578C45.1095 76.6798 45.8187 80.7322 45.4973 84.0948ZM19.9966 32.0105C19.3822 35.199 19.2596 39.8221 20.2547 42.9398C20.7733 44.5646 21.8957 46.6144 22.8637 48.042C23.8991 49.5689 25.1182 50.8857 26.6801 51.8858C27.4704 52.3918 28.3076 52.8416 29.0833 53.3681C26.5987 52.5532 24.5448 51.4484 22.9429 49.3232C22.4281 48.6401 21.9943 47.9023 21.4925 47.2112C23.9142 53.2606 26.8684 58.6123 32.7429 61.9365C35.0332 63.1885 37.0562 63.9766 39.0465 65.7616C39.7661 66.4071 40.3945 67.0846 40.8976 67.9142C40.5728 66.8852 40.2677 65.84 39.9065 64.8234C39.7635 64.4152 39.6161 64.0088 39.4642 63.604C39.3123 63.1991 39.1559 62.796 38.9951 62.3946C38.8342 61.9932 38.6689 61.5937 38.4991 61.1959C38.3294 60.7983 38.1553 60.4025 37.9768 60.0086C37.7983 59.6148 37.6154 59.223 37.4282 58.8332C37.2411 58.4434 37.0496 58.0557 36.8538 57.6702C36.658 57.2846 36.4579 56.9013 36.2536 56.5202C36.0493 56.1391 35.8408 55.7603 35.6281 55.3838C35.4154 55.0073 35.1986 54.6332 34.9776 54.2615C34.7566 53.8899 34.5316 53.5207 34.3024 53.154C34.0733 52.7873 33.8401 52.4232 33.6028 52.0617C33.3656 51.7001 33.1243 51.3413 32.8791 50.9851C32.6339 50.6289 32.3847 50.2755 32.1317 49.9249C31.8787 49.5743 31.6218 49.2265 31.361 48.8816C31.1003 48.5366 30.8357 48.1946 30.5674 47.8555C30.299 47.5164 30.0269 47.1804 29.7511 46.8473C27.5846 44.2022 25.1641 41.8198 23.2732 38.949C22.293 37.4608 21.3915 35.8716 20.7405 34.2095C20.4917 33.5743 20.3008 32.5596 19.9966 32.0105ZM22.0145 34.6098C22.3488 35.3963 22.8113 36.1275 23.2371 36.8667C23.7905 37.8266 24.3879 38.7582 25.0293 39.6616C25.6708 40.5649 26.3534 41.436 27.0773 42.2748C28.5931 44.024 30.2575 45.6401 31.8146 47.3517C33.2415 48.9203 34.6563 50.5267 35.8786 52.2625C38.312 55.7183 40.1588 59.6839 41.6301 63.6338C42.1685 65.0791 42.7596 66.5673 43.1369 68.0649C43.4361 67.33 43.6233 66.5692 43.8191 65.8027C44.4535 63.3202 44.6794 61.1986 44.6098 58.6361C44.444 56.1278 43.9044 53.6624 42.804 51.3871C43.3905 53.7189 43.6845 56.548 42.3826 58.7011C42.2054 58.9942 41.9946 59.2728 41.7844 59.5431C43.2369 56.8156 43.0074 53.8589 42.1326 50.9902C41.8326 50.0068 41.4364 48.9959 40.8487 48.1462C39.5516 46.2708 37.0246 44.7218 35.0334 43.6656C31.8935 42.0001 28.1576 40.3921 25.4438 38.1194C24.597 37.406 23.8019 36.639 23.0586 35.8182C22.717 35.4425 22.4043 34.9266 22.0145 34.6098ZM36.0981 54.5038C39.9924 61.1964 42.5267 69.0998 43.8081 76.7169C44.0582 78.2035 44.2368 79.7071 44.4147 81.204C44.4734 80.0053 44.2341 78.7017 44.0834 77.5083C43.2148 70.6288 40.8833 62.5459 37.3646 56.5438C37.0082 55.936 36.6716 55.0969 36.1925 54.5851C36.1644 54.555 36.1312 54.5281 36.0981 54.5038Z" fill="#1B1919"/>
<path d="M62.5823 40.1407C62.5753 39.8858 62.9167 39.4754 63.068 39.2681C65.1662 36.393 68.6168 35.4143 71.3656 33.3594C72.5653 32.4623 73.4878 31.4101 74.3625 30.2051C74.3705 30.2563 74.3746 30.2634 74.3668 30.3229C74.3239 30.6474 74.0498 31.063 73.8999 31.3521C73.5712 31.9864 73.1846 32.5753 72.7014 33.1032C70.8182 35.1608 67.5018 36.734 65.1221 38.2393C64.2205 38.8097 63.4013 39.4589 62.5823 40.1407Z" fill="#FEFEFE"/>
<path d="M29.0845 53.3678C28.3088 52.8413 27.4716 52.3916 26.6813 51.8855C25.1194 50.8854 23.9003 49.5687 22.8649 48.0417C21.8969 46.6141 20.7745 44.5644 20.2559 42.9395C19.2608 39.8218 19.3834 35.1987 19.9978 32.0103C20.302 32.5593 20.4929 33.574 20.7417 34.2093C21.3927 35.8713 22.2942 37.4605 23.2744 38.9487C25.1654 41.8196 27.5858 44.2019 29.7524 46.847C30.0281 47.1801 30.3002 47.5162 30.5686 47.8552C30.8369 48.1943 31.1015 48.5363 31.3622 48.8813C31.623 49.2262 31.8799 49.574 32.1329 49.9246C32.3859 50.2752 32.6351 50.6286 32.8803 50.9848C33.1255 51.341 33.3668 51.6999 33.604 52.0614C33.8412 52.4229 34.0744 52.787 34.3036 53.1537C34.5328 53.5204 34.7578 53.8896 34.9788 54.2612C35.1998 54.6329 35.4167 55.007 35.6294 55.3835C35.8421 55.76 36.0506 56.1388 36.2548 56.5199C36.4591 56.901 36.6592 57.2843 36.855 57.6699C37.0508 58.0554 37.2423 58.4431 37.4294 58.8329C37.6167 59.2227 37.7995 59.6145 37.978 60.0084C38.1565 60.4022 38.3306 60.798 38.5003 61.1957C38.6701 61.5934 38.8354 61.993 38.9963 62.3943C39.1571 62.7957 39.3135 63.1988 39.4655 63.6037C39.6174 64.0085 39.7648 64.415 39.9077 64.8231C40.2689 65.8397 40.574 66.8849 40.8988 67.9139C40.3957 67.0844 39.7673 66.4068 39.0477 65.7613C37.0574 63.9764 35.0344 63.1882 32.7441 61.9362C26.8696 58.612 23.9154 53.2603 21.4938 47.2109C21.9956 47.902 22.4293 48.6398 22.9441 49.3229C24.546 51.4481 26.5999 52.5529 29.0845 53.3678Z" fill="#FEFEFE"/>
<path d="M43.1366 68.0645C42.7593 66.5669 42.1682 65.0787 41.6298 63.6334C40.1585 59.6835 38.3117 55.7179 35.8783 52.2621C34.656 50.5263 33.2411 48.9199 31.8143 47.3513C30.2572 45.6397 28.5928 44.0236 27.077 42.2744C26.3531 41.4356 25.6705 40.5645 25.029 39.6612C24.3876 38.7578 23.7902 37.8262 23.2368 36.8663C22.811 36.1271 22.3485 35.3959 22.0142 34.6094C22.404 34.9262 22.7166 35.4421 23.0583 35.8178C23.8016 36.6386 24.5967 37.4056 25.4435 38.119C28.1572 40.3917 31.8931 41.9997 35.0331 43.6652C37.0243 44.7214 39.5513 46.2704 40.8484 48.1458C41.4361 48.9955 41.8323 50.0064 42.1323 50.9898C43.0071 53.8585 43.2365 56.8153 41.7841 59.5427C41.9943 59.2724 42.2051 58.9939 42.3823 58.7007C43.6842 56.5476 43.3902 53.7185 42.8037 51.3867C43.9041 53.662 44.4437 56.1274 44.6095 58.6357C44.6791 61.1982 44.4532 63.3198 43.8188 65.8023C43.6229 66.5688 43.4357 67.3296 43.1366 68.0645Z" fill="#FEFEFE"/>
<path d="M50.6112 51.3212C50.3167 51.0008 49.992 50.6728 49.7596 50.3024C49.2383 49.4718 48.936 48.2661 48.7651 47.3075C48.3339 44.8876 48.3415 40.5291 49.2535 38.2303C49.4037 37.8518 49.6084 37.5399 49.8407 37.2061C49.8141 37.6743 49.6607 38.1625 49.5729 38.6248C49.4324 39.3635 49.3229 40.1164 49.2332 40.8626C48.9389 43.3101 48.9862 45.8438 49.7084 48.2159C50.0549 49.3537 50.5326 50.4484 50.88 51.5863L50.6112 51.3212Z" fill="#FEFEFE"/>
<path d="M56.8098 59.5394C56.8046 59.4271 58.1506 58.5831 58.3933 58.4209C62.3852 55.7537 66.5342 51.3585 69.2171 47.373C69.8441 46.4416 70.3878 45.466 70.9421 44.4907C70.9658 44.707 70.7284 45.1139 70.637 45.3162C68.1283 50.8627 62.6295 57.3513 56.8098 59.5394Z" fill="#FEFEFE"/>
<path d="M44.4156 81.2036C44.2376 79.7067 44.0591 78.2031 43.8089 76.7164C42.5275 69.0994 39.9933 61.196 36.099 54.5034C36.132 54.5277 36.1652 54.5546 36.1933 54.5847C36.6724 55.0965 37.0091 55.9356 37.3654 56.5434C40.8842 62.5455 43.2156 70.6284 44.0843 77.5079C44.235 78.7013 44.4743 80.0049 44.4156 81.2036Z" fill="#FEFEFE"/>
</g>
<defs>
<clipPath id="clip0_462_7034">
<rect width="95" height="95" fill="white" transform="translate(0.5 0.0537109)"/>
</clipPath>
</defs>
</svg>
